<ttFont>
    <TTGlyph name=".notdef" xMin="180" yMin="0" xMax="570" yMax="701">
      <contour>
        <pt x="234" y="651" on="1"/>
        <pt x="234" y="50" on="1"/>
        <pt x="516" y="50" on="1"/>
        <pt x="516" y="651" on="1"/>
      </contour>
      <contour>
        <pt x="180" y="0" on="1"/>
        <pt x="180" y="701" on="1"/>
        <pt x="570" y="701" on="1"/>
        <pt x="570" y="0" on="1"/>
      </contour>
    </TTGlyph>
    <TTGlyph name="A" xMin="10" yMin="0" xMax="460" yMax="685">
      <contour>
        <pt x="344" y="0" on="1"/>
        <pt x="311" y="171" on="1"/>
        <pt x="157" y="171" on="1"/>
        <pt x="125" y="0" on="1"/>
        <pt x="10" y="0" on="1"/>
        <pt x="152" y="685" on="1"/>
        <pt x="319" y="685" on="1"/>
        <pt x="460" y="0" on="1"/>
      </contour>
      <contour>
        <pt x="176" y="273" on="1"/>
        <pt x="291" y="273" on="1"/>
        <pt x="233" y="577" on="1"/>
      </contour>
    </TTGlyph>
    <TTGlyph name="AE" xMin="3" yMin="0" xMax="676" yMax="685">
      <contour>
        <pt x="676" y="580" on="1"/>
        <pt x="468" y="580" on="1"/>
        <pt x="468" y="399" on="1"/>
        <pt x="649" y="399" on="1"/>
        <pt x="649" y="294" on="1"/>
        <pt x="468" y="294" on="1"/>
        <pt x="468" y="105" on="1"/>
        <pt x="676" y="105" on="1"/>
        <pt x="676" y="0" on="1"/>
        <pt x="355" y="0" on="1"/>
        <pt x="355" y="171" on="1"/>
        <pt x="187" y="171" on="1"/>
        <pt x="121" y="0" on="1"/>
        <pt x="3" y="0" on="1"/>
        <pt x="283" y="685" on="1"/>
        <pt x="676" y="685" on="1"/>
      </contour>
      <contour>
        <pt x="355" y="273" on="1"/>
        <pt x="355" y="605" on="1"/>
        <pt x="227" y="273" on="1"/>
      </contour>
    </TTGlyph>
    <TTGlyph name="Aacute" xMin="10" yMin="0" xMax="460" yMax="837">
      <contour>
        <pt x="344" y="0" on="1"/>
        <pt x="311" y="171" on="1"/>
        <pt x="157" y="171" on="1"/>
        <pt x="125" y="0" on="1"/>
        <pt x="10" y="0" on="1"/>
        <pt x="152" y="685" on="1"/>
        <pt x="319" y="685" on="1"/>
        <pt x="460" y="0" on="1"/>
      </contour>
      <contour>
        <pt x="176" y="273" on="1"/>
        <pt x="291" y="273" on="1"/>
        <pt x="233" y="577" on="1"/>
      </contour>
      <contour>
        <pt x="333" y="837" on="1"/>
        <pt x="264" y="725" on="1"/>
        <pt x="197" y="725" on="1"/>
        <pt x="239" y="837" on="1"/>
      </contour>
    </TTGlyph>
    <TTGlyph name="Abreve" xMin="10" yMin="0" xMax="460" yMax="837">
      <contour>
        <pt x="344" y="0" on="1"/>
        <pt x="311" y="171" on="1"/>
        <pt x="157" y="171" on="1"/>
        <pt x="125" y="0" on="1"/>
        <pt x="10" y="0" on="1"/>
        <pt x="152" y="685" on="1"/>
        <pt x="319" y="685" on="1"/>
        <pt x="460" y="0" on="1"/>
      </contour>
      <contour>
        <pt x="176" y="273" on="1"/>
        <pt x="291" y="273" on="1"/>
        <pt x="233" y="577" on="1"/>
      </contour>
      <contour>
        <pt x="282" y="837" on="1"/>
        <pt x="349" y="837" on="1"/>
        <pt x="349" y="787" on="0"/>
        <pt x="284" y="725" on="0"/>
        <pt x="182" y="725" on="0"/>
        <pt x="118" y="787" on="0"/>
        <pt x="117" y="837" on="1"/>
        <pt x="184" y="837" on="1"/>
        <pt x="184" y="813" on="0"/>
        <pt x="210" y="784" on="0"/>
        <pt x="256" y="784" on="0"/>
        <pt x="282" y="813" on="0"/>
      </contour>
    </TTGlyph>
    <TTGlyph name="Acircumflex" xMin="10" yMin="0" xMax="460" yMax="837">
      <contour>
        <pt x="344" y="0" on="1"/>
        <pt x="311" y="171" on="1"/>
        <pt x="157" y="171" on="1"/>
        <pt x="125" y="0" on="1"/>
        <pt x="10" y="0" on="1"/>
        <pt x="152" y="685" on="1"/>
        <pt x="319" y="685" on="1"/>
        <pt x="460" y="0" on="1"/>
      </contour>
      <contour>
        <pt x="176" y="273" on="1"/>
        <pt x="291" y="273" on="1"/>
        <pt x="233" y="577" on="1"/>
      </contour>
      <contour>
        <pt x="239" y="781" on="1"/>
        <pt x="200" y="725" on="1"/>
        <pt x="138" y="725" on="1"/>
        <pt x="194" y="837" on="1"/>
        <pt x="283" y="837" on="1"/>
        <pt x="339" y="725" on="1"/>
        <pt x="278" y="725" on="1"/>
      </contour>
    </TTGlyph>
    <TTGlyph name="Adieresis" xMin="10" yMin="0" xMax="460" yMax="828">
      <contour>
        <pt x="344" y="0" on="1"/>
        <pt x="311" y="171" on="1"/>
        <pt x="157" y="171" on="1"/>
        <pt x="125" y="0" on="1"/>
        <pt x="10" y="0" on="1"/>
        <pt x="152" y="685" on="1"/>
        <pt x="319" y="685" on="1"/>
        <pt x="460" y="0" on="1"/>
      </contour>
      <contour>
        <pt x="176" y="273" on="1"/>
        <pt x="291" y="273" on="1"/>
        <pt x="233" y="577" on="1"/>
      </contour>
      <contour>
        <pt x="205" y="828" on="0"/>
        <pt x="205" y="732" on="0"/>
        <pt x="104" y="732" on="0"/>
        <pt x="104" y="828" on="0"/>
      </contour>
      <contour>
        <pt x="362" y="828" on="0"/>
        <pt x="362" y="732" on="0"/>
        <pt x="261" y="732" on="0"/>
        <pt x="261" y="828" on="0"/>
      </contour>
    </TTGlyph>
    <TTGlyph name="Agrave" xMin="10" yMin="0" xMax="460" yMax="837">
      <contour>
        <pt x="344" y="0" on="1"/>
        <pt x="311" y="171" on="1"/>
        <pt x="157" y="171" on="1"/>
        <pt x="125" y="0" on="1"/>
        <pt x="10" y="0" on="1"/>
        <pt x="152" y="685" on="1"/>
        <pt x="319" y="685" on="1"/>
        <pt x="460" y="0" on="1"/>
      </contour>
      <contour>
        <pt x="176" y="273" on="1"/>
        <pt x="291" y="273" on="1"/>
        <pt x="233" y="577" on="1"/>
      </contour>
      <contour>
        <pt x="265" y="725" on="1"/>
        <pt x="198" y="725" on="1"/>
        <pt x="129" y="837" on="1"/>
        <pt x="223" y="837" on="1"/>
      </contour>
    </TTGlyph>
    <TTGlyph name="Amacron" xMin="10" yMin="0" xMax="460" yMax="814">
      <contour>
        <pt x="344" y="0" on="1"/>
        <pt x="311" y="171" on="1"/>
        <pt x="157" y="171" on="1"/>
        <pt x="125" y="0" on="1"/>
        <pt x="10" y="0" on="1"/>
        <pt x="152" y="685" on="1"/>
        <pt x="319" y="685" on="1"/>
        <pt x="460" y="0" on="1"/>
      </contour>
      <contour>
        <pt x="176" y="273" on="1"/>
        <pt x="291" y="273" on="1"/>
        <pt x="233" y="577" on="1"/>
      </contour>
      <contour>
        <pt x="358" y="814" on="1"/>
        <pt x="358" y="748" on="1"/>
        <pt x="108" y="748" on="1"/>
        <pt x="108" y="814" on="1"/>
      </contour>
    </TTGlyph>
    <TTGlyph name="Aogonek" xMin="10" yMin="-191" xMax="460" yMax="685">
      <contour>
        <pt x="417" y="-94" on="1"/>
        <pt x="417" y="-130" on="0"/>
        <pt x="449" y="-130" on="1"/>
        <pt x="460" y="-130" on="1"/>
        <pt x="460" y="-191" on="1"/>
        <pt x="440" y="-191" on="1"/>
        <pt x="397" y="-191" on="0"/>
        <pt x="350" y="-151" on="0"/>
        <pt x="350" y="-116" on="1"/>
        <pt x="350" y="-52" on="0"/>
        <pt x="414" y="0" on="1"/>
        <pt x="344" y="0" on="1"/>
        <pt x="311" y="171" on="1"/>
        <pt x="157" y="171" on="1"/>
        <pt x="125" y="0" on="1"/>
        <pt x="10" y="0" on="1"/>
        <pt x="152" y="685" on="1"/>
        <pt x="319" y="685" on="1"/>
        <pt x="460" y="0" on="1"/>
        <pt x="417" y="-40" on="0"/>
      </contour>
      <contour>
        <pt x="176" y="273" on="1"/>
        <pt x="291" y="273" on="1"/>
        <pt x="233" y="577" on="1"/>
      </contour>
    </TTGlyph>
    <TTGlyph name="Aring" xMin="10" yMin="0" xMax="460" yMax="857">
      <contour>
        <pt x="344" y="0" on="1"/>
        <pt x="311" y="171" on="1"/>
        <pt x="157" y="171" on="1"/>
        <pt x="125" y="0" on="1"/>
        <pt x="10" y="0" on="1"/>
        <pt x="152" y="685" on="1"/>
        <pt x="319" y="685" on="1"/>
        <pt x="460" y="0" on="1"/>
      </contour>
      <contour>
        <pt x="176" y="273" on="1"/>
        <pt x="291" y="273" on="1"/>
        <pt x="233" y="577" on="1"/>
      </contour>
      <contour>
        <pt x="311" y="747" on="0"/>
        <pt x="270" y="703" on="0"/>
        <pt x="197" y="703" on="0"/>
        <pt x="155" y="747" on="0"/>
        <pt x="155" y="814" on="0"/>
        <pt x="197" y="857" on="0"/>
        <pt x="270" y="857" on="0"/>
        <pt x="311" y="814" on="0"/>
      </contour>
      <contour>
        <pt x="247" y="811" on="0"/>
        <pt x="219" y="811" on="0"/>
        <pt x="202" y="794" on="0"/>
        <pt x="202" y="781" on="1"/>
        <pt x="202" y="749" on="0"/>
        <pt x="264" y="749" on="0"/>
        <pt x="264" y="781" on="1"/>
        <pt x="264" y="794" on="0"/>
      </contour>
    </TTGlyph>
    <TTGlyph name="Atilde" xMin="10" yMin="0" xMax="460" yMax="832">
      <contour>
        <pt x="344" y="0" on="1"/>
        <pt x="311" y="171" on="1"/>
        <pt x="157" y="171" on="1"/>
        <pt x="125" y="0" on="1"/>
        <pt x="10" y="0" on="1"/>
        <pt x="152" y="685" on="1"/>
        <pt x="319" y="685" on="1"/>
        <pt x="460" y="0" on="1"/>
      </contour>
      <contour>
        <pt x="176" y="273" on="1"/>
        <pt x="291" y="273" on="1"/>
        <pt x="233" y="577" on="1"/>
      </contour>
      <contour>
        <pt x="163" y="735" on="1"/>
        <pt x="163" y="729" on="1"/>
        <pt x="95" y="729" on="1"/>
        <pt x="95" y="735" on="1"/>
        <pt x="95" y="779" on="0"/>
        <pt x="135" y="830" on="0"/>
        <pt x="204" y="830" on="0"/>
        <pt x="271" y="791" on="0"/>
        <pt x="281" y="791" on="1"/>
        <pt x="302" y="791" on="0"/>
        <pt x="302" y="825" on="1"/>
        <pt x="302" y="832" on="1"/>
        <pt x="370" y="832" on="1"/>
        <pt x="370" y="823" on="1"/>
        <pt x="370" y="780" on="0"/>
        <pt x="329" y="730" on="0"/>
        <pt x="264" y="730" on="0"/>
        <pt x="196" y="770" on="0"/>
        <pt x="185" y="770" on="1"/>
        <pt x="163" y="770" on="0"/>
      </contour>
    </TTGlyph>
    <TTGlyph name="B" xMin="54" yMin="0" xMax="439" yMax="685">
      <contour>
        <pt x="433" y="529" on="1"/>
        <pt x="433" y="467" on="1"/>
        <pt x="433" y="372" on="0"/>
        <pt x="363" y="346" on="1"/>
        <pt x="439" y="323" on="0"/>
        <pt x="439" y="223" on="1"/>
        <pt x="439" y="156" on="1"/>
        <pt x="439" y="0" on="0"/>
        <pt x="273" y="0" on="1"/>
        <pt x="54" y="0" on="1"/>
        <pt x="54" y="685" on="1"/>
        <pt x="267" y="685" on="1"/>
        <pt x="433" y="685" on="0"/>
      </contour>
      <contour>
        <pt x="249" y="583" on="1"/>
        <pt x="174" y="583" on="1"/>
        <pt x="174" y="398" on="1"/>
        <pt x="249" y="398" on="1"/>
        <pt x="315" y="398" on="0"/>
        <pt x="315" y="460" on="1"/>
        <pt x="315" y="522" on="1"/>
        <pt x="315" y="583" on="0"/>
      </contour>
      <contour>
        <pt x="321" y="163" on="1"/>
        <pt x="321" y="230" on="1"/>
        <pt x="321" y="292" on="0"/>
        <pt x="255" y="292" on="1"/>
        <pt x="174" y="292" on="1"/>
        <pt x="174" y="102" on="1"/>
        <pt x="255" y="102" on="1"/>
        <pt x="321" y="102" on="0"/>
      </contour>
    </TTGlyph>
    <TTGlyph name="C" xMin="44" yMin="-5" xMax="376" yMax="690">
      <contour>
        <pt x="44" y="531" on="1"/>
        <pt x="44" y="606" on="0"/>
        <pt x="147" y="690" on="0"/>
        <pt x="251" y="690" on="1"/>
        <pt x="319" y="690" on="0"/>
        <pt x="373" y="675" on="1"/>
        <pt x="373" y="565" on="1"/>
        <pt x="313" y="582" on="0"/>
        <pt x="204" y="582" on="0"/>
        <pt x="165" y="551" on="0"/>
        <pt x="165" y="521" on="1"/>
        <pt x="165" y="164" on="1"/>
        <pt x="165" y="103" on="0"/>
        <pt x="252" y="103" on="1"/>
        <pt x="325" y="103" on="0"/>
        <pt x="376" y="119" on="1"/>
        <pt x="376" y="10" on="1"/>
        <pt x="322" y="-5" on="0"/>
        <pt x="249" y="-5" on="1"/>
        <pt x="44" y="-5" on="0"/>
        <pt x="44" y="153" on="1"/>
      </contour>
    </TTGlyph>
    <TTGlyph name="Cacute" xMin="44" yMin="-5" xMax="376" yMax="837">
      <contour>
        <pt x="44" y="531" on="1"/>
        <pt x="44" y="606" on="0"/>
        <pt x="147" y="690" on="0"/>
        <pt x="251" y="690" on="1"/>
        <pt x="319" y="690" on="0"/>
        <pt x="373" y="675" on="1"/>
        <pt x="373" y="565" on="1"/>
        <pt x="313" y="582" on="0"/>
        <pt x="204" y="582" on="0"/>
        <pt x="165" y="551" on="0"/>
        <pt x="165" y="521" on="1"/>
        <pt x="165" y="164" on="1"/>
        <pt x="165" y="103" on="0"/>
        <pt x="252" y="103" on="1"/>
        <pt x="325" y="103" on="0"/>
        <pt x="376" y="119" on="1"/>
        <pt x="376" y="10" on="1"/>
        <pt x="322" y="-5" on="0"/>
        <pt x="249" y="-5" on="1"/>
        <pt x="44" y="-5" on="0"/>
        <pt x="44" y="153" on="1"/>
      </contour>
      <contour>
        <pt x="248" y="837" on="1"/>
        <pt x="342" y="837" on="1"/>
        <pt x="273" y="725" on="1"/>
        <pt x="206" y="725" on="1"/>
      </contour>
    </TTGlyph>
    <TTGlyph name="Ccaron" xMin="44" yMin="-5" xMax="376" yMax="837">
      <contour>
        <pt x="165" y="521" on="1"/>
        <pt x="165" y="164" on="1"/>
        <pt x="165" y="103" on="0"/>
        <pt x="252" y="103" on="1"/>
        <pt x="325" y="103" on="0"/>
        <pt x="376" y="119" on="1"/>
        <pt x="376" y="10" on="1"/>
        <pt x="322" y="-5" on="0"/>
        <pt x="249" y="-5" on="1"/>
        <pt x="44" y="-5" on="0"/>
        <pt x="44" y="153" on="1"/>
        <pt x="44" y="531" on="1"/>
        <pt x="44" y="606" on="0"/>
        <pt x="147" y="690" on="0"/>
        <pt x="251" y="690" on="1"/>
        <pt x="319" y="690" on="0"/>
        <pt x="373" y="675" on="1"/>
        <pt x="373" y="565" on="1"/>
        <pt x="313" y="582" on="0"/>
        <pt x="204" y="582" on="0"/>
        <pt x="165" y="551" on="0"/>
      </contour>
      <contour>
        <pt x="192" y="725" on="1"/>
        <pt x="136" y="837" on="1"/>
        <pt x="198" y="837" on="1"/>
        <pt x="237" y="781" on="1"/>
        <pt x="276" y="837" on="1"/>
        <pt x="337" y="837" on="1"/>
        <pt x="281" y="725" on="1"/>
      </contour>
    </TTGlyph>
    <TTGlyph name="Ccedilla" xMin="44" yMin="-187" xMax="376" yMax="690">
      <contour>
        <pt x="270" y="-41" on="0"/>
        <pt x="308" y="-75" on="0"/>
        <pt x="308" y="-144" on="0"/>
        <pt x="256" y="-187" on="0"/>
        <pt x="185" y="-187" on="0"/>
        <pt x="161" y="-181" on="1"/>
        <pt x="161" y="-125" on="1"/>
        <pt x="173" y="-131" on="0"/>
        <pt x="198" y="-131" on="1"/>
        <pt x="237" y="-131" on="0"/>
        <pt x="237" y="-75" on="0"/>
        <pt x="197" y="-74" on="1"/>
        <pt x="186" y="-74" on="1"/>
        <pt x="201" y="-2" on="1"/>
        <pt x="44" y="15" on="0"/>
        <pt x="44" y="153" on="1"/>
        <pt x="44" y="531" on="1"/>
        <pt x="44" y="606" on="0"/>
        <pt x="147" y="690" on="0"/>
        <pt x="251" y="690" on="1"/>
        <pt x="319" y="690" on="0"/>
        <pt x="373" y="675" on="1"/>
        <pt x="373" y="565" on="1"/>
        <pt x="313" y="582" on="0"/>
        <pt x="204" y="582" on="0"/>
        <pt x="165" y="551" on="0"/>
        <pt x="165" y="521" on="1"/>
        <pt x="165" y="164" on="1"/>
        <pt x="165" y="103" on="0"/>
        <pt x="252" y="103" on="1"/>
        <pt x="325" y="103" on="0"/>
        <pt x="376" y="119" on="1"/>
        <pt x="376" y="10" on="1"/>
        <pt x="329" y="-3" on="0"/>
        <pt x="255" y="-5" on="1"/>
        <pt x="247" y="-39" on="1"/>
      </contour>
    </TTGlyph>
    <TTGlyph name="D" xMin="54" yMin="0" xMax="439" yMax="685">
      <contour>
        <pt x="319" y="528" on="1"/>
        <pt x="319" y="585" on="0"/>
        <pt x="257" y="585" on="1"/>
        <pt x="174" y="585" on="1"/>
        <pt x="174" y="104" on="1"/>
        <pt x="257" y="104" on="1"/>
        <pt x="319" y="104" on="0"/>
        <pt x="319" y="168" on="1"/>
      </contour>
      <contour>
        <pt x="54" y="685" on="1"/>
        <pt x="272" y="685" on="1"/>
        <pt x="352" y="685" on="0"/>
        <pt x="439" y="606" on="0"/>
        <pt x="439" y="532" on="1"/>
        <pt x="439" y="159" on="1"/>
        <pt x="439" y="0" on="0"/>
        <pt x="278" y="0" on="1"/>
        <pt x="54" y="0" on="1"/>
      </contour>
    </TTGlyph>
    <TTGlyph name="Dcaron" xMin="54" yMin="0" xMax="439" yMax="837">
      <contour>
        <pt x="54" y="685" on="1"/>
        <pt x="272" y="685" on="1"/>
        <pt x="352" y="685" on="0"/>
        <pt x="439" y="606" on="0"/>
        <pt x="439" y="532" on="1"/>
        <pt x="439" y="159" on="1"/>
        <pt x="439" y="0" on="0"/>
        <pt x="278" y="0" on="1"/>
        <pt x="54" y="0" on="1"/>
      </contour>
      <contour>
        <pt x="319" y="168" on="1"/>
        <pt x="319" y="528" on="1"/>
        <pt x="319" y="585" on="0"/>
        <pt x="257" y="585" on="1"/>
        <pt x="174" y="585" on="1"/>
        <pt x="174" y="104" on="1"/>
        <pt x="257" y="104" on="1"/>
        <pt x="319" y="104" on="0"/>
      </contour>
      <contour>
        <pt x="186" y="725" on="1"/>
        <pt x="130" y="837" on="1"/>
        <pt x="192" y="837" on="1"/>
        <pt x="231" y="781" on="1"/>
        <pt x="270" y="837" on="1"/>
        <pt x="331" y="837" on="1"/>
        <pt x="275" y="725" on="1"/>
      </contour>
    </TTGlyph>
    <TTGlyph name="Dcroat" xMin="-2" yMin="0" xMax="446" yMax="685">
      <contour>
        <pt x="61" y="685" on="1"/>
        <pt x="279" y="685" on="1"/>
        <pt x="359" y="685" on="0"/>
        <pt x="446" y="606" on="0"/>
        <pt x="446" y="532" on="1"/>
        <pt x="446" y="159" on="1"/>
        <pt x="446" y="0" on="0"/>
        <pt x="285" y="0" on="1"/>
        <pt x="61" y="0" on="1"/>
        <pt x="61" y="289" on="1"/>
        <pt x="-2" y="289" on="1"/>
        <pt x="-2" y="389" on="1"/>
        <pt x="61" y="389" on="1"/>
      </contour>
      <contour>
        <pt x="326" y="168" on="1"/>
        <pt x="326" y="528" on="1"/>
        <pt x="326" y="585" on="0"/>
        <pt x="264" y="585" on="1"/>
        <pt x="181" y="585" on="1"/>
        <pt x="181" y="389" on="1"/>
        <pt x="254" y="389" on="1"/>
        <pt x="254" y="289" on="1"/>
        <pt x="181" y="289" on="1"/>
        <pt x="181" y="104" on="1"/>
        <pt x="264" y="104" on="1"/>
        <pt x="326" y="104" on="0"/>
      </contour>
    </TTGlyph>
    <TTGlyph name="E" xMin="54" yMin="0" xMax="383" yMax="685">
      <contour>
        <pt x="54" y="685" on="1"/>
        <pt x="383" y="685" on="1"/>
        <pt x="383" y="580" on="1"/>
        <pt x="174" y="580" on="1"/>
        <pt x="174" y="399" on="1"/>
        <pt x="355" y="399" on="1"/>
        <pt x="355" y="294" on="1"/>
        <pt x="174" y="294" on="1"/>
        <pt x="174" y="105" on="1"/>
        <pt x="383" y="105" on="1"/>
        <pt x="383" y="0" on="1"/>
        <pt x="54" y="0" on="1"/>
      </contour>
    </TTGlyph>
    <TTGlyph name="Eacute" xMin="54" yMin="0" xMax="383" yMax="837">
      <contour>
        <pt x="54" y="685" on="1"/>
        <pt x="383" y="685" on="1"/>
        <pt x="383" y="580" on="1"/>
        <pt x="174" y="580" on="1"/>
        <pt x="174" y="399" on="1"/>
        <pt x="355" y="399" on="1"/>
        <pt x="355" y="294" on="1"/>
        <pt x="174" y="294" on="1"/>
        <pt x="174" y="105" on="1"/>
        <pt x="383" y="105" on="1"/>
        <pt x="383" y="0" on="1"/>
        <pt x="54" y="0" on="1"/>
      </contour>
      <contour>
        <pt x="225" y="837" on="1"/>
        <pt x="319" y="837" on="1"/>
        <pt x="250" y="725" on="1"/>
        <pt x="183" y="725" on="1"/>
      </contour>
    </TTGlyph>
    <TTGlyph name="Ecaron" xMin="54" yMin="0" xMax="383" yMax="837">
      <contour>
        <pt x="383" y="580" on="1"/>
        <pt x="174" y="580" on="1"/>
        <pt x="174" y="399" on="1"/>
        <pt x="355" y="399" on="1"/>
        <pt x="355" y="294" on="1"/>
        <pt x="174" y="294" on="1"/>
        <pt x="174" y="105" on="1"/>
        <pt x="383" y="105" on="1"/>
        <pt x="383" y="0" on="1"/>
        <pt x="54" y="0" on="1"/>
        <pt x="54" y="685" on="1"/>
        <pt x="383" y="685" on="1"/>
      </contour>
      <contour>
        <pt x="171" y="725" on="1"/>
        <pt x="115" y="837" on="1"/>
        <pt x="177" y="837" on="1"/>
        <pt x="216" y="781" on="1"/>
        <pt x="255" y="837" on="1"/>
        <pt x="316" y="837" on="1"/>
        <pt x="260" y="725" on="1"/>
      </contour>
    </TTGlyph>
    <TTGlyph name="Ecircumflex" xMin="54" yMin="0" xMax="383" yMax="837">
      <contour>
        <pt x="383" y="580" on="1"/>
        <pt x="174" y="580" on="1"/>
        <pt x="174" y="399" on="1"/>
        <pt x="355" y="399" on="1"/>
        <pt x="355" y="294" on="1"/>
        <pt x="174" y="294" on="1"/>
        <pt x="174" y="105" on="1"/>
        <pt x="383" y="105" on="1"/>
        <pt x="383" y="0" on="1"/>
        <pt x="54" y="0" on="1"/>
        <pt x="54" y="685" on="1"/>
        <pt x="383" y="685" on="1"/>
      </contour>
      <contour>
        <pt x="212" y="781" on="1"/>
        <pt x="173" y="725" on="1"/>
        <pt x="111" y="725" on="1"/>
        <pt x="167" y="837" on="1"/>
        <pt x="256" y="837" on="1"/>
        <pt x="312" y="725" on="1"/>
        <pt x="251" y="725" on="1"/>
      </contour>
    </TTGlyph>
    <TTGlyph name="Edieresis" xMin="54" yMin="0" xMax="383" yMax="828">
      <contour>
        <pt x="54" y="685" on="1"/>
        <pt x="383" y="685" on="1"/>
        <pt x="383" y="580" on="1"/>
        <pt x="174" y="580" on="1"/>
        <pt x="174" y="399" on="1"/>
        <pt x="355" y="399" on="1"/>
        <pt x="355" y="294" on="1"/>
        <pt x="174" y="294" on="1"/>
        <pt x="174" y="105" on="1"/>
        <pt x="383" y="105" on="1"/>
        <pt x="383" y="0" on="1"/>
        <pt x="54" y="0" on="1"/>
      </contour>
      <contour>
        <pt x="248" y="732" on="0"/>
        <pt x="248" y="828" on="0"/>
        <pt x="349" y="828" on="0"/>
        <pt x="349" y="732" on="0"/>
      </contour>
      <contour>
        <pt x="91" y="732" on="0"/>
        <pt x="91" y="828" on="0"/>
        <pt x="192" y="828" on="0"/>
        <pt x="192" y="732" on="0"/>
      </contour>
    </TTGlyph>
    <TTGlyph name="Edotaccent" xMin="54" yMin="0" xMax="383" yMax="837">
      <contour>
        <pt x="170" y="741" on="0"/>
        <pt x="170" y="837" on="0"/>
        <pt x="271" y="837" on="0"/>
        <pt x="271" y="741" on="0"/>
      </contour>
      <contour>
        <pt x="54" y="685" on="1"/>
        <pt x="383" y="685" on="1"/>
        <pt x="383" y="580" on="1"/>
        <pt x="174" y="580" on="1"/>
        <pt x="174" y="399" on="1"/>
        <pt x="355" y="399" on="1"/>
        <pt x="355" y="294" on="1"/>
        <pt x="174" y="294" on="1"/>
        <pt x="174" y="105" on="1"/>
        <pt x="383" y="105" on="1"/>
        <pt x="383" y="0" on="1"/>
        <pt x="54" y="0" on="1"/>
      </contour>
    </TTGlyph>
    <TTGlyph name="Egrave" xMin="54" yMin="0" xMax="383" yMax="837">
      <contour>
        <pt x="117" y="837" on="1"/>
        <pt x="211" y="837" on="1"/>
        <pt x="253" y="725" on="1"/>
        <pt x="186" y="725" on="1"/>
      </contour>
      <contour>
        <pt x="54" y="685" on="1"/>
        <pt x="383" y="685" on="1"/>
        <pt x="383" y="580" on="1"/>
        <pt x="174" y="580" on="1"/>
        <pt x="174" y="399" on="1"/>
        <pt x="355" y="399" on="1"/>
        <pt x="355" y="294" on="1"/>
        <pt x="174" y="294" on="1"/>
        <pt x="174" y="105" on="1"/>
        <pt x="383" y="105" on="1"/>
        <pt x="383" y="0" on="1"/>
        <pt x="54" y="0" on="1"/>
      </contour>
    </TTGlyph>
    <TTGlyph name="Emacron" xMin="54" yMin="0" xMax="383" yMax="814">
      <contour>
        <pt x="91" y="814" on="1"/>
        <pt x="341" y="814" on="1"/>
        <pt x="341" y="748" on="1"/>
        <pt x="91" y="748" on="1"/>
      </contour>
      <contour>
        <pt x="54" y="685" on="1"/>
        <pt x="383" y="685" on="1"/>
        <pt x="383" y="580" on="1"/>
        <pt x="174" y="580" on="1"/>
        <pt x="174" y="399" on="1"/>
        <pt x="355" y="399" on="1"/>
        <pt x="355" y="294" on="1"/>
        <pt x="174" y="294" on="1"/>
        <pt x="174" y="105" on="1"/>
        <pt x="383" y="105" on="1"/>
        <pt x="383" y="0" on="1"/>
        <pt x="54" y="0" on="1"/>
      </contour>
    </TTGlyph>
    <TTGlyph name="Eogonek" xMin="54" yMin="-191" xMax="383" yMax="685">
      <contour>
        <pt x="383" y="580" on="1"/>
        <pt x="174" y="580" on="1"/>
        <pt x="174" y="399" on="1"/>
        <pt x="355" y="399" on="1"/>
        <pt x="355" y="294" on="1"/>
        <pt x="174" y="294" on="1"/>
        <pt x="174" y="105" on="1"/>
        <pt x="383" y="105" on="1"/>
        <pt x="383" y="0" on="1"/>
        <pt x="382" y="0" on="1"/>
        <pt x="339" y="-40" on="0"/>
        <pt x="339" y="-94" on="1"/>
        <pt x="339" y="-130" on="0"/>
        <pt x="371" y="-130" on="1"/>
        <pt x="382" y="-130" on="1"/>
        <pt x="382" y="-191" on="1"/>
        <pt x="362" y="-191" on="1"/>
        <pt x="319" y="-191" on="0"/>
        <pt x="272" y="-151" on="0"/>
        <pt x="272" y="-116" on="1"/>
        <pt x="272" y="-52" on="0"/>
        <pt x="336" y="0" on="1"/>
        <pt x="54" y="0" on="1"/>
        <pt x="54" y="685" on="1"/>
        <pt x="383" y="685" on="1"/>
      </contour>
    </TTGlyph>
    <TTGlyph name="Eth" xMin="-7" yMin="0" xMax="446" yMax="685">
      <contour>
        <pt x="61" y="685" on="1"/>
        <pt x="279" y="685" on="1"/>
        <pt x="359" y="685" on="0"/>
        <pt x="446" y="606" on="0"/>
        <pt x="446" y="532" on="1"/>
        <pt x="446" y="159" on="1"/>
        <pt x="446" y="0" on="0"/>
        <pt x="285" y="0" on="1"/>
        <pt x="61" y="0" on="1"/>
        <pt x="61" y="287" on="1"/>
        <pt x="-7" y="287" on="1"/>
        <pt x="-7" y="387" on="1"/>
        <pt x="61" y="387" on="1"/>
      </contour>
      <contour>
        <pt x="326" y="168" on="1"/>
        <pt x="326" y="528" on="1"/>
        <pt x="326" y="585" on="0"/>
        <pt x="264" y="585" on="1"/>
        <pt x="181" y="585" on="1"/>
        <pt x="181" y="387" on="1"/>
        <pt x="257" y="387" on="1"/>
        <pt x="257" y="287" on="1"/>
        <pt x="181" y="287" on="1"/>
        <pt x="181" y="104" on="1"/>
        <pt x="264" y="104" on="1"/>
        <pt x="326" y="104" on="0"/>
      </contour>
    </TTGlyph>
    <TTGlyph name="Euro" xMin="18" yMin="-5" xMax="402" yMax="690">
      <contour>
        <pt x="191" y="238" on="1"/>
        <pt x="191" y="164" on="1"/>
        <pt x="191" y="103" on="0"/>
        <pt x="278" y="103" on="1"/>
        <pt x="351" y="103" on="0"/>
        <pt x="402" y="119" on="1"/>
        <pt x="402" y="10" on="1"/>
        <pt x="348" y="-5" on="0"/>
        <pt x="275" y="-5" on="1"/>
        <pt x="70" y="-5" on="0"/>
        <pt x="70" y="153" on="1"/>
        <pt x="70" y="238" on="1"/>
        <pt x="18" y="238" on="1"/>
        <pt x="18" y="318" on="1"/>
        <pt x="70" y="318" on="1"/>
        <pt x="70" y="374" on="1"/>
        <pt x="18" y="374" on="1"/>
        <pt x="18" y="454" on="1"/>
        <pt x="70" y="454" on="1"/>
        <pt x="70" y="531" on="1"/>
        <pt x="70" y="606" on="0"/>
        <pt x="173" y="690" on="0"/>
        <pt x="277" y="690" on="1"/>
        <pt x="345" y="690" on="0"/>
        <pt x="399" y="675" on="1"/>
        <pt x="399" y="565" on="1"/>
        <pt x="339" y="582" on="0"/>
        <pt x="230" y="582" on="0"/>
        <pt x="191" y="551" on="0"/>
        <pt x="191" y="521" on="1"/>
        <pt x="191" y="454" on="1"/>
        <pt x="312" y="454" on="1"/>
        <pt x="312" y="374" on="1"/>
        <pt x="191" y="374" on="1"/>
        <pt x="191" y="318" on="1"/>
        <pt x="312" y="318" on="1"/>
        <pt x="312" y="238" on="1"/>
      </contour>
    </TTGlyph>
    <TTGlyph name="F" xMin="54" yMin="0" xMax="374" yMax="685">
      <contour>
        <pt x="54" y="685" on="1"/>
        <pt x="374" y="685" on="1"/>
        <pt x="374" y="580" on="1"/>
        <pt x="175" y="580" on="1"/>
        <pt x="175" y="378" on="1"/>
        <pt x="361" y="378" on="1"/>
        <pt x="361" y="271" on="1"/>
        <pt x="175" y="271" on="1"/>
        <pt x="175" y="0" on="1"/>
        <pt x="54" y="0" on="1"/>
      </contour>
    </TTGlyph>
    <TTGlyph name="G" xMin="44" yMin="-5" xMax="419" yMax="690">
      <contour>
        <pt x="44" y="527" on="1"/>
        <pt x="44" y="603" on="0"/>
        <pt x="153" y="690" on="0"/>
        <pt x="339" y="690" on="0"/>
        <pt x="393" y="672" on="1"/>
        <pt x="393" y="558" on="1"/>
        <pt x="332" y="580" on="0"/>
        <pt x="261" y="580" on="1"/>
        <pt x="165" y="580" on="0"/>
        <pt x="165" y="515" on="1"/>
        <pt x="165" y="164" on="1"/>
        <pt x="165" y="103" on="0"/>
        <pt x="245" y="103" on="1"/>
        <pt x="280" y="103" on="0"/>
        <pt x="301" y="116" on="1"/>
        <pt x="301" y="356" on="1"/>
        <pt x="419" y="356" on="1"/>
        <pt x="419" y="36" on="1"/>
        <pt x="341" y="-5" on="0"/>
        <pt x="147" y="-5" on="0"/>
        <pt x="44" y="76" on="0"/>
        <pt x="44" y="153" on="1"/>
      </contour>
    </TTGlyph>
    <TTGlyph name="Gbreve" xMin="44" yMin="-5" xMax="419" yMax="837">
      <contour>
        <pt x="292" y="837" on="1"/>
        <pt x="359" y="837" on="1"/>
        <pt x="359" y="787" on="0"/>
        <pt x="294" y="725" on="0"/>
        <pt x="192" y="725" on="0"/>
        <pt x="128" y="787" on="0"/>
        <pt x="127" y="837" on="1"/>
        <pt x="194" y="837" on="1"/>
        <pt x="194" y="813" on="0"/>
        <pt x="220" y="784" on="0"/>
        <pt x="266" y="784" on="0"/>
        <pt x="292" y="813" on="0"/>
      </contour>
      <contour>
        <pt x="44" y="527" on="1"/>
        <pt x="44" y="603" on="0"/>
        <pt x="153" y="690" on="0"/>
        <pt x="339" y="690" on="0"/>
        <pt x="393" y="672" on="1"/>
        <pt x="393" y="558" on="1"/>
        <pt x="332" y="580" on="0"/>
        <pt x="261" y="580" on="1"/>
        <pt x="165" y="580" on="0"/>
        <pt x="165" y="515" on="1"/>
        <pt x="165" y="164" on="1"/>
        <pt x="165" y="103" on="0"/>
        <pt x="245" y="103" on="1"/>
        <pt x="280" y="103" on="0"/>
        <pt x="301" y="116" on="1"/>
        <pt x="301" y="356" on="1"/>
        <pt x="419" y="356" on="1"/>
        <pt x="419" y="36" on="1"/>
        <pt x="341" y="-5" on="0"/>
        <pt x="147" y="-5" on="0"/>
        <pt x="44" y="76" on="0"/>
        <pt x="44" y="153" on="1"/>
      </contour>
    </TTGlyph>
    <TTGlyph name="H" xMin="54" yMin="0" xMax="464" yMax="685">
      <contour>
        <pt x="342" y="685" on="1"/>
        <pt x="464" y="685" on="1"/>
        <pt x="464" y="0" on="1"/>
        <pt x="342" y="0" on="1"/>
        <pt x="342" y="283" on="1"/>
        <pt x="175" y="283" on="1"/>
        <pt x="175" y="0" on="1"/>
        <pt x="54" y="0" on="1"/>
        <pt x="54" y="685" on="1"/>
        <pt x="175" y="685" on="1"/>
        <pt x="175" y="390" on="1"/>
        <pt x="342" y="390" on="1"/>
      </contour>
    </TTGlyph>
    <TTGlyph name="I" xMin="54" yMin="0" xMax="175" yMax="685">
      <contour>
        <pt x="54" y="685" on="1"/>
        <pt x="175" y="685" on="1"/>
        <pt x="175" y="0" on="1"/>
        <pt x="54" y="0" on="1"/>
      </contour>
    </TTGlyph>
    <TTGlyph name="Iacute" xMin="54" yMin="0" xMax="383" yMax="837">
      <contour>
        <pt x="54" y="685" on="1"/>
        <pt x="383" y="685" on="1"/>
        <pt x="383" y="580" on="1"/>
        <pt x="174" y="580" on="1"/>
        <pt x="174" y="399" on="1"/>
        <pt x="355" y="399" on="1"/>
        <pt x="355" y="294" on="1"/>
        <pt x="174" y="294" on="1"/>
        <pt x="174" y="105" on="1"/>
        <pt x="383" y="105" on="1"/>
        <pt x="383" y="0" on="1"/>
        <pt x="54" y="0" on="1"/>
      </contour>
      <contour>
        <pt x="225" y="837" on="1"/>
        <pt x="319" y="837" on="1"/>
        <pt x="250" y="725" on="1"/>
        <pt x="183" y="725" on="1"/>
      </contour>
    </TTGlyph>
    <TTGlyph name="Icircumflex" xMin="15" yMin="0" xMax="216" yMax="837">
      <contour>
        <pt x="54" y="0" on="1"/>
        <pt x="54" y="685" on="1"/>
        <pt x="175" y="685" on="1"/>
        <pt x="175" y="0" on="1"/>
      </contour>
      <contour>
        <pt x="116" y="781" on="1"/>
        <pt x="77" y="725" on="1"/>
        <pt x="15" y="725" on="1"/>
        <pt x="71" y="837" on="1"/>
        <pt x="160" y="837" on="1"/>
        <pt x="216" y="725" on="1"/>
        <pt x="155" y="725" on="1"/>
      </contour>
    </TTGlyph>
    <TTGlyph name="Idieresis" xMin="-15" yMin="0" xMax="243" yMax="828">
      <contour>
        <pt x="142" y="732" on="0"/>
        <pt x="142" y="828" on="0"/>
        <pt x="243" y="828" on="0"/>
        <pt x="243" y="732" on="0"/>
      </contour>
      <contour>
        <pt x="-15" y="732" on="0"/>
        <pt x="-15" y="828" on="0"/>
        <pt x="86" y="828" on="0"/>
        <pt x="86" y="732" on="0"/>
      </contour>
      <contour>
        <pt x="54" y="685" on="1"/>
        <pt x="175" y="685" on="1"/>
        <pt x="175" y="0" on="1"/>
        <pt x="54" y="0" on="1"/>
      </contour>
    </TTGlyph>
    <TTGlyph name="Idotaccent" xMin="54" yMin="0" xMax="175" yMax="837">
      <contour>
        <pt x="62" y="741" on="0"/>
        <pt x="62" y="837" on="0"/>
        <pt x="163" y="837" on="0"/>
        <pt x="163" y="741" on="0"/>
      </contour>
      <contour>
        <pt x="54" y="685" on="1"/>
        <pt x="175" y="685" on="1"/>
        <pt x="175" y="0" on="1"/>
        <pt x="54" y="0" on="1"/>
      </contour>
    </TTGlyph>
    <TTGlyph name="Igrave" xMin="54" yMin="0" xMax="383" yMax="837">
      <contour>
        <pt x="116" y="837" on="1"/>
        <pt x="210" y="837" on="1"/>
        <pt x="252" y="725" on="1"/>
        <pt x="185" y="725" on="1"/>
      </contour>
      <contour>
        <pt x="54" y="685" on="1"/>
        <pt x="383" y="685" on="1"/>
        <pt x="383" y="580" on="1"/>
        <pt x="174" y="580" on="1"/>
        <pt x="174" y="399" on="1"/>
        <pt x="355" y="399" on="1"/>
        <pt x="355" y="294" on="1"/>
        <pt x="174" y="294" on="1"/>
        <pt x="174" y="105" on="1"/>
        <pt x="383" y="105" on="1"/>
        <pt x="383" y="0" on="1"/>
        <pt x="54" y="0" on="1"/>
      </contour>
    </TTGlyph>
    <TTGlyph name="Imacron" xMin="-7" yMin="0" xMax="243" yMax="814">
      <contour>
        <pt x="-7" y="814" on="1"/>
        <pt x="243" y="814" on="1"/>
        <pt x="243" y="748" on="1"/>
        <pt x="-7" y="748" on="1"/>
      </contour>
      <contour>
        <pt x="54" y="685" on="1"/>
        <pt x="175" y="685" on="1"/>
        <pt x="175" y="0" on="1"/>
        <pt x="54" y="0" on="1"/>
      </contour>
    </TTGlyph>
    <TTGlyph name="Iogonek" xMin="54" yMin="-191" xMax="175" yMax="685">
      <contour>
        <pt x="175" y="685" on="1"/>
        <pt x="175" y="0" on="1"/>
        <pt x="132" y="-40" on="0"/>
        <pt x="132" y="-94" on="1"/>
        <pt x="132" y="-130" on="0"/>
        <pt x="164" y="-130" on="1"/>
        <pt x="175" y="-130" on="1"/>
        <pt x="175" y="-191" on="1"/>
        <pt x="155" y="-191" on="1"/>
        <pt x="112" y="-191" on="0"/>
        <pt x="65" y="-151" on="0"/>
        <pt x="65" y="-116" on="1"/>
        <pt x="65" y="-52" on="0"/>
        <pt x="129" y="0" on="1"/>
        <pt x="54" y="0" on="1"/>
        <pt x="54" y="685" on="1"/>
      </contour>
    </TTGlyph>
    <TTGlyph name="J" xMin="-13" yMin="-149" xMax="179" yMax="685">
      <contour>
        <pt x="58" y="685" on="1"/>
        <pt x="179" y="685" on="1"/>
        <pt x="179" y="204" on="1"/>
        <pt x="179" y="73" on="0"/>
        <pt x="145" y="-45" on="1"/>
        <pt x="114" y="-149" on="1"/>
        <pt x="-13" y="-149" on="1"/>
        <pt x="17" y="-45" on="1"/>
        <pt x="58" y="95" on="0"/>
        <pt x="58" y="203" on="1"/>
      </contour>
    </TTGlyph>
    <TTGlyph name="K" xMin="54" yMin="0" xMax="456" yMax="685">
      <contour>
        <pt x="54" y="685" on="1"/>
        <pt x="174" y="685" on="1"/>
        <pt x="174" y="0" on="1"/>
        <pt x="54" y="0" on="1"/>
      </contour>
      <contour>
        <pt x="317" y="685" on="1"/>
        <pt x="446" y="685" on="1"/>
        <pt x="314" y="350" on="1"/>
        <pt x="456" y="0" on="1"/>
        <pt x="323" y="0" on="1"/>
        <pt x="188" y="348" on="1"/>
      </contour>
    </TTGlyph>
    <TTGlyph name="L" xMin="54" yMin="0" xMax="368" yMax="685">
      <contour>
        <pt x="54" y="685" on="1"/>
        <pt x="175" y="685" on="1"/>
        <pt x="175" y="102" on="1"/>
        <pt x="368" y="102" on="1"/>
        <pt x="368" y="0" on="1"/>
        <pt x="54" y="0" on="1"/>
      </contour>
    </TTGlyph>
    <TTGlyph name="Lacute" xMin="54" yMin="0" xMax="368" yMax="837">
      <contour>
        <pt x="54" y="685" on="1"/>
        <pt x="175" y="685" on="1"/>
        <pt x="175" y="102" on="1"/>
        <pt x="368" y="102" on="1"/>
        <pt x="368" y="0" on="1"/>
        <pt x="54" y="0" on="1"/>
      </contour>
      <contour>
        <pt x="120" y="837" on="1"/>
        <pt x="214" y="837" on="1"/>
        <pt x="145" y="725" on="1"/>
        <pt x="78" y="725" on="1"/>
      </contour>
    </TTGlyph>
    <TTGlyph name="Lcaron" xMin="10" yMin="0" xMax="368" yMax="837">
      <contour>
        <pt x="175" y="102" on="1"/>
        <pt x="368" y="102" on="1"/>
        <pt x="368" y="0" on="1"/>
        <pt x="54" y="0" on="1"/>
        <pt x="54" y="685" on="1"/>
        <pt x="175" y="685" on="1"/>
      </contour>
      <contour>
        <pt x="66" y="725" on="1"/>
        <pt x="10" y="837" on="1"/>
        <pt x="72" y="837" on="1"/>
        <pt x="111" y="781" on="1"/>
        <pt x="150" y="837" on="1"/>
        <pt x="211" y="837" on="1"/>
        <pt x="155" y="725" on="1"/>
      </contour>
    </TTGlyph>
    <TTGlyph name="Lslash" xMin="6" yMin="0" xMax="375" yMax="685">
      <contour>
        <pt x="182" y="102" on="1"/>
        <pt x="375" y="102" on="1"/>
        <pt x="375" y="0" on="1"/>
        <pt x="61" y="0" on="1"/>
        <pt x="61" y="269" on="1"/>
        <pt x="6" y="245" on="1"/>
        <pt x="6" y="328" on="1"/>
        <pt x="61" y="352" on="1"/>
        <pt x="61" y="685" on="1"/>
        <pt x="182" y="685" on="1"/>
        <pt x="182" y="406" on="1"/>
        <pt x="273" y="446" on="1"/>
        <pt x="273" y="363" on="1"/>
        <pt x="182" y="323" on="1"/>
      </contour>
    </TTGlyph>
    <TTGlyph name="M" xMin="54" yMin="0" xMax="581" yMax="685">
      <contour>
        <pt x="581" y="685" on="1"/>
        <pt x="581" y="0" on="1"/>
        <pt x="465" y="0" on="1"/>
        <pt x="465" y="284" on="1"/>
        <pt x="465" y="385" on="0"/>
        <pt x="479" y="487" on="1"/>
        <pt x="367" y="177" on="1"/>
        <pt x="267" y="177" on="1"/>
        <pt x="154" y="487" on="1"/>
        <pt x="169" y="394" on="0"/>
        <pt x="169" y="284" on="1"/>
        <pt x="169" y="0" on="1"/>
        <pt x="54" y="0" on="1"/>
        <pt x="54" y="685" on="1"/>
        <pt x="182" y="685" on="1"/>
        <pt x="317" y="305" on="1"/>
        <pt x="452" y="685" on="1"/>
      </contour>
    </TTGlyph>
    <TTGlyph name="N" xMin="54" yMin="0" xMax="466" yMax="685">
      <contour>
        <pt x="347" y="685" on="1"/>
        <pt x="466" y="685" on="1"/>
        <pt x="466" y="0" on="1"/>
        <pt x="345" y="0" on="1"/>
        <pt x="198" y="375" on="0"/>
        <pt x="156" y="498" on="0"/>
        <pt x="154" y="504" on="1"/>
        <pt x="154" y="502" on="0"/>
        <pt x="159" y="467" on="1"/>
        <pt x="172" y="376" on="0"/>
        <pt x="172" y="242" on="1"/>
        <pt x="172" y="0" on="1"/>
        <pt x="54" y="0" on="1"/>
        <pt x="54" y="685" on="1"/>
        <pt x="177" y="685" on="1"/>
        <pt x="304" y="364" on="0"/>
        <pt x="344" y="250" on="0"/>
        <pt x="363" y="189" on="0"/>
        <pt x="365" y="184" on="1"/>
        <pt x="365" y="188" on="0"/>
        <pt x="360" y="222" on="1"/>
        <pt x="347" y="322" on="0"/>
        <pt x="347" y="449" on="1"/>
      </contour>
    </TTGlyph>
    <TTGlyph name="Nacute" xMin="54" yMin="0" xMax="466" yMax="837">
      <contour>
        <pt x="347" y="685" on="1"/>
        <pt x="466" y="685" on="1"/>
        <pt x="466" y="0" on="1"/>
        <pt x="345" y="0" on="1"/>
        <pt x="198" y="375" on="0"/>
        <pt x="156" y="498" on="0"/>
        <pt x="154" y="504" on="1"/>
        <pt x="154" y="502" on="0"/>
        <pt x="159" y="467" on="1"/>
        <pt x="172" y="376" on="0"/>
        <pt x="172" y="242" on="1"/>
        <pt x="172" y="0" on="1"/>
        <pt x="54" y="0" on="1"/>
        <pt x="54" y="685" on="1"/>
        <pt x="177" y="685" on="1"/>
        <pt x="304" y="364" on="0"/>
        <pt x="344" y="250" on="0"/>
        <pt x="363" y="189" on="0"/>
        <pt x="365" y="184" on="1"/>
        <pt x="365" y="188" on="0"/>
        <pt x="360" y="222" on="1"/>
        <pt x="347" y="322" on="0"/>
        <pt x="347" y="449" on="1"/>
      </contour>
      <contour>
        <pt x="259" y="837" on="1"/>
        <pt x="353" y="837" on="1"/>
        <pt x="284" y="725" on="1"/>
        <pt x="217" y="725" on="1"/>
      </contour>
    </TTGlyph>
    <TTGlyph name="Ncaron" xMin="54" yMin="0" xMax="466" yMax="837">
      <contour>
        <pt x="347" y="685" on="1"/>
        <pt x="466" y="685" on="1"/>
        <pt x="466" y="0" on="1"/>
        <pt x="345" y="0" on="1"/>
        <pt x="198" y="375" on="0"/>
        <pt x="156" y="498" on="0"/>
        <pt x="154" y="504" on="1"/>
        <pt x="154" y="502" on="0"/>
        <pt x="159" y="467" on="1"/>
        <pt x="172" y="376" on="0"/>
        <pt x="172" y="242" on="1"/>
        <pt x="172" y="0" on="1"/>
        <pt x="54" y="0" on="1"/>
        <pt x="54" y="685" on="1"/>
        <pt x="177" y="685" on="1"/>
        <pt x="304" y="364" on="0"/>
        <pt x="344" y="250" on="0"/>
        <pt x="363" y="189" on="0"/>
        <pt x="365" y="184" on="1"/>
        <pt x="365" y="188" on="0"/>
        <pt x="360" y="222" on="1"/>
        <pt x="347" y="322" on="0"/>
        <pt x="347" y="449" on="1"/>
      </contour>
      <contour>
        <pt x="210" y="725" on="1"/>
        <pt x="154" y="837" on="1"/>
        <pt x="216" y="837" on="1"/>
        <pt x="255" y="781" on="1"/>
        <pt x="294" y="837" on="1"/>
        <pt x="355" y="837" on="1"/>
        <pt x="299" y="725" on="1"/>
      </contour>
    </TTGlyph>
    <TTGlyph name="Ntilde" xMin="54" yMin="0" xMax="466" yMax="832">
      <contour>
        <pt x="336" y="832" on="1"/>
        <pt x="404" y="832" on="1"/>
        <pt x="404" y="823" on="1"/>
        <pt x="404" y="780" on="0"/>
        <pt x="363" y="730" on="0"/>
        <pt x="298" y="730" on="0"/>
        <pt x="230" y="770" on="0"/>
        <pt x="219" y="770" on="1"/>
        <pt x="197" y="770" on="0"/>
        <pt x="197" y="735" on="1"/>
        <pt x="197" y="729" on="1"/>
        <pt x="129" y="729" on="1"/>
        <pt x="129" y="735" on="1"/>
        <pt x="129" y="779" on="0"/>
        <pt x="169" y="830" on="0"/>
        <pt x="238" y="830" on="0"/>
        <pt x="305" y="791" on="0"/>
        <pt x="315" y="791" on="1"/>
        <pt x="336" y="791" on="0"/>
        <pt x="336" y="825" on="1"/>
      </contour>
      <contour>
        <pt x="347" y="685" on="1"/>
        <pt x="466" y="685" on="1"/>
        <pt x="466" y="0" on="1"/>
        <pt x="345" y="0" on="1"/>
        <pt x="198" y="375" on="0"/>
        <pt x="156" y="498" on="0"/>
        <pt x="154" y="504" on="1"/>
        <pt x="154" y="502" on="0"/>
        <pt x="159" y="467" on="1"/>
        <pt x="172" y="376" on="0"/>
        <pt x="172" y="242" on="1"/>
        <pt x="172" y="0" on="1"/>
        <pt x="54" y="0" on="1"/>
        <pt x="54" y="685" on="1"/>
        <pt x="177" y="685" on="1"/>
        <pt x="304" y="364" on="0"/>
        <pt x="344" y="250" on="0"/>
        <pt x="363" y="189" on="0"/>
        <pt x="365" y="184" on="1"/>
        <pt x="365" y="188" on="0"/>
        <pt x="360" y="222" on="1"/>
        <pt x="347" y="322" on="0"/>
        <pt x="347" y="449" on="1"/>
      </contour>
    </TTGlyph>
    <TTGlyph name="O" xMin="44" yMin="-10" xMax="433" yMax="695">
      <contour>
        <pt x="313" y="518" on="1"/>
        <pt x="313" y="586" on="0"/>
        <pt x="164" y="586" on="0"/>
        <pt x="164" y="518" on="1"/>
        <pt x="164" y="167" on="1"/>
        <pt x="164" y="99" on="0"/>
        <pt x="313" y="99" on="0"/>
        <pt x="313" y="167" on="1"/>
      </contour>
      <contour>
        <pt x="44" y="524" on="1"/>
        <pt x="44" y="602" on="0"/>
        <pt x="142" y="695" on="0"/>
        <pt x="334" y="695" on="0"/>
        <pt x="433" y="602" on="0"/>
        <pt x="433" y="524" on="1"/>
        <pt x="433" y="161" on="1"/>
        <pt x="433" y="83" on="0"/>
        <pt x="334" y="-10" on="0"/>
        <pt x="142" y="-10" on="0"/>
        <pt x="44" y="83" on="0"/>
        <pt x="44" y="161" on="1"/>
      </contour>
    </TTGlyph>
    <TTGlyph name="OE" xMin="64" yMin="0" xMax="669" yMax="685">
      <contour>
        <pt x="669" y="580" on="1"/>
        <pt x="460" y="580" on="1"/>
        <pt x="460" y="399" on="1"/>
        <pt x="641" y="399" on="1"/>
        <pt x="641" y="294" on="1"/>
        <pt x="460" y="294" on="1"/>
        <pt x="460" y="105" on="1"/>
        <pt x="669" y="105" on="1"/>
        <pt x="669" y="0" on="1"/>
        <pt x="224" y="0" on="1"/>
        <pt x="64" y="0" on="0"/>
        <pt x="64" y="159" on="1"/>
        <pt x="64" y="532" on="1"/>
        <pt x="64" y="606" on="0"/>
        <pt x="151" y="685" on="0"/>
        <pt x="231" y="685" on="1"/>
        <pt x="669" y="685" on="1"/>
      </contour>
      <contour>
        <pt x="245" y="104" on="1"/>
        <pt x="340" y="104" on="1"/>
        <pt x="340" y="585" on="1"/>
        <pt x="245" y="585" on="1"/>
        <pt x="184" y="585" on="0"/>
        <pt x="184" y="528" on="1"/>
        <pt x="184" y="168" on="1"/>
        <pt x="184" y="104" on="0"/>
      </contour>
    </TTGlyph>
    <TTGlyph name="Oacute" xMin="44" yMin="-10" xMax="433" yMax="837">
      <contour>
        <pt x="313" y="518" on="1"/>
        <pt x="313" y="586" on="0"/>
        <pt x="164" y="586" on="0"/>
        <pt x="164" y="518" on="1"/>
        <pt x="164" y="167" on="1"/>
        <pt x="164" y="99" on="0"/>
        <pt x="313" y="99" on="0"/>
        <pt x="313" y="167" on="1"/>
      </contour>
      <contour>
        <pt x="44" y="524" on="1"/>
        <pt x="44" y="602" on="0"/>
        <pt x="142" y="695" on="0"/>
        <pt x="334" y="695" on="0"/>
        <pt x="433" y="602" on="0"/>
        <pt x="433" y="524" on="1"/>
        <pt x="433" y="161" on="1"/>
        <pt x="433" y="83" on="0"/>
        <pt x="334" y="-10" on="0"/>
        <pt x="142" y="-10" on="0"/>
        <pt x="44" y="83" on="0"/>
        <pt x="44" y="161" on="1"/>
      </contour>
      <contour>
        <pt x="252" y="837" on="1"/>
        <pt x="346" y="837" on="1"/>
        <pt x="277" y="725" on="1"/>
        <pt x="210" y="725" on="1"/>
      </contour>
    </TTGlyph>
    <TTGlyph name="Ocircumflex" xMin="44" yMin="-10" xMax="433" yMax="837">
      <contour>
        <pt x="44" y="161" on="1"/>
        <pt x="44" y="524" on="1"/>
        <pt x="44" y="602" on="0"/>
        <pt x="142" y="695" on="0"/>
        <pt x="334" y="695" on="0"/>
        <pt x="433" y="602" on="0"/>
        <pt x="433" y="524" on="1"/>
        <pt x="433" y="161" on="1"/>
        <pt x="433" y="83" on="0"/>
        <pt x="334" y="-10" on="0"/>
        <pt x="142" y="-10" on="0"/>
        <pt x="44" y="83" on="0"/>
      </contour>
      <contour>
        <pt x="313" y="167" on="1"/>
        <pt x="313" y="518" on="1"/>
        <pt x="313" y="586" on="0"/>
        <pt x="164" y="586" on="0"/>
        <pt x="164" y="518" on="1"/>
        <pt x="164" y="167" on="1"/>
        <pt x="164" y="99" on="0"/>
        <pt x="313" y="99" on="0"/>
      </contour>
      <contour>
        <pt x="240" y="781" on="1"/>
        <pt x="201" y="725" on="1"/>
        <pt x="139" y="725" on="1"/>
        <pt x="195" y="837" on="1"/>
        <pt x="284" y="837" on="1"/>
        <pt x="340" y="725" on="1"/>
        <pt x="279" y="725" on="1"/>
      </contour>
    </TTGlyph>
    <TTGlyph name="Odieresis" xMin="44" yMin="-10" xMax="433" yMax="828">
      <contour>
        <pt x="313" y="518" on="1"/>
        <pt x="313" y="586" on="0"/>
        <pt x="164" y="586" on="0"/>
        <pt x="164" y="518" on="1"/>
        <pt x="164" y="167" on="1"/>
        <pt x="164" y="99" on="0"/>
        <pt x="313" y="99" on="0"/>
        <pt x="313" y="167" on="1"/>
      </contour>
      <contour>
        <pt x="44" y="524" on="1"/>
        <pt x="44" y="602" on="0"/>
        <pt x="142" y="695" on="0"/>
        <pt x="334" y="695" on="0"/>
        <pt x="433" y="602" on="0"/>
        <pt x="433" y="524" on="1"/>
        <pt x="433" y="161" on="1"/>
        <pt x="433" y="83" on="0"/>
        <pt x="334" y="-10" on="0"/>
        <pt x="142" y="-10" on="0"/>
        <pt x="44" y="83" on="0"/>
        <pt x="44" y="161" on="1"/>
      </contour>
      <contour>
        <pt x="266" y="732" on="0"/>
        <pt x="266" y="828" on="0"/>
        <pt x="367" y="828" on="0"/>
        <pt x="367" y="732" on="0"/>
      </contour>
      <contour>
        <pt x="109" y="732" on="0"/>
        <pt x="109" y="828" on="0"/>
        <pt x="210" y="828" on="0"/>
        <pt x="210" y="732" on="0"/>
      </contour>
    </TTGlyph>
    <TTGlyph name="Ograve" xMin="44" yMin="-10" xMax="433" yMax="837">
      <contour>
        <pt x="132" y="837" on="1"/>
        <pt x="226" y="837" on="1"/>
        <pt x="268" y="725" on="1"/>
        <pt x="201" y="725" on="1"/>
      </contour>
      <contour>
        <pt x="313" y="518" on="1"/>
        <pt x="313" y="586" on="0"/>
        <pt x="164" y="586" on="0"/>
        <pt x="164" y="518" on="1"/>
        <pt x="164" y="167" on="1"/>
        <pt x="164" y="99" on="0"/>
        <pt x="313" y="99" on="0"/>
        <pt x="313" y="167" on="1"/>
      </contour>
      <contour>
        <pt x="44" y="524" on="1"/>
        <pt x="44" y="602" on="0"/>
        <pt x="142" y="695" on="0"/>
        <pt x="334" y="695" on="0"/>
        <pt x="433" y="602" on="0"/>
        <pt x="433" y="524" on="1"/>
        <pt x="433" y="161" on="1"/>
        <pt x="433" y="83" on="0"/>
        <pt x="334" y="-10" on="0"/>
        <pt x="142" y="-10" on="0"/>
        <pt x="44" y="83" on="0"/>
        <pt x="44" y="161" on="1"/>
      </contour>
    </TTGlyph>
    <TTGlyph name="Ohungarumlaut" xMin="44" yMin="-10" xMax="433" yMax="837">
      <contour>
        <pt x="313" y="518" on="1"/>
        <pt x="313" y="586" on="0"/>
        <pt x="164" y="586" on="0"/>
        <pt x="164" y="518" on="1"/>
        <pt x="164" y="167" on="1"/>
        <pt x="164" y="99" on="0"/>
        <pt x="313" y="99" on="0"/>
        <pt x="313" y="167" on="1"/>
      </contour>
      <contour>
        <pt x="44" y="524" on="1"/>
        <pt x="44" y="602" on="0"/>
        <pt x="142" y="695" on="0"/>
        <pt x="334" y="695" on="0"/>
        <pt x="433" y="602" on="0"/>
        <pt x="433" y="524" on="1"/>
        <pt x="433" y="161" on="1"/>
        <pt x="433" y="83" on="0"/>
        <pt x="334" y="-10" on="0"/>
        <pt x="142" y="-10" on="0"/>
        <pt x="44" y="83" on="0"/>
        <pt x="44" y="161" on="1"/>
      </contour>
      <contour>
        <pt x="196" y="837" on="1"/>
        <pt x="282" y="837" on="1"/>
        <pt x="209" y="725" on="1"/>
        <pt x="150" y="725" on="1"/>
      </contour>
      <contour>
        <pt x="303" y="837" on="1"/>
        <pt x="389" y="837" on="1"/>
        <pt x="316" y="725" on="1"/>
        <pt x="257" y="725" on="1"/>
      </contour>
    </TTGlyph>
    <TTGlyph name="Omacron" xMin="44" yMin="-10" xMax="433" yMax="814">
      <contour>
        <pt x="313" y="518" on="1"/>
        <pt x="313" y="586" on="0"/>
        <pt x="164" y="586" on="0"/>
        <pt x="164" y="518" on="1"/>
        <pt x="164" y="167" on="1"/>
        <pt x="164" y="99" on="0"/>
        <pt x="313" y="99" on="0"/>
        <pt x="313" y="167" on="1"/>
      </contour>
      <contour>
        <pt x="44" y="524" on="1"/>
        <pt x="44" y="602" on="0"/>
        <pt x="142" y="695" on="0"/>
        <pt x="334" y="695" on="0"/>
        <pt x="433" y="602" on="0"/>
        <pt x="433" y="524" on="1"/>
        <pt x="433" y="161" on="1"/>
        <pt x="433" y="83" on="0"/>
        <pt x="334" y="-10" on="0"/>
        <pt x="142" y="-10" on="0"/>
        <pt x="44" y="83" on="0"/>
        <pt x="44" y="161" on="1"/>
      </contour>
      <contour>
        <pt x="115" y="814" on="1"/>
        <pt x="365" y="814" on="1"/>
        <pt x="365" y="748" on="1"/>
        <pt x="115" y="748" on="1"/>
      </contour>
    </TTGlyph>
    <TTGlyph name="Oslash" xMin="41" yMin="-10" xMax="436" yMax="695">
      <contour>
        <pt x="433" y="524" on="1"/>
        <pt x="433" y="161" on="1"/>
        <pt x="433" y="83" on="0"/>
        <pt x="334" y="-10" on="0"/>
        <pt x="238" y="-10" on="1"/>
        <pt x="169" y="-10" on="0"/>
        <pt x="124" y="15" on="1"/>
        <pt x="117" y="0" on="1"/>
        <pt x="41" y="0" on="1"/>
        <pt x="70" y="63" on="1"/>
        <pt x="44" y="104" on="0"/>
        <pt x="44" y="161" on="1"/>
        <pt x="44" y="524" on="1"/>
        <pt x="44" y="602" on="0"/>
        <pt x="142" y="695" on="0"/>
        <pt x="238" y="695" on="1"/>
        <pt x="306" y="695" on="0"/>
        <pt x="353" y="670" on="1"/>
        <pt x="360" y="685" on="1"/>
        <pt x="436" y="685" on="1"/>
        <pt x="406" y="622" on="1"/>
        <pt x="433" y="580" on="0"/>
      </contour>
      <contour>
        <pt x="164" y="518" on="1"/>
        <pt x="164" y="264" on="1"/>
        <pt x="302" y="560" on="1"/>
        <pt x="282" y="586" on="0"/>
        <pt x="238" y="586" on="1"/>
        <pt x="164" y="586" on="0"/>
      </contour>
      <contour>
        <pt x="313" y="167" on="1"/>
        <pt x="313" y="421" on="1"/>
        <pt x="175" y="125" on="1"/>
        <pt x="193" y="99" on="0"/>
        <pt x="238" y="99" on="1"/>
        <pt x="313" y="99" on="0"/>
      </contour>
    </TTGlyph>
    <TTGlyph name="Otilde" xMin="44" yMin="-10" xMax="433" yMax="832">
      <contour>
        <pt x="306" y="832" on="1"/>
        <pt x="374" y="832" on="1"/>
        <pt x="374" y="823" on="1"/>
        <pt x="374" y="780" on="0"/>
        <pt x="333" y="730" on="0"/>
        <pt x="268" y="730" on="0"/>
        <pt x="200" y="770" on="0"/>
        <pt x="189" y="770" on="1"/>
        <pt x="167" y="770" on="0"/>
        <pt x="167" y="735" on="1"/>
        <pt x="167" y="729" on="1"/>
        <pt x="99" y="729" on="1"/>
        <pt x="99" y="735" on="1"/>
        <pt x="99" y="779" on="0"/>
        <pt x="139" y="830" on="0"/>
        <pt x="208" y="830" on="0"/>
        <pt x="275" y="791" on="0"/>
        <pt x="285" y="791" on="1"/>
        <pt x="306" y="791" on="0"/>
        <pt x="306" y="825" on="1"/>
      </contour>
      <contour>
        <pt x="313" y="518" on="1"/>
        <pt x="313" y="586" on="0"/>
        <pt x="164" y="586" on="0"/>
        <pt x="164" y="518" on="1"/>
        <pt x="164" y="167" on="1"/>
        <pt x="164" y="99" on="0"/>
        <pt x="313" y="99" on="0"/>
        <pt x="313" y="167" on="1"/>
      </contour>
      <contour>
        <pt x="44" y="524" on="1"/>
        <pt x="44" y="602" on="0"/>
        <pt x="142" y="695" on="0"/>
        <pt x="334" y="695" on="0"/>
        <pt x="433" y="602" on="0"/>
        <pt x="433" y="524" on="1"/>
        <pt x="433" y="161" on="1"/>
        <pt x="433" y="83" on="0"/>
        <pt x="334" y="-10" on="0"/>
        <pt x="142" y="-10" on="0"/>
        <pt x="44" y="83" on="0"/>
        <pt x="44" y="161" on="1"/>
      </contour>
    </TTGlyph>
    <TTGlyph name="P" xMin="54" yMin="0" xMax="426" yMax="685">
      <contour>
        <pt x="306" y="520" on="1"/>
        <pt x="306" y="580" on="0"/>
        <pt x="243" y="580" on="1"/>
        <pt x="175" y="580" on="1"/>
        <pt x="175" y="316" on="1"/>
        <pt x="243" y="316" on="1"/>
        <pt x="306" y="316" on="0"/>
        <pt x="306" y="377" on="1"/>
      </contour>
      <contour>
        <pt x="54" y="685" on="1"/>
        <pt x="256" y="685" on="1"/>
        <pt x="337" y="685" on="0"/>
        <pt x="426" y="605" on="0"/>
        <pt x="426" y="532" on="1"/>
        <pt x="426" y="365" on="1"/>
        <pt x="426" y="292" on="0"/>
        <pt x="337" y="212" on="0"/>
        <pt x="256" y="212" on="1"/>
        <pt x="175" y="212" on="1"/>
        <pt x="175" y="0" on="1"/>
        <pt x="54" y="0" on="1"/>
      </contour>
    </TTGlyph>
    <TTGlyph name="Q" xMin="44" yMin="-92" xMax="484" yMax="695">
      <contour>
        <pt x="238" y="-10" on="1"/>
        <pt x="142" y="-10" on="0"/>
        <pt x="44" y="83" on="0"/>
        <pt x="44" y="161" on="1"/>
        <pt x="44" y="524" on="1"/>
        <pt x="44" y="602" on="0"/>
        <pt x="142" y="695" on="0"/>
        <pt x="334" y="695" on="0"/>
        <pt x="433" y="602" on="0"/>
        <pt x="433" y="524" on="1"/>
        <pt x="433" y="161" on="1"/>
        <pt x="433" y="72" on="0"/>
        <pt x="371" y="26" on="1"/>
        <pt x="484" y="-92" on="1"/>
        <pt x="340" y="-92" on="1"/>
        <pt x="262" y="-9" on="1"/>
        <pt x="254" y="-10" on="0"/>
      </contour>
      <contour>
        <pt x="164" y="518" on="1"/>
        <pt x="164" y="167" on="1"/>
        <pt x="164" y="99" on="0"/>
        <pt x="313" y="99" on="0"/>
        <pt x="313" y="167" on="1"/>
        <pt x="313" y="518" on="1"/>
        <pt x="313" y="586" on="0"/>
        <pt x="164" y="586" on="0"/>
      </contour>
    </TTGlyph>
    <TTGlyph name="R" xMin="54" yMin="0" xMax="450" yMax="685">
      <contour>
        <pt x="174" y="258" on="1"/>
        <pt x="174" y="0" on="1"/>
        <pt x="54" y="0" on="1"/>
        <pt x="54" y="685" on="1"/>
        <pt x="256" y="685" on="1"/>
        <pt x="337" y="685" on="0"/>
        <pt x="426" y="606" on="0"/>
        <pt x="426" y="533" on="1"/>
        <pt x="426" y="416" on="1"/>
        <pt x="426" y="300" on="0"/>
        <pt x="342" y="270" on="1"/>
        <pt x="450" y="0" on="1"/>
        <pt x="318" y="0" on="1"/>
        <pt x="223" y="258" on="1"/>
      </contour>
      <contour>
        <pt x="174" y="582" on="1"/>
        <pt x="174" y="355" on="1"/>
        <pt x="244" y="355" on="1"/>
        <pt x="277" y="355" on="0"/>
        <pt x="306" y="384" on="0"/>
        <pt x="306" y="417" on="1"/>
        <pt x="306" y="524" on="1"/>
        <pt x="306" y="582" on="0"/>
        <pt x="244" y="582" on="1"/>
      </contour>
    </TTGlyph>
    <TTGlyph name="Racute" xMin="54" yMin="0" xMax="450" yMax="837">
      <contour>
        <pt x="174" y="258" on="1"/>
        <pt x="174" y="0" on="1"/>
        <pt x="54" y="0" on="1"/>
        <pt x="54" y="685" on="1"/>
        <pt x="256" y="685" on="1"/>
        <pt x="337" y="685" on="0"/>
        <pt x="426" y="606" on="0"/>
        <pt x="426" y="533" on="1"/>
        <pt x="426" y="416" on="1"/>
        <pt x="426" y="300" on="0"/>
        <pt x="342" y="270" on="1"/>
        <pt x="450" y="0" on="1"/>
        <pt x="318" y="0" on="1"/>
        <pt x="223" y="258" on="1"/>
      </contour>
      <contour>
        <pt x="174" y="582" on="1"/>
        <pt x="174" y="355" on="1"/>
        <pt x="244" y="355" on="1"/>
        <pt x="277" y="355" on="0"/>
        <pt x="306" y="384" on="0"/>
        <pt x="306" y="417" on="1"/>
        <pt x="306" y="524" on="1"/>
        <pt x="306" y="582" on="0"/>
        <pt x="244" y="582" on="1"/>
      </contour>
      <contour>
        <pt x="328" y="837" on="1"/>
        <pt x="259" y="725" on="1"/>
        <pt x="192" y="725" on="1"/>
        <pt x="234" y="837" on="1"/>
      </contour>
    </TTGlyph>
    <TTGlyph name="Rcaron" xMin="54" yMin="0" xMax="450" yMax="837">
      <contour>
        <pt x="174" y="258" on="1"/>
        <pt x="174" y="0" on="1"/>
        <pt x="54" y="0" on="1"/>
        <pt x="54" y="685" on="1"/>
        <pt x="256" y="685" on="1"/>
        <pt x="337" y="685" on="0"/>
        <pt x="426" y="606" on="0"/>
        <pt x="426" y="533" on="1"/>
        <pt x="426" y="416" on="1"/>
        <pt x="426" y="300" on="0"/>
        <pt x="342" y="270" on="1"/>
        <pt x="450" y="0" on="1"/>
        <pt x="318" y="0" on="1"/>
        <pt x="223" y="258" on="1"/>
      </contour>
      <contour>
        <pt x="174" y="582" on="1"/>
        <pt x="174" y="355" on="1"/>
        <pt x="244" y="355" on="1"/>
        <pt x="277" y="355" on="0"/>
        <pt x="306" y="384" on="0"/>
        <pt x="306" y="417" on="1"/>
        <pt x="306" y="524" on="1"/>
        <pt x="306" y="582" on="0"/>
        <pt x="244" y="582" on="1"/>
      </contour>
      <contour>
        <pt x="180" y="725" on="1"/>
        <pt x="124" y="837" on="1"/>
        <pt x="186" y="837" on="1"/>
        <pt x="225" y="781" on="1"/>
        <pt x="264" y="837" on="1"/>
        <pt x="325" y="837" on="1"/>
        <pt x="269" y="725" on="1"/>
      </contour>
    </TTGlyph>
    <TTGlyph name="S" xMin="23" yMin="-5" xMax="396" yMax="690">
      <contour>
        <pt x="23" y="533" on="1"/>
        <pt x="23" y="608" on="0"/>
        <pt x="123" y="690" on="0"/>
        <pt x="310" y="690" on="0"/>
        <pt x="362" y="671" on="1"/>
        <pt x="362" y="556" on="1"/>
        <pt x="304" y="579" on="0"/>
        <pt x="146" y="579" on="0"/>
        <pt x="146" y="519" on="1"/>
        <pt x="146" y="492" on="1"/>
        <pt x="146" y="462" on="0"/>
        <pt x="168" y="429" on="0"/>
        <pt x="200" y="412" on="1"/>
        <pt x="315" y="347" on="1"/>
        <pt x="396" y="303" on="0"/>
        <pt x="396" y="213" on="1"/>
        <pt x="396" y="154" on="1"/>
        <pt x="396" y="78" on="0"/>
        <pt x="286" y="-5" on="0"/>
        <pt x="82" y="-5" on="0"/>
        <pt x="31" y="17" on="1"/>
        <pt x="31" y="133" on="1"/>
        <pt x="95" y="106" on="0"/>
        <pt x="176" y="106" on="1"/>
        <pt x="275" y="106" on="0"/>
        <pt x="275" y="168" on="1"/>
        <pt x="275" y="194" on="1"/>
        <pt x="275" y="220" on="0"/>
        <pt x="254" y="249" on="0"/>
        <pt x="226" y="264" on="1"/>
        <pt x="116" y="324" on="1"/>
        <pt x="23" y="375" on="0"/>
        <pt x="23" y="471" on="1"/>
      </contour>
    </TTGlyph>
    <TTGlyph name="Sacute" xMin="23" yMin="-5" xMax="396" yMax="837">
      <contour>
        <pt x="23" y="533" on="1"/>
        <pt x="23" y="608" on="0"/>
        <pt x="123" y="690" on="0"/>
        <pt x="310" y="690" on="0"/>
        <pt x="362" y="671" on="1"/>
        <pt x="362" y="556" on="1"/>
        <pt x="304" y="579" on="0"/>
        <pt x="146" y="579" on="0"/>
        <pt x="146" y="519" on="1"/>
        <pt x="146" y="492" on="1"/>
        <pt x="146" y="462" on="0"/>
        <pt x="168" y="429" on="0"/>
        <pt x="200" y="412" on="1"/>
        <pt x="315" y="347" on="1"/>
        <pt x="396" y="303" on="0"/>
        <pt x="396" y="213" on="1"/>
        <pt x="396" y="154" on="1"/>
        <pt x="396" y="78" on="0"/>
        <pt x="286" y="-5" on="0"/>
        <pt x="82" y="-5" on="0"/>
        <pt x="31" y="17" on="1"/>
        <pt x="31" y="133" on="1"/>
        <pt x="95" y="106" on="0"/>
        <pt x="176" y="106" on="1"/>
        <pt x="275" y="106" on="0"/>
        <pt x="275" y="168" on="1"/>
        <pt x="275" y="194" on="1"/>
        <pt x="275" y="220" on="0"/>
        <pt x="254" y="249" on="0"/>
        <pt x="226" y="264" on="1"/>
        <pt x="116" y="324" on="1"/>
        <pt x="23" y="375" on="0"/>
        <pt x="23" y="471" on="1"/>
      </contour>
      <contour>
        <pt x="220" y="837" on="1"/>
        <pt x="314" y="837" on="1"/>
        <pt x="245" y="725" on="1"/>
        <pt x="178" y="725" on="1"/>
      </contour>
    </TTGlyph>
    <TTGlyph name="Scaron" xMin="23" yMin="-5" xMax="396" yMax="837">
      <contour>
        <pt x="396" y="213" on="1"/>
        <pt x="396" y="154" on="1"/>
        <pt x="396" y="78" on="0"/>
        <pt x="286" y="-5" on="0"/>
        <pt x="82" y="-5" on="0"/>
        <pt x="31" y="17" on="1"/>
        <pt x="31" y="133" on="1"/>
        <pt x="95" y="106" on="0"/>
        <pt x="176" y="106" on="1"/>
        <pt x="275" y="106" on="0"/>
        <pt x="275" y="168" on="1"/>
        <pt x="275" y="194" on="1"/>
        <pt x="275" y="220" on="0"/>
        <pt x="254" y="249" on="0"/>
        <pt x="226" y="264" on="1"/>
        <pt x="116" y="324" on="1"/>
        <pt x="23" y="375" on="0"/>
        <pt x="23" y="471" on="1"/>
        <pt x="23" y="533" on="1"/>
        <pt x="23" y="608" on="0"/>
        <pt x="123" y="690" on="0"/>
        <pt x="310" y="690" on="0"/>
        <pt x="362" y="671" on="1"/>
        <pt x="362" y="556" on="1"/>
        <pt x="304" y="579" on="0"/>
        <pt x="146" y="579" on="0"/>
        <pt x="146" y="519" on="1"/>
        <pt x="146" y="492" on="1"/>
        <pt x="146" y="462" on="0"/>
        <pt x="168" y="429" on="0"/>
        <pt x="200" y="412" on="1"/>
        <pt x="315" y="347" on="1"/>
        <pt x="396" y="303" on="0"/>
      </contour>
      <contour>
        <pt x="164" y="725" on="1"/>
        <pt x="108" y="837" on="1"/>
        <pt x="170" y="837" on="1"/>
        <pt x="209" y="781" on="1"/>
        <pt x="248" y="837" on="1"/>
        <pt x="309" y="837" on="1"/>
        <pt x="253" y="725" on="1"/>
      </contour>
    </TTGlyph>
    <TTGlyph name="T" xMin="7" yMin="0" xMax="382" yMax="685">
      <contour>
        <pt x="382" y="685" on="1"/>
        <pt x="382" y="580" on="1"/>
        <pt x="255" y="580" on="1"/>
        <pt x="255" y="0" on="1"/>
        <pt x="134" y="0" on="1"/>
        <pt x="134" y="580" on="1"/>
        <pt x="7" y="580" on="1"/>
        <pt x="7" y="685" on="1"/>
      </contour>
    </TTGlyph>
    <TTGlyph name="Tcaron" xMin="7" yMin="0" xMax="382" yMax="837">
      <contour>
        <pt x="382" y="685" on="1"/>
        <pt x="382" y="580" on="1"/>
        <pt x="255" y="580" on="1"/>
        <pt x="255" y="0" on="1"/>
        <pt x="134" y="0" on="1"/>
        <pt x="134" y="580" on="1"/>
        <pt x="7" y="580" on="1"/>
        <pt x="7" y="685" on="1"/>
      </contour>
      <contour>
        <pt x="148" y="725" on="1"/>
        <pt x="92" y="837" on="1"/>
        <pt x="154" y="837" on="1"/>
        <pt x="193" y="781" on="1"/>
        <pt x="232" y="837" on="1"/>
        <pt x="293" y="837" on="1"/>
        <pt x="237" y="725" on="1"/>
      </contour>
    </TTGlyph>
    <TTGlyph name="Thorn" xMin="64" yMin="0" xMax="427" yMax="685">
      <contour>
        <pt x="180" y="575" on="1"/>
        <pt x="258" y="575" on="1"/>
        <pt x="338" y="575" on="0"/>
        <pt x="427" y="495" on="0"/>
        <pt x="427" y="422" on="1"/>
        <pt x="427" y="263" on="1"/>
        <pt x="427" y="190" on="0"/>
        <pt x="338" y="111" on="0"/>
        <pt x="258" y="111" on="1"/>
        <pt x="180" y="111" on="1"/>
        <pt x="180" y="0" on="1"/>
        <pt x="64" y="0" on="1"/>
        <pt x="64" y="685" on="1"/>
        <pt x="180" y="685" on="1"/>
      </contour>
      <contour>
        <pt x="312" y="275" on="1"/>
        <pt x="312" y="411" on="1"/>
        <pt x="312" y="472" on="0"/>
        <pt x="249" y="472" on="1"/>
        <pt x="180" y="472" on="1"/>
        <pt x="180" y="214" on="1"/>
        <pt x="249" y="214" on="1"/>
        <pt x="312" y="214" on="0"/>
      </contour>
    </TTGlyph>
    <TTGlyph name="U" xMin="49" yMin="-10" xMax="435" yMax="685">
      <contour>
        <pt x="315" y="685" on="1"/>
        <pt x="435" y="685" on="1"/>
        <pt x="435" y="161" on="1"/>
        <pt x="435" y="83" on="0"/>
        <pt x="337" y="-10" on="0"/>
        <pt x="146" y="-10" on="0"/>
        <pt x="49" y="83" on="0"/>
        <pt x="49" y="161" on="1"/>
        <pt x="49" y="685" on="1"/>
        <pt x="169" y="685" on="1"/>
        <pt x="169" y="167" on="1"/>
        <pt x="169" y="99" on="0"/>
        <pt x="315" y="99" on="0"/>
        <pt x="315" y="167" on="1"/>
      </contour>
    </TTGlyph>
    <TTGlyph name="Uacute" xMin="49" yMin="-10" xMax="435" yMax="837">
      <contour>
        <pt x="315" y="685" on="1"/>
        <pt x="435" y="685" on="1"/>
        <pt x="435" y="161" on="1"/>
        <pt x="435" y="83" on="0"/>
        <pt x="337" y="-10" on="0"/>
        <pt x="146" y="-10" on="0"/>
        <pt x="49" y="83" on="0"/>
        <pt x="49" y="161" on="1"/>
        <pt x="49" y="685" on="1"/>
        <pt x="169" y="685" on="1"/>
        <pt x="169" y="167" on="1"/>
        <pt x="169" y="99" on="0"/>
        <pt x="315" y="99" on="0"/>
        <pt x="315" y="167" on="1"/>
      </contour>
      <contour>
        <pt x="250" y="837" on="1"/>
        <pt x="344" y="837" on="1"/>
        <pt x="275" y="725" on="1"/>
        <pt x="208" y="725" on="1"/>
      </contour>
    </TTGlyph>
    <TTGlyph name="Ucircumflex" xMin="49" yMin="-10" xMax="435" yMax="837">
      <contour>
        <pt x="315" y="685" on="1"/>
        <pt x="435" y="685" on="1"/>
        <pt x="435" y="161" on="1"/>
        <pt x="435" y="83" on="0"/>
        <pt x="337" y="-10" on="0"/>
        <pt x="146" y="-10" on="0"/>
        <pt x="49" y="83" on="0"/>
        <pt x="49" y="161" on="1"/>
        <pt x="49" y="685" on="1"/>
        <pt x="169" y="685" on="1"/>
        <pt x="169" y="167" on="1"/>
        <pt x="169" y="99" on="0"/>
        <pt x="315" y="99" on="0"/>
        <pt x="315" y="167" on="1"/>
      </contour>
      <contour>
        <pt x="242" y="781" on="1"/>
        <pt x="203" y="725" on="1"/>
        <pt x="141" y="725" on="1"/>
        <pt x="197" y="837" on="1"/>
        <pt x="286" y="837" on="1"/>
        <pt x="342" y="725" on="1"/>
        <pt x="281" y="725" on="1"/>
      </contour>
    </TTGlyph>
    <TTGlyph name="Udieresis" xMin="49" yMin="-10" xMax="435" yMax="828">
      <contour>
        <pt x="315" y="685" on="1"/>
        <pt x="435" y="685" on="1"/>
        <pt x="435" y="161" on="1"/>
        <pt x="435" y="83" on="0"/>
        <pt x="337" y="-10" on="0"/>
        <pt x="146" y="-10" on="0"/>
        <pt x="49" y="83" on="0"/>
        <pt x="49" y="161" on="1"/>
        <pt x="49" y="685" on="1"/>
        <pt x="169" y="685" on="1"/>
        <pt x="169" y="167" on="1"/>
        <pt x="169" y="99" on="0"/>
        <pt x="315" y="99" on="0"/>
        <pt x="315" y="167" on="1"/>
      </contour>
      <contour>
        <pt x="269" y="732" on="0"/>
        <pt x="269" y="828" on="0"/>
        <pt x="370" y="828" on="0"/>
        <pt x="370" y="732" on="0"/>
      </contour>
      <contour>
        <pt x="112" y="732" on="0"/>
        <pt x="112" y="828" on="0"/>
        <pt x="213" y="828" on="0"/>
        <pt x="213" y="732" on="0"/>
      </contour>
    </TTGlyph>
    <TTGlyph name="Ugrave" xMin="49" yMin="-10" xMax="435" yMax="837">
      <contour>
        <pt x="140" y="837" on="1"/>
        <pt x="234" y="837" on="1"/>
        <pt x="276" y="725" on="1"/>
        <pt x="209" y="725" on="1"/>
      </contour>
      <contour>
        <pt x="315" y="685" on="1"/>
        <pt x="435" y="685" on="1"/>
        <pt x="435" y="161" on="1"/>
        <pt x="435" y="83" on="0"/>
        <pt x="337" y="-10" on="0"/>
        <pt x="146" y="-10" on="0"/>
        <pt x="49" y="83" on="0"/>
        <pt x="49" y="161" on="1"/>
        <pt x="49" y="685" on="1"/>
        <pt x="169" y="685" on="1"/>
        <pt x="169" y="167" on="1"/>
        <pt x="169" y="99" on="0"/>
        <pt x="315" y="99" on="0"/>
        <pt x="315" y="167" on="1"/>
      </contour>
    </TTGlyph>
    <TTGlyph name="Uhungarumlaut" xMin="49" yMin="-10" xMax="435" yMax="837">
      <contour>
        <pt x="195" y="837" on="1"/>
        <pt x="281" y="837" on="1"/>
        <pt x="208" y="725" on="1"/>
        <pt x="149" y="725" on="1"/>
      </contour>
      <contour>
        <pt x="302" y="837" on="1"/>
        <pt x="388" y="837" on="1"/>
        <pt x="315" y="725" on="1"/>
        <pt x="256" y="725" on="1"/>
      </contour>
      <contour>
        <pt x="315" y="685" on="1"/>
        <pt x="435" y="685" on="1"/>
        <pt x="435" y="161" on="1"/>
        <pt x="435" y="83" on="0"/>
        <pt x="337" y="-10" on="0"/>
        <pt x="146" y="-10" on="0"/>
        <pt x="49" y="83" on="0"/>
        <pt x="49" y="161" on="1"/>
        <pt x="49" y="685" on="1"/>
        <pt x="169" y="685" on="1"/>
        <pt x="169" y="167" on="1"/>
        <pt x="169" y="99" on="0"/>
        <pt x="315" y="99" on="0"/>
        <pt x="315" y="167" on="1"/>
      </contour>
    </TTGlyph>
    <TTGlyph name="Umacron" xMin="49" yMin="-10" xMax="435" yMax="814">
      <contour>
        <pt x="117" y="814" on="1"/>
        <pt x="367" y="814" on="1"/>
        <pt x="367" y="748" on="1"/>
        <pt x="117" y="748" on="1"/>
      </contour>
      <contour>
        <pt x="315" y="685" on="1"/>
        <pt x="435" y="685" on="1"/>
        <pt x="435" y="161" on="1"/>
        <pt x="435" y="83" on="0"/>
        <pt x="337" y="-10" on="0"/>
        <pt x="146" y="-10" on="0"/>
        <pt x="49" y="83" on="0"/>
        <pt x="49" y="161" on="1"/>
        <pt x="49" y="685" on="1"/>
        <pt x="169" y="685" on="1"/>
        <pt x="169" y="167" on="1"/>
        <pt x="169" y="99" on="0"/>
        <pt x="315" y="99" on="0"/>
        <pt x="315" y="167" on="1"/>
      </contour>
    </TTGlyph>
    <TTGlyph name="Uogonek" xMin="49" yMin="-181" xMax="435" yMax="685">
      <contour>
        <pt x="315" y="685" on="1"/>
        <pt x="435" y="685" on="1"/>
        <pt x="435" y="161" on="1"/>
        <pt x="435" y="46" on="0"/>
        <pt x="337" y="6" on="1"/>
        <pt x="298" y="-33" on="0"/>
        <pt x="298" y="-84" on="1"/>
        <pt x="298" y="-120" on="0"/>
        <pt x="330" y="-120" on="1"/>
        <pt x="341" y="-120" on="1"/>
        <pt x="341" y="-181" on="1"/>
        <pt x="321" y="-181" on="1"/>
        <pt x="278" y="-181" on="0"/>
        <pt x="231" y="-141" on="0"/>
        <pt x="231" y="-106" on="1"/>
        <pt x="231" y="-55" on="0"/>
        <pt x="275" y="-8" on="1"/>
        <pt x="255" y="-10" on="0"/>
        <pt x="242" y="-10" on="1"/>
        <pt x="146" y="-10" on="0"/>
        <pt x="49" y="83" on="0"/>
        <pt x="49" y="161" on="1"/>
        <pt x="49" y="685" on="1"/>
        <pt x="169" y="685" on="1"/>
        <pt x="169" y="167" on="1"/>
        <pt x="169" y="99" on="0"/>
        <pt x="315" y="99" on="0"/>
        <pt x="315" y="167" on="1"/>
      </contour>
    </TTGlyph>
    <TTGlyph name="Uring" xMin="49" yMin="-10" xMax="435" yMax="857">
      <contour>
        <pt x="315" y="685" on="1"/>
        <pt x="435" y="685" on="1"/>
        <pt x="435" y="161" on="1"/>
        <pt x="435" y="83" on="0"/>
        <pt x="337" y="-10" on="0"/>
        <pt x="146" y="-10" on="0"/>
        <pt x="49" y="83" on="0"/>
        <pt x="49" y="161" on="1"/>
        <pt x="49" y="685" on="1"/>
        <pt x="169" y="685" on="1"/>
        <pt x="169" y="167" on="1"/>
        <pt x="169" y="99" on="0"/>
        <pt x="315" y="99" on="0"/>
        <pt x="315" y="167" on="1"/>
      </contour>
      <contour>
        <pt x="274" y="781" on="1"/>
        <pt x="274" y="794" on="0"/>
        <pt x="257" y="811" on="0"/>
        <pt x="229" y="811" on="0"/>
        <pt x="212" y="794" on="0"/>
        <pt x="212" y="781" on="1"/>
        <pt x="212" y="749" on="0"/>
        <pt x="274" y="749" on="0"/>
      </contour>
      <contour>
        <pt x="207" y="703" on="0"/>
        <pt x="165" y="747" on="0"/>
        <pt x="165" y="814" on="0"/>
        <pt x="207" y="857" on="0"/>
        <pt x="280" y="857" on="0"/>
        <pt x="321" y="814" on="0"/>
        <pt x="321" y="747" on="0"/>
        <pt x="280" y="703" on="0"/>
      </contour>
    </TTGlyph>
    <TTGlyph name="V" xMin="8" yMin="0" xMax="452" yMax="685">
      <contour>
        <pt x="327" y="685" on="1"/>
        <pt x="452" y="685" on="1"/>
        <pt x="315" y="0" on="1"/>
        <pt x="147" y="0" on="1"/>
        <pt x="8" y="685" on="1"/>
        <pt x="131" y="685" on="1"/>
        <pt x="189" y="377" on="1"/>
        <pt x="198" y="326" on="0"/>
        <pt x="229" y="118" on="0"/>
        <pt x="232" y="107" on="1"/>
        <pt x="236" y="126" on="0"/>
        <pt x="266" y="338" on="0"/>
        <pt x="272" y="376" on="1"/>
      </contour>
    </TTGlyph>
    <TTGlyph name="W" xMin="11" yMin="0" xMax="588" yMax="685">
      <contour>
        <pt x="482" y="685" on="1"/>
        <pt x="588" y="685" on="1"/>
        <pt x="489" y="0" on="1"/>
        <pt x="373" y="0" on="1"/>
        <pt x="318" y="347" on="0"/>
        <pt x="307" y="442" on="0"/>
        <pt x="301" y="502" on="1"/>
        <pt x="293" y="391" on="0"/>
        <pt x="278" y="297" on="1"/>
        <pt x="230" y="0" on="1"/>
        <pt x="108" y="0" on="1"/>
        <pt x="11" y="685" on="1"/>
        <pt x="118" y="685" on="1"/>
        <pt x="163" y="392" on="1"/>
        <pt x="183" y="205" on="1"/>
        <pt x="199" y="343" on="0"/>
        <pt x="248" y="685" on="1"/>
        <pt x="354" y="685" on="1"/>
        <pt x="395" y="392" on="1"/>
        <pt x="417" y="210" on="1"/>
        <pt x="425" y="312" on="0"/>
        <pt x="437" y="392" on="1"/>
      </contour>
    </TTGlyph>
    <TTGlyph name="X" xMin="8" yMin="0" xMax="431" yMax="685">
      <contour>
        <pt x="301" y="685" on="1"/>
        <pt x="431" y="685" on="1"/>
        <pt x="283" y="341" on="1"/>
        <pt x="431" y="0" on="1"/>
        <pt x="301" y="0" on="1"/>
        <pt x="221" y="214" on="1"/>
        <pt x="139" y="0" on="1"/>
        <pt x="8" y="0" on="1"/>
        <pt x="155" y="341" on="1"/>
        <pt x="8" y="685" on="1"/>
        <pt x="138" y="685" on="1"/>
        <pt x="221" y="469" on="1"/>
      </contour>
    </TTGlyph>
    <TTGlyph name="Y" xMin="2" yMin="0" xMax="453" yMax="685">
      <contour>
        <pt x="288" y="0" on="1"/>
        <pt x="167" y="0" on="1"/>
        <pt x="167" y="220" on="1"/>
        <pt x="2" y="685" on="1"/>
        <pt x="125" y="685" on="1"/>
        <pt x="171" y="551" on="1"/>
        <pt x="208" y="438" on="0"/>
        <pt x="229" y="347" on="1"/>
        <pt x="254" y="448" on="0"/>
        <pt x="287" y="552" on="1"/>
        <pt x="332" y="685" on="1"/>
        <pt x="453" y="685" on="1"/>
        <pt x="288" y="220" on="1"/>
      </contour>
    </TTGlyph>
    <TTGlyph name="Yacute" xMin="2" yMin="0" xMax="453" yMax="838">
      <contour>
        <pt x="234" y="838" on="1"/>
        <pt x="328" y="838" on="1"/>
        <pt x="259" y="726" on="1"/>
        <pt x="192" y="726" on="1"/>
      </contour>
      <contour>
        <pt x="288" y="0" on="1"/>
        <pt x="167" y="0" on="1"/>
        <pt x="167" y="220" on="1"/>
        <pt x="2" y="685" on="1"/>
        <pt x="125" y="685" on="1"/>
        <pt x="171" y="551" on="1"/>
        <pt x="208" y="438" on="0"/>
        <pt x="229" y="347" on="1"/>
        <pt x="254" y="448" on="0"/>
        <pt x="287" y="552" on="1"/>
        <pt x="332" y="685" on="1"/>
        <pt x="453" y="685" on="1"/>
        <pt x="288" y="220" on="1"/>
      </contour>
    </TTGlyph>
    <TTGlyph name="Ydieresis" xMin="2" yMin="0" xMax="453" yMax="828">
      <contour>
        <pt x="288" y="0" on="1"/>
        <pt x="167" y="0" on="1"/>
        <pt x="167" y="220" on="1"/>
        <pt x="2" y="685" on="1"/>
        <pt x="125" y="685" on="1"/>
        <pt x="171" y="551" on="1"/>
        <pt x="208" y="438" on="0"/>
        <pt x="229" y="347" on="1"/>
        <pt x="254" y="448" on="0"/>
        <pt x="287" y="552" on="1"/>
        <pt x="332" y="685" on="1"/>
        <pt x="453" y="685" on="1"/>
        <pt x="288" y="220" on="1"/>
      </contour>
      <contour>
        <pt x="255" y="732" on="0"/>
        <pt x="255" y="828" on="0"/>
        <pt x="356" y="828" on="0"/>
        <pt x="356" y="732" on="0"/>
      </contour>
      <contour>
        <pt x="98" y="732" on="0"/>
        <pt x="98" y="828" on="0"/>
        <pt x="199" y="828" on="0"/>
        <pt x="199" y="732" on="0"/>
      </contour>
    </TTGlyph>
    <TTGlyph name="Z" xMin="23" yMin="0" xMax="384" yMax="685">
      <contour>
        <pt x="28" y="685" on="1"/>
        <pt x="383" y="685" on="1"/>
        <pt x="383" y="587" on="1"/>
        <pt x="149" y="102" on="1"/>
        <pt x="384" y="102" on="1"/>
        <pt x="384" y="0" on="1"/>
        <pt x="23" y="0" on="1"/>
        <pt x="23" y="102" on="1"/>
        <pt x="253" y="583" on="1"/>
        <pt x="28" y="583" on="1"/>
      </contour>
    </TTGlyph>
    <TTGlyph name="Zacute" xMin="23" yMin="0" xMax="384" yMax="837">
      <contour>
        <pt x="28" y="685" on="1"/>
        <pt x="383" y="685" on="1"/>
        <pt x="383" y="587" on="1"/>
        <pt x="149" y="102" on="1"/>
        <pt x="384" y="102" on="1"/>
        <pt x="384" y="0" on="1"/>
        <pt x="23" y="0" on="1"/>
        <pt x="23" y="102" on="1"/>
        <pt x="253" y="583" on="1"/>
        <pt x="28" y="583" on="1"/>
      </contour>
      <contour>
        <pt x="210" y="837" on="1"/>
        <pt x="304" y="837" on="1"/>
        <pt x="235" y="725" on="1"/>
        <pt x="168" y="725" on="1"/>
      </contour>
    </TTGlyph>
    <TTGlyph name="Zcaron" xMin="23" yMin="0" xMax="384" yMax="837">
      <contour>
        <pt x="384" y="102" on="1"/>
        <pt x="384" y="0" on="1"/>
        <pt x="23" y="0" on="1"/>
        <pt x="23" y="102" on="1"/>
        <pt x="253" y="583" on="1"/>
        <pt x="28" y="583" on="1"/>
        <pt x="28" y="685" on="1"/>
        <pt x="383" y="685" on="1"/>
        <pt x="383" y="587" on="1"/>
        <pt x="149" y="102" on="1"/>
      </contour>
      <contour>
        <pt x="158" y="725" on="1"/>
        <pt x="102" y="837" on="1"/>
        <pt x="164" y="837" on="1"/>
        <pt x="203" y="781" on="1"/>
        <pt x="242" y="837" on="1"/>
        <pt x="303" y="837" on="1"/>
        <pt x="247" y="725" on="1"/>
      </contour>
    </TTGlyph>
    <TTGlyph name="Zdotaccent" xMin="23" yMin="0" xMax="384" yMax="837">
      <contour>
        <pt x="155" y="741" on="0"/>
        <pt x="155" y="837" on="0"/>
        <pt x="256" y="837" on="0"/>
        <pt x="256" y="741" on="0"/>
      </contour>
      <contour>
        <pt x="28" y="685" on="1"/>
        <pt x="383" y="685" on="1"/>
        <pt x="383" y="587" on="1"/>
        <pt x="149" y="102" on="1"/>
        <pt x="384" y="102" on="1"/>
        <pt x="384" y="0" on="1"/>
        <pt x="23" y="0" on="1"/>
        <pt x="23" y="102" on="1"/>
        <pt x="253" y="583" on="1"/>
        <pt x="28" y="583" on="1"/>
      </contour>
    </TTGlyph>
    <TTGlyph name="a" xMin="24" yMin="-3" xMax="384" yMax="587">
      <contour>
        <pt x="142" y="168" on="1"/>
        <pt x="142" y="139" on="1"/>
        <pt x="142" y="88" on="0"/>
        <pt x="195" y="88" on="1"/>
        <pt x="236" y="88" on="0"/>
        <pt x="267" y="110" on="1"/>
        <pt x="267" y="256" on="1"/>
        <pt x="196" y="236" on="1"/>
        <pt x="163" y="227" on="0"/>
        <pt x="142" y="199" on="0"/>
      </contour>
      <contour>
        <pt x="53" y="568" on="1"/>
        <pt x="110" y="587" on="0"/>
        <pt x="298" y="587" on="0"/>
        <pt x="384" y="504" on="0"/>
        <pt x="384" y="421" on="1"/>
        <pt x="384" y="0" on="1"/>
        <pt x="270" y="0" on="1"/>
        <pt x="270" y="42" on="1"/>
        <pt x="231" y="-3" on="0"/>
        <pt x="90" y="-3" on="0"/>
        <pt x="24" y="67" on="0"/>
        <pt x="24" y="139" on="1"/>
        <pt x="24" y="173" on="1"/>
        <pt x="24" y="234" on="0"/>
        <pt x="82" y="304" on="0"/>
        <pt x="147" y="322" on="1"/>
        <pt x="268" y="355" on="1"/>
        <pt x="268" y="422" on="1"/>
        <pt x="267" y="453" on="0"/>
        <pt x="233" y="481" on="0"/>
        <pt x="111" y="481" on="0"/>
        <pt x="53" y="460" on="1"/>
      </contour>
    </TTGlyph>
    <TTGlyph name="aacute" xMin="24" yMin="-3" xMax="384" yMax="737">
      <contour>
        <pt x="214" y="737" on="1"/>
        <pt x="308" y="737" on="1"/>
        <pt x="239" y="625" on="1"/>
        <pt x="172" y="625" on="1"/>
      </contour>
      <contour>
        <pt x="142" y="168" on="1"/>
        <pt x="142" y="139" on="1"/>
        <pt x="142" y="88" on="0"/>
        <pt x="195" y="88" on="1"/>
        <pt x="236" y="88" on="0"/>
        <pt x="267" y="110" on="1"/>
        <pt x="267" y="256" on="1"/>
        <pt x="196" y="236" on="1"/>
        <pt x="163" y="227" on="0"/>
        <pt x="142" y="199" on="0"/>
      </contour>
      <contour>
        <pt x="53" y="568" on="1"/>
        <pt x="110" y="587" on="0"/>
        <pt x="298" y="587" on="0"/>
        <pt x="384" y="504" on="0"/>
        <pt x="384" y="421" on="1"/>
        <pt x="384" y="0" on="1"/>
        <pt x="270" y="0" on="1"/>
        <pt x="270" y="42" on="1"/>
        <pt x="231" y="-3" on="0"/>
        <pt x="90" y="-3" on="0"/>
        <pt x="24" y="67" on="0"/>
        <pt x="24" y="139" on="1"/>
        <pt x="24" y="173" on="1"/>
        <pt x="24" y="234" on="0"/>
        <pt x="82" y="304" on="0"/>
        <pt x="147" y="322" on="1"/>
        <pt x="268" y="355" on="1"/>
        <pt x="268" y="422" on="1"/>
        <pt x="267" y="453" on="0"/>
        <pt x="233" y="481" on="0"/>
        <pt x="111" y="481" on="0"/>
        <pt x="53" y="460" on="1"/>
      </contour>
    </TTGlyph>
    <TTGlyph name="abreve" xMin="24" yMin="-3" xMax="384" yMax="737">
      <contour>
        <pt x="261" y="737" on="1"/>
        <pt x="328" y="737" on="1"/>
        <pt x="328" y="687" on="0"/>
        <pt x="263" y="625" on="0"/>
        <pt x="161" y="625" on="0"/>
        <pt x="97" y="687" on="0"/>
        <pt x="96" y="737" on="1"/>
        <pt x="163" y="737" on="1"/>
        <pt x="163" y="713" on="0"/>
        <pt x="189" y="684" on="0"/>
        <pt x="235" y="684" on="0"/>
        <pt x="261" y="713" on="0"/>
      </contour>
      <contour>
        <pt x="142" y="168" on="1"/>
        <pt x="142" y="139" on="1"/>
        <pt x="142" y="88" on="0"/>
        <pt x="195" y="88" on="1"/>
        <pt x="236" y="88" on="0"/>
        <pt x="267" y="110" on="1"/>
        <pt x="267" y="256" on="1"/>
        <pt x="196" y="236" on="1"/>
        <pt x="163" y="227" on="0"/>
        <pt x="142" y="199" on="0"/>
      </contour>
      <contour>
        <pt x="53" y="568" on="1"/>
        <pt x="110" y="587" on="0"/>
        <pt x="298" y="587" on="0"/>
        <pt x="384" y="504" on="0"/>
        <pt x="384" y="421" on="1"/>
        <pt x="384" y="0" on="1"/>
        <pt x="270" y="0" on="1"/>
        <pt x="270" y="42" on="1"/>
        <pt x="231" y="-3" on="0"/>
        <pt x="90" y="-3" on="0"/>
        <pt x="24" y="67" on="0"/>
        <pt x="24" y="139" on="1"/>
        <pt x="24" y="173" on="1"/>
        <pt x="24" y="234" on="0"/>
        <pt x="82" y="304" on="0"/>
        <pt x="147" y="322" on="1"/>
        <pt x="268" y="355" on="1"/>
        <pt x="268" y="422" on="1"/>
        <pt x="267" y="453" on="0"/>
        <pt x="233" y="481" on="0"/>
        <pt x="111" y="481" on="0"/>
        <pt x="53" y="460" on="1"/>
      </contour>
    </TTGlyph>
    <TTGlyph name="acircumflex" xMin="24" yMin="-3" xMax="384" yMax="737">
      <contour>
        <pt x="53" y="568" on="1"/>
        <pt x="110" y="587" on="0"/>
        <pt x="298" y="587" on="0"/>
        <pt x="384" y="504" on="0"/>
        <pt x="384" y="421" on="1"/>
        <pt x="384" y="0" on="1"/>
        <pt x="270" y="0" on="1"/>
        <pt x="270" y="42" on="1"/>
        <pt x="231" y="-3" on="0"/>
        <pt x="90" y="-3" on="0"/>
        <pt x="24" y="67" on="0"/>
        <pt x="24" y="139" on="1"/>
        <pt x="24" y="173" on="1"/>
        <pt x="24" y="234" on="0"/>
        <pt x="82" y="304" on="0"/>
        <pt x="147" y="322" on="1"/>
        <pt x="268" y="355" on="1"/>
        <pt x="268" y="422" on="1"/>
        <pt x="267" y="453" on="0"/>
        <pt x="233" y="481" on="0"/>
        <pt x="111" y="481" on="0"/>
        <pt x="53" y="460" on="1"/>
      </contour>
      <contour>
        <pt x="142" y="168" on="1"/>
        <pt x="142" y="139" on="1"/>
        <pt x="142" y="88" on="0"/>
        <pt x="195" y="88" on="1"/>
        <pt x="236" y="88" on="0"/>
        <pt x="267" y="110" on="1"/>
        <pt x="267" y="256" on="1"/>
        <pt x="196" y="236" on="1"/>
        <pt x="163" y="227" on="0"/>
        <pt x="142" y="199" on="0"/>
      </contour>
      <contour>
        <pt x="215" y="681" on="1"/>
        <pt x="176" y="625" on="1"/>
        <pt x="114" y="625" on="1"/>
        <pt x="170" y="737" on="1"/>
        <pt x="259" y="737" on="1"/>
        <pt x="315" y="625" on="1"/>
        <pt x="254" y="625" on="1"/>
      </contour>
    </TTGlyph>
    <TTGlyph name="acute" xMin="107" yMin="625" xMax="243" yMax="737">
      <contour>
        <pt x="149" y="737" on="1"/>
        <pt x="243" y="737" on="1"/>
        <pt x="174" y="625" on="1"/>
        <pt x="107" y="625" on="1"/>
      </contour>
    </TTGlyph>
    <TTGlyph name="adieresis" xMin="24" yMin="-3" xMax="384" yMax="728">
      <contour>
        <pt x="238" y="632" on="0"/>
        <pt x="238" y="728" on="0"/>
        <pt x="339" y="728" on="0"/>
        <pt x="339" y="632" on="0"/>
      </contour>
      <contour>
        <pt x="81" y="632" on="0"/>
        <pt x="81" y="728" on="0"/>
        <pt x="182" y="728" on="0"/>
        <pt x="182" y="632" on="0"/>
      </contour>
      <contour>
        <pt x="142" y="168" on="1"/>
        <pt x="142" y="139" on="1"/>
        <pt x="142" y="88" on="0"/>
        <pt x="195" y="88" on="1"/>
        <pt x="236" y="88" on="0"/>
        <pt x="267" y="110" on="1"/>
        <pt x="267" y="256" on="1"/>
        <pt x="196" y="236" on="1"/>
        <pt x="163" y="227" on="0"/>
        <pt x="142" y="199" on="0"/>
      </contour>
      <contour>
        <pt x="53" y="568" on="1"/>
        <pt x="110" y="587" on="0"/>
        <pt x="298" y="587" on="0"/>
        <pt x="384" y="504" on="0"/>
        <pt x="384" y="421" on="1"/>
        <pt x="384" y="0" on="1"/>
        <pt x="270" y="0" on="1"/>
        <pt x="270" y="42" on="1"/>
        <pt x="231" y="-3" on="0"/>
        <pt x="90" y="-3" on="0"/>
        <pt x="24" y="67" on="0"/>
        <pt x="24" y="139" on="1"/>
        <pt x="24" y="173" on="1"/>
        <pt x="24" y="234" on="0"/>
        <pt x="82" y="304" on="0"/>
        <pt x="147" y="322" on="1"/>
        <pt x="268" y="355" on="1"/>
        <pt x="268" y="422" on="1"/>
        <pt x="267" y="453" on="0"/>
        <pt x="233" y="481" on="0"/>
        <pt x="111" y="481" on="0"/>
        <pt x="53" y="460" on="1"/>
      </contour>
    </TTGlyph>
    <TTGlyph name="ae" xMin="27" yMin="-6" xMax="622" yMax="592">
      <contour>
        <pt x="509" y="432" on="1"/>
        <pt x="509" y="491" on="0"/>
        <pt x="447" y="491" on="1"/>
        <pt x="415" y="491" on="0"/>
        <pt x="382" y="460" on="0"/>
        <pt x="382" y="432" on="1"/>
        <pt x="382" y="335" on="1"/>
        <pt x="509" y="335" on="1"/>
      </contour>
      <contour>
        <pt x="142" y="168" on="1"/>
        <pt x="142" y="139" on="1"/>
        <pt x="142" y="88" on="0"/>
        <pt x="195" y="88" on="1"/>
        <pt x="237" y="88" on="0"/>
        <pt x="269" y="109" on="1"/>
        <pt x="269" y="257" on="1"/>
        <pt x="196" y="237" on="1"/>
        <pt x="163" y="228" on="0"/>
        <pt x="142" y="199" on="0"/>
      </contour>
      <contour>
        <pt x="322" y="554" on="1"/>
        <pt x="370" y="592" on="0"/>
        <pt x="536" y="592" on="0"/>
        <pt x="622" y="507" on="0"/>
        <pt x="622" y="433" on="1"/>
        <pt x="622" y="241" on="1"/>
        <pt x="382" y="241" on="1"/>
        <pt x="382" y="168" on="1"/>
        <pt x="382" y="131" on="0"/>
        <pt x="428" y="100" on="0"/>
        <pt x="544" y="100" on="0"/>
        <pt x="606" y="119" on="1"/>
        <pt x="606" y="12" on="1"/>
        <pt x="544" y="-6" on="0"/>
        <pt x="373" y="-6" on="0"/>
        <pt x="324" y="32" on="1"/>
        <pt x="272" y="-4" on="0"/>
        <pt x="175" y="-4" on="1"/>
        <pt x="27" y="-4" on="0"/>
        <pt x="27" y="138" on="1"/>
        <pt x="27" y="173" on="1"/>
        <pt x="27" y="234" on="0"/>
        <pt x="84" y="304" on="0"/>
        <pt x="147" y="323" on="1"/>
        <pt x="267" y="359" on="1"/>
        <pt x="267" y="428" on="1"/>
        <pt x="267" y="454" on="0"/>
        <pt x="233" y="481" on="0"/>
        <pt x="107" y="481" on="0"/>
        <pt x="53" y="459" on="1"/>
        <pt x="53" y="567" on="1"/>
        <pt x="119" y="587" on="0"/>
        <pt x="278" y="587" on="0"/>
      </contour>
    </TTGlyph>
    <TTGlyph name="agrave" xMin="24" yMin="-3" xMax="384" yMax="737">
      <contour>
        <pt x="108" y="737" on="1"/>
        <pt x="202" y="737" on="1"/>
        <pt x="244" y="625" on="1"/>
        <pt x="177" y="625" on="1"/>
      </contour>
      <contour>
        <pt x="142" y="168" on="1"/>
        <pt x="142" y="139" on="1"/>
        <pt x="142" y="88" on="0"/>
        <pt x="195" y="88" on="1"/>
        <pt x="236" y="88" on="0"/>
        <pt x="267" y="110" on="1"/>
        <pt x="267" y="256" on="1"/>
        <pt x="196" y="236" on="1"/>
        <pt x="163" y="227" on="0"/>
        <pt x="142" y="199" on="0"/>
      </contour>
      <contour>
        <pt x="53" y="568" on="1"/>
        <pt x="110" y="587" on="0"/>
        <pt x="298" y="587" on="0"/>
        <pt x="384" y="504" on="0"/>
        <pt x="384" y="421" on="1"/>
        <pt x="384" y="0" on="1"/>
        <pt x="270" y="0" on="1"/>
        <pt x="270" y="42" on="1"/>
        <pt x="231" y="-3" on="0"/>
        <pt x="90" y="-3" on="0"/>
        <pt x="24" y="67" on="0"/>
        <pt x="24" y="139" on="1"/>
        <pt x="24" y="173" on="1"/>
        <pt x="24" y="234" on="0"/>
        <pt x="82" y="304" on="0"/>
        <pt x="147" y="322" on="1"/>
        <pt x="268" y="355" on="1"/>
        <pt x="268" y="422" on="1"/>
        <pt x="267" y="453" on="0"/>
        <pt x="233" y="481" on="0"/>
        <pt x="111" y="481" on="0"/>
        <pt x="53" y="460" on="1"/>
      </contour>
    </TTGlyph>
    <TTGlyph name="amacron" xMin="24" yMin="-3" xMax="384" yMax="714">
      <contour>
        <pt x="92" y="714" on="1"/>
        <pt x="342" y="714" on="1"/>
        <pt x="342" y="648" on="1"/>
        <pt x="92" y="648" on="1"/>
      </contour>
      <contour>
        <pt x="142" y="168" on="1"/>
        <pt x="142" y="139" on="1"/>
        <pt x="142" y="88" on="0"/>
        <pt x="195" y="88" on="1"/>
        <pt x="236" y="88" on="0"/>
        <pt x="267" y="110" on="1"/>
        <pt x="267" y="256" on="1"/>
        <pt x="196" y="236" on="1"/>
        <pt x="163" y="227" on="0"/>
        <pt x="142" y="199" on="0"/>
      </contour>
      <contour>
        <pt x="53" y="568" on="1"/>
        <pt x="110" y="587" on="0"/>
        <pt x="298" y="587" on="0"/>
        <pt x="384" y="504" on="0"/>
        <pt x="384" y="421" on="1"/>
        <pt x="384" y="0" on="1"/>
        <pt x="270" y="0" on="1"/>
        <pt x="270" y="42" on="1"/>
        <pt x="231" y="-3" on="0"/>
        <pt x="90" y="-3" on="0"/>
        <pt x="24" y="67" on="0"/>
        <pt x="24" y="139" on="1"/>
        <pt x="24" y="173" on="1"/>
        <pt x="24" y="234" on="0"/>
        <pt x="82" y="304" on="0"/>
        <pt x="147" y="322" on="1"/>
        <pt x="268" y="355" on="1"/>
        <pt x="268" y="422" on="1"/>
        <pt x="267" y="453" on="0"/>
        <pt x="233" y="481" on="0"/>
        <pt x="111" y="481" on="0"/>
        <pt x="53" y="460" on="1"/>
      </contour>
    </TTGlyph>
    <TTGlyph name="ampersand" xMin="53" yMin="-7" xMax="476" yMax="691">
      <contour>
        <pt x="476" y="406" on="1"/>
        <pt x="476" y="303" on="1"/>
        <pt x="429" y="303" on="1"/>
        <pt x="429" y="164" on="1"/>
        <pt x="429" y="85" on="0"/>
        <pt x="338" y="-7" on="0"/>
        <pt x="148" y="-7" on="0"/>
        <pt x="53" y="85" on="0"/>
        <pt x="53" y="164" on="1"/>
        <pt x="53" y="244" on="1"/>
        <pt x="53" y="333" on="0"/>
        <pt x="126" y="358" on="1"/>
        <pt x="55" y="382" on="0"/>
        <pt x="55" y="472" on="1"/>
        <pt x="55" y="530" on="1"/>
        <pt x="55" y="606" on="0"/>
        <pt x="160" y="691" on="0"/>
        <pt x="267" y="691" on="1"/>
        <pt x="345" y="691" on="0"/>
        <pt x="393" y="675" on="1"/>
        <pt x="393" y="562" on="1"/>
        <pt x="347" y="580" on="0"/>
        <pt x="216" y="580" on="0"/>
        <pt x="175" y="549" on="0"/>
        <pt x="175" y="518" on="1"/>
        <pt x="175" y="474" on="1"/>
        <pt x="175" y="439" on="0"/>
        <pt x="204" y="406" on="0"/>
        <pt x="239" y="406" on="1"/>
        <pt x="314" y="406" on="1"/>
        <pt x="314" y="469" on="1"/>
        <pt x="429" y="469" on="1"/>
        <pt x="429" y="406" on="1"/>
      </contour>
      <contour>
        <pt x="314" y="167" on="1"/>
        <pt x="314" y="303" on="1"/>
        <pt x="239" y="303" on="1"/>
        <pt x="173" y="303" on="0"/>
        <pt x="173" y="237" on="1"/>
        <pt x="173" y="167" on="1"/>
        <pt x="173" y="99" on="0"/>
        <pt x="314" y="99" on="0"/>
      </contour>
    </TTGlyph>
    <TTGlyph name="aogonek" xMin="24" yMin="-191" xMax="384" yMax="587">
      <contour>
        <pt x="53" y="568" on="1"/>
        <pt x="110" y="587" on="0"/>
        <pt x="298" y="587" on="0"/>
        <pt x="384" y="504" on="0"/>
        <pt x="384" y="421" on="1"/>
        <pt x="384" y="0" on="1"/>
        <pt x="382" y="0" on="1"/>
        <pt x="339" y="-40" on="0"/>
        <pt x="339" y="-94" on="1"/>
        <pt x="339" y="-130" on="0"/>
        <pt x="371" y="-130" on="1"/>
        <pt x="382" y="-130" on="1"/>
        <pt x="382" y="-191" on="1"/>
        <pt x="362" y="-191" on="1"/>
        <pt x="319" y="-191" on="0"/>
        <pt x="272" y="-151" on="0"/>
        <pt x="272" y="-116" on="1"/>
        <pt x="272" y="-52" on="0"/>
        <pt x="336" y="0" on="1"/>
        <pt x="270" y="0" on="1"/>
        <pt x="270" y="42" on="1"/>
        <pt x="231" y="-3" on="0"/>
        <pt x="90" y="-3" on="0"/>
        <pt x="24" y="67" on="0"/>
        <pt x="24" y="139" on="1"/>
        <pt x="24" y="173" on="1"/>
        <pt x="24" y="234" on="0"/>
        <pt x="82" y="304" on="0"/>
        <pt x="147" y="322" on="1"/>
        <pt x="268" y="355" on="1"/>
        <pt x="268" y="422" on="1"/>
        <pt x="267" y="453" on="0"/>
        <pt x="233" y="481" on="0"/>
        <pt x="111" y="481" on="0"/>
        <pt x="53" y="460" on="1"/>
      </contour>
      <contour>
        <pt x="142" y="168" on="1"/>
        <pt x="142" y="139" on="1"/>
        <pt x="142" y="88" on="0"/>
        <pt x="195" y="88" on="1"/>
        <pt x="236" y="88" on="0"/>
        <pt x="267" y="110" on="1"/>
        <pt x="267" y="256" on="1"/>
        <pt x="196" y="236" on="1"/>
        <pt x="163" y="227" on="0"/>
        <pt x="142" y="199" on="0"/>
      </contour>
    </TTGlyph>
    <TTGlyph name="approxequal" xMin="32" yMin="160" xMax="531" yMax="515">
      <contour>
        <pt x="531" y="467" on="1"/>
        <pt x="531" y="412" on="0"/>
        <pt x="503" y="381" on="1"/>
        <pt x="453" y="325" on="0"/>
        <pt x="341" y="362" on="1"/>
        <pt x="219" y="406" on="1"/>
        <pt x="183" y="423" on="0"/>
        <pt x="134" y="400" on="0"/>
        <pt x="141" y="360" on="1"/>
        <pt x="36" y="360" on="1"/>
        <pt x="32" y="383" on="0"/>
        <pt x="32" y="408" on="1"/>
        <pt x="32" y="463" on="0"/>
        <pt x="60" y="494" on="1"/>
        <pt x="110" y="549" on="0"/>
        <pt x="221" y="513" on="1"/>
        <pt x="343" y="469" on="1"/>
        <pt x="380" y="452" on="0"/>
        <pt x="428" y="474" on="0"/>
        <pt x="421" y="515" on="1"/>
        <pt x="526" y="515" on="1"/>
        <pt x="531" y="494" on="0"/>
      </contour>
      <contour>
        <pt x="531" y="267" on="1"/>
        <pt x="531" y="212" on="0"/>
        <pt x="503" y="181" on="1"/>
        <pt x="453" y="125" on="0"/>
        <pt x="341" y="162" on="1"/>
        <pt x="219" y="206" on="1"/>
        <pt x="183" y="223" on="0"/>
        <pt x="134" y="200" on="0"/>
        <pt x="141" y="160" on="1"/>
        <pt x="36" y="160" on="1"/>
        <pt x="32" y="183" on="0"/>
        <pt x="32" y="208" on="1"/>
        <pt x="32" y="263" on="0"/>
        <pt x="60" y="294" on="1"/>
        <pt x="110" y="349" on="0"/>
        <pt x="221" y="313" on="1"/>
        <pt x="343" y="269" on="1"/>
        <pt x="380" y="252" on="0"/>
        <pt x="428" y="274" on="0"/>
        <pt x="421" y="315" on="1"/>
        <pt x="526" y="315" on="1"/>
        <pt x="531" y="294" on="0"/>
      </contour>
    </TTGlyph>
    <TTGlyph name="aring" xMin="24" yMin="-3" xMax="384" yMax="757">
      <contour>
        <pt x="240" y="681" on="1"/>
        <pt x="240" y="694" on="0"/>
        <pt x="223" y="711" on="0"/>
        <pt x="195" y="711" on="0"/>
        <pt x="178" y="694" on="0"/>
        <pt x="178" y="681" on="1"/>
        <pt x="178" y="649" on="0"/>
        <pt x="240" y="649" on="0"/>
      </contour>
      <contour>
        <pt x="173" y="603" on="0"/>
        <pt x="131" y="647" on="0"/>
        <pt x="131" y="714" on="0"/>
        <pt x="173" y="757" on="0"/>
        <pt x="246" y="757" on="0"/>
        <pt x="287" y="714" on="0"/>
        <pt x="287" y="647" on="0"/>
        <pt x="246" y="603" on="0"/>
      </contour>
      <contour>
        <pt x="142" y="168" on="1"/>
        <pt x="142" y="139" on="1"/>
        <pt x="142" y="88" on="0"/>
        <pt x="195" y="88" on="1"/>
        <pt x="236" y="88" on="0"/>
        <pt x="267" y="110" on="1"/>
        <pt x="267" y="256" on="1"/>
        <pt x="196" y="236" on="1"/>
        <pt x="163" y="227" on="0"/>
        <pt x="142" y="199" on="0"/>
      </contour>
      <contour>
        <pt x="53" y="568" on="1"/>
        <pt x="110" y="587" on="0"/>
        <pt x="298" y="587" on="0"/>
        <pt x="384" y="504" on="0"/>
        <pt x="384" y="421" on="1"/>
        <pt x="384" y="0" on="1"/>
        <pt x="270" y="0" on="1"/>
        <pt x="270" y="42" on="1"/>
        <pt x="231" y="-3" on="0"/>
        <pt x="90" y="-3" on="0"/>
        <pt x="24" y="67" on="0"/>
        <pt x="24" y="139" on="1"/>
        <pt x="24" y="173" on="1"/>
        <pt x="24" y="234" on="0"/>
        <pt x="82" y="304" on="0"/>
        <pt x="147" y="322" on="1"/>
        <pt x="268" y="355" on="1"/>
        <pt x="268" y="422" on="1"/>
        <pt x="267" y="453" on="0"/>
        <pt x="233" y="481" on="0"/>
        <pt x="111" y="481" on="0"/>
        <pt x="53" y="460" on="1"/>
      </contour>
    </TTGlyph>
    <TTGlyph name="asciicircum" xMin="1" yMin="392" xMax="390" yMax="709">
      <contour>
        <pt x="390" y="392" on="1"/>
        <pt x="272" y="392" on="1"/>
        <pt x="196" y="632" on="1"/>
        <pt x="120" y="392" on="1"/>
        <pt x="1" y="392" on="1"/>
        <pt x="126" y="709" on="1"/>
        <pt x="266" y="709" on="1"/>
      </contour>
    </TTGlyph>
    <TTGlyph name="asciitilde" xMin="24" yMin="269" xMax="524" yMax="424">
      <contour>
        <pt x="524" y="376" on="1"/>
        <pt x="524" y="321" on="0"/>
        <pt x="496" y="290" on="1"/>
        <pt x="446" y="234" on="0"/>
        <pt x="334" y="271" on="1"/>
        <pt x="212" y="315" on="1"/>
        <pt x="176" y="332" on="0"/>
        <pt x="127" y="309" on="0"/>
        <pt x="134" y="269" on="1"/>
        <pt x="29" y="269" on="1"/>
        <pt x="24" y="292" on="0"/>
        <pt x="24" y="317" on="1"/>
        <pt x="24" y="372" on="0"/>
        <pt x="52" y="403" on="1"/>
        <pt x="103" y="458" on="0"/>
        <pt x="214" y="422" on="1"/>
        <pt x="336" y="378" on="1"/>
        <pt x="373" y="361" on="0"/>
        <pt x="421" y="383" on="0"/>
        <pt x="414" y="424" on="1"/>
        <pt x="519" y="424" on="1"/>
        <pt x="524" y="403" on="0"/>
      </contour>
    </TTGlyph>
    <TTGlyph name="asterisk" xMin="39" yMin="386" xMax="494" yMax="818">
      <contour>
        <pt x="211" y="724" on="1"/>
        <pt x="211" y="818" on="1"/>
        <pt x="322" y="818" on="1"/>
        <pt x="322" y="724" on="1"/>
        <pt x="322" y="689" on="0"/>
        <pt x="314" y="662" on="1"/>
        <pt x="340" y="678" on="0"/>
        <pt x="371" y="688" on="1"/>
        <pt x="460" y="718" on="1"/>
        <pt x="494" y="613" on="1"/>
        <pt x="405" y="584" on="1"/>
        <pt x="374" y="574" on="0"/>
        <pt x="343" y="572" on="1"/>
        <pt x="364" y="556" on="0"/>
        <pt x="386" y="526" on="1"/>
        <pt x="441" y="451" on="1"/>
        <pt x="352" y="386" on="1"/>
        <pt x="296" y="461" on="1"/>
        <pt x="275" y="491" on="0"/>
        <pt x="266" y="515" on="1"/>
        <pt x="255" y="487" on="0"/>
        <pt x="236" y="461" on="1"/>
        <pt x="181" y="386" on="1"/>
        <pt x="92" y="451" on="1"/>
        <pt x="147" y="526" on="1"/>
        <pt x="169" y="556" on="0"/>
        <pt x="190" y="572" on="1"/>
        <pt x="158" y="574" on="0"/>
        <pt x="128" y="584" on="1"/>
        <pt x="39" y="613" on="1"/>
        <pt x="73" y="718" on="1"/>
        <pt x="162" y="689" on="1"/>
        <pt x="194" y="678" on="0"/>
        <pt x="218" y="663" on="1"/>
        <pt x="211" y="691" on="0"/>
      </contour>
    </TTGlyph>
    <TTGlyph name="at" xMin="64" yMin="-129" xMax="839" yMax="691">
      <contour>
        <pt x="542" y="-129" on="1"/>
        <pt x="452" y="-129" on="1"/>
        <pt x="229" y="-129" on="0"/>
        <pt x="142" y="-14" on="1"/>
        <pt x="100" y="42" on="0"/>
        <pt x="64" y="184" on="0"/>
        <pt x="64" y="377" on="0"/>
        <pt x="101" y="520" on="0"/>
        <pt x="144" y="576" on="1"/>
        <pt x="231" y="691" on="0"/>
        <pt x="453" y="691" on="1"/>
        <pt x="678" y="691" on="0"/>
        <pt x="762" y="580" on="1"/>
        <pt x="804" y="524" on="0"/>
        <pt x="839" y="383" on="0"/>
        <pt x="839" y="286" on="1"/>
        <pt x="839" y="140" on="0"/>
        <pt x="742" y="15" on="0"/>
        <pt x="556" y="15" on="0"/>
        <pt x="519" y="72" on="1"/>
        <pt x="484" y="50" on="0"/>
        <pt x="419" y="50" on="1"/>
        <pt x="305" y="50" on="0"/>
        <pt x="305" y="164" on="1"/>
        <pt x="305" y="187" on="1"/>
        <pt x="305" y="235" on="0"/>
        <pt x="350" y="291" on="0"/>
        <pt x="398" y="308" on="1"/>
        <pt x="496" y="342" on="1"/>
        <pt x="496" y="400" on="1"/>
        <pt x="496" y="423" on="0"/>
        <pt x="475" y="445" on="0"/>
        <pt x="394" y="445" on="0"/>
        <pt x="324" y="426" on="1"/>
        <pt x="324" y="508" on="1"/>
        <pt x="391" y="524" on="0"/>
        <pt x="445" y="524" on="1"/>
        <pt x="589" y="524" on="0"/>
        <pt x="589" y="404" on="1"/>
        <pt x="589" y="175" on="1"/>
        <pt x="589" y="137" on="0"/>
        <pt x="620" y="104" on="0"/>
        <pt x="700" y="104" on="0"/>
        <pt x="738" y="182" on="0"/>
        <pt x="738" y="349" on="0"/>
        <pt x="728" y="435" on="0"/>
        <pt x="694" y="519" on="0"/>
        <pt x="664" y="544" on="1"/>
        <pt x="596" y="598" on="0"/>
        <pt x="453" y="598" on="1"/>
        <pt x="310" y="598" on="0"/>
        <pt x="242" y="542" on="1"/>
        <pt x="212" y="516" on="0"/>
        <pt x="177" y="430" on="0"/>
        <pt x="166" y="343" on="0"/>
        <pt x="166" y="202" on="0"/>
        <pt x="186" y="99" on="0"/>
        <pt x="215" y="54" on="1"/>
        <pt x="271" y="-35" on="0"/>
        <pt x="453" y="-35" on="1"/>
        <pt x="542" y="-35" on="1"/>
      </contour>
      <contour>
        <pt x="398" y="144" on="0"/>
        <pt x="417" y="128" on="0"/>
        <pt x="468" y="128" on="0"/>
        <pt x="496" y="144" on="1"/>
        <pt x="496" y="260" on="1"/>
        <pt x="440" y="242" on="1"/>
        <pt x="416" y="234" on="0"/>
        <pt x="398" y="213" on="0"/>
        <pt x="398" y="189" on="1"/>
        <pt x="398" y="164" on="1"/>
      </contour>
    </TTGlyph>
    <TTGlyph name="atilde" xMin="24" yMin="-3" xMax="384" yMax="732">
      <contour>
        <pt x="281" y="732" on="1"/>
        <pt x="349" y="732" on="1"/>
        <pt x="349" y="723" on="1"/>
        <pt x="349" y="680" on="0"/>
        <pt x="308" y="630" on="0"/>
        <pt x="243" y="630" on="0"/>
        <pt x="175" y="670" on="0"/>
        <pt x="164" y="670" on="1"/>
        <pt x="142" y="670" on="0"/>
        <pt x="142" y="635" on="1"/>
        <pt x="142" y="629" on="1"/>
        <pt x="74" y="629" on="1"/>
        <pt x="74" y="635" on="1"/>
        <pt x="74" y="679" on="0"/>
        <pt x="114" y="730" on="0"/>
        <pt x="183" y="730" on="0"/>
        <pt x="250" y="691" on="0"/>
        <pt x="260" y="691" on="1"/>
        <pt x="281" y="691" on="0"/>
        <pt x="281" y="725" on="1"/>
      </contour>
      <contour>
        <pt x="142" y="168" on="1"/>
        <pt x="142" y="139" on="1"/>
        <pt x="142" y="88" on="0"/>
        <pt x="195" y="88" on="1"/>
        <pt x="236" y="88" on="0"/>
        <pt x="267" y="110" on="1"/>
        <pt x="267" y="256" on="1"/>
        <pt x="196" y="236" on="1"/>
        <pt x="163" y="227" on="0"/>
        <pt x="142" y="199" on="0"/>
      </contour>
      <contour>
        <pt x="53" y="568" on="1"/>
        <pt x="110" y="587" on="0"/>
        <pt x="298" y="587" on="0"/>
        <pt x="384" y="504" on="0"/>
        <pt x="384" y="421" on="1"/>
        <pt x="384" y="0" on="1"/>
        <pt x="270" y="0" on="1"/>
        <pt x="270" y="42" on="1"/>
        <pt x="231" y="-3" on="0"/>
        <pt x="90" y="-3" on="0"/>
        <pt x="24" y="67" on="0"/>
        <pt x="24" y="139" on="1"/>
        <pt x="24" y="173" on="1"/>
        <pt x="24" y="234" on="0"/>
        <pt x="82" y="304" on="0"/>
        <pt x="147" y="322" on="1"/>
        <pt x="268" y="355" on="1"/>
        <pt x="268" y="422" on="1"/>
        <pt x="267" y="453" on="0"/>
        <pt x="233" y="481" on="0"/>
        <pt x="111" y="481" on="0"/>
        <pt x="53" y="460" on="1"/>
      </contour>
    </TTGlyph>
    <TTGlyph name="b" xMin="54" yMin="0" xMax="413" yMax="737">
      <contour>
        <pt x="291" y="431" on="1"/>
        <pt x="291" y="474" on="0"/>
        <pt x="245" y="474" on="1"/>
        <pt x="209" y="474" on="0"/>
        <pt x="175" y="457" on="1"/>
        <pt x="175" y="111" on="1"/>
        <pt x="231" y="111" on="1"/>
        <pt x="291" y="111" on="0"/>
        <pt x="291" y="164" on="1"/>
      </contour>
      <contour>
        <pt x="54" y="737" on="1"/>
        <pt x="174" y="737" on="1"/>
        <pt x="174" y="566" on="1"/>
        <pt x="226" y="585" on="0"/>
        <pt x="343" y="585" on="0"/>
        <pt x="413" y="520" on="0"/>
        <pt x="413" y="457" on="1"/>
        <pt x="413" y="147" on="1"/>
        <pt x="413" y="74" on="0"/>
        <pt x="331" y="0" on="0"/>
        <pt x="262" y="0" on="1"/>
        <pt x="54" y="0" on="1"/>
      </contour>
    </TTGlyph>
    <TTGlyph name="backslash" xMin="37" yMin="-164" xMax="418" yMax="838">
      <contour>
        <pt x="37" y="838" on="1"/>
        <pt x="147" y="838" on="1"/>
        <pt x="418" y="-164" on="1"/>
        <pt x="306" y="-164" on="1"/>
      </contour>
    </TTGlyph>
    <TTGlyph name="bar" xMin="67" yMin="-175" xMax="150" yMax="851">
      <contour>
        <pt x="67" y="851" on="1"/>
        <pt x="150" y="851" on="1"/>
        <pt x="150" y="-175" on="1"/>
        <pt x="67" y="-175" on="1"/>
      </contour>
    </TTGlyph>
    <TTGlyph name="braceleft" xMin="56" yMin="-162" xMax="325" yMax="826">
      <contour>
        <pt x="236" y="673" on="1"/>
        <pt x="236" y="479" on="1"/>
        <pt x="236" y="414" on="0"/>
        <pt x="197" y="342" on="0"/>
        <pt x="146" y="333" on="1"/>
        <pt x="197" y="324" on="0"/>
        <pt x="236" y="257" on="0"/>
        <pt x="236" y="192" on="1"/>
        <pt x="236" y="-10" on="1"/>
        <pt x="236" y="-59" on="0"/>
        <pt x="291" y="-59" on="1"/>
        <pt x="325" y="-59" on="1"/>
        <pt x="325" y="-162" on="1"/>
        <pt x="283" y="-162" on="1"/>
        <pt x="211" y="-162" on="0"/>
        <pt x="132" y="-77" on="0"/>
        <pt x="132" y="-5" on="1"/>
        <pt x="132" y="217" on="1"/>
        <pt x="132" y="248" on="0"/>
        <pt x="95" y="281" on="0"/>
        <pt x="60" y="281" on="1"/>
        <pt x="56" y="281" on="1"/>
        <pt x="56" y="384" on="1"/>
        <pt x="60" y="384" on="1"/>
        <pt x="132" y="384" on="0"/>
        <pt x="132" y="447" on="1"/>
        <pt x="132" y="668" on="1"/>
        <pt x="132" y="740" on="0"/>
        <pt x="212" y="826" on="0"/>
        <pt x="283" y="826" on="1"/>
        <pt x="325" y="826" on="1"/>
        <pt x="325" y="723" on="1"/>
        <pt x="291" y="723" on="1"/>
        <pt x="236" y="723" on="0"/>
      </contour>
    </TTGlyph>
    <TTGlyph name="braceright" xMin="60" yMin="-162" xMax="329" yMax="826">
      <contour>
        <pt x="325" y="384" on="1"/>
        <pt x="329" y="384" on="1"/>
        <pt x="329" y="281" on="1"/>
        <pt x="325" y="281" on="1"/>
        <pt x="290" y="281" on="0"/>
        <pt x="253" y="248" on="0"/>
        <pt x="253" y="217" on="1"/>
        <pt x="253" y="-5" on="1"/>
        <pt x="253" y="-77" on="0"/>
        <pt x="173" y="-162" on="0"/>
        <pt x="101" y="-162" on="1"/>
        <pt x="60" y="-162" on="1"/>
        <pt x="60" y="-59" on="1"/>
        <pt x="93" y="-59" on="1"/>
        <pt x="149" y="-59" on="0"/>
        <pt x="149" y="-10" on="1"/>
        <pt x="149" y="192" on="1"/>
        <pt x="149" y="257" on="0"/>
        <pt x="187" y="324" on="0"/>
        <pt x="239" y="333" on="1"/>
        <pt x="187" y="342" on="0"/>
        <pt x="149" y="413" on="0"/>
        <pt x="149" y="479" on="1"/>
        <pt x="149" y="673" on="1"/>
        <pt x="149" y="723" on="0"/>
        <pt x="93" y="723" on="1"/>
        <pt x="60" y="723" on="1"/>
        <pt x="60" y="826" on="1"/>
        <pt x="101" y="826" on="1"/>
        <pt x="173" y="826" on="0"/>
        <pt x="253" y="740" on="0"/>
        <pt x="253" y="668" on="1"/>
        <pt x="253" y="447" on="1"/>
        <pt x="253" y="384" on="0"/>
      </contour>
    </TTGlyph>
    <TTGlyph name="bracketleft" xMin="86" yMin="-164" xMax="305" yMax="838">
      <contour>
        <pt x="184" y="-70" on="1"/>
        <pt x="305" y="-70" on="1"/>
        <pt x="305" y="-164" on="1"/>
        <pt x="86" y="-164" on="1"/>
        <pt x="86" y="838" on="1"/>
        <pt x="305" y="838" on="1"/>
        <pt x="305" y="744" on="1"/>
        <pt x="184" y="744" on="1"/>
      </contour>
    </TTGlyph>
    <TTGlyph name="bracketright" xMin="39" yMin="-164" xMax="258" yMax="838">
      <contour>
        <pt x="39" y="838" on="1"/>
        <pt x="258" y="838" on="1"/>
        <pt x="258" y="-164" on="1"/>
        <pt x="39" y="-164" on="1"/>
        <pt x="39" y="-70" on="1"/>
        <pt x="160" y="-70" on="1"/>
        <pt x="160" y="744" on="1"/>
        <pt x="39" y="744" on="1"/>
      </contour>
    </TTGlyph>
    <TTGlyph name="breve" xMin="59" yMin="625" xMax="291" yMax="737">
      <contour>
        <pt x="224" y="737" on="1"/>
        <pt x="291" y="737" on="1"/>
        <pt x="291" y="687" on="0"/>
        <pt x="226" y="625" on="0"/>
        <pt x="124" y="625" on="0"/>
        <pt x="60" y="687" on="0"/>
        <pt x="59" y="737" on="1"/>
        <pt x="126" y="737" on="1"/>
        <pt x="126" y="713" on="0"/>
        <pt x="152" y="684" on="0"/>
        <pt x="198" y="684" on="0"/>
        <pt x="224" y="713" on="0"/>
      </contour>
    </TTGlyph>
    <TTGlyph name="brokenbar" xMin="67" yMin="-175" xMax="150" yMax="851">
      <contour>
        <pt x="67" y="211" on="1"/>
        <pt x="150" y="211" on="1"/>
        <pt x="150" y="-175" on="1"/>
        <pt x="67" y="-175" on="1"/>
      </contour>
      <contour>
        <pt x="67" y="851" on="1"/>
        <pt x="150" y="851" on="1"/>
        <pt x="150" y="466" on="1"/>
        <pt x="67" y="466" on="1"/>
      </contour>
    </TTGlyph>
    <TTGlyph name="bullet" xMin="38" yMin="244" xMax="217" yMax="423">
      <contour>
        <pt x="38" y="244" on="0"/>
        <pt x="38" y="423" on="0"/>
        <pt x="217" y="423" on="0"/>
        <pt x="217" y="244" on="0"/>
      </contour>
    </TTGlyph>
    <TTGlyph name="c" xMin="44" yMin="-5" xMax="348" yMax="587">
      <contour>
        <pt x="44" y="425" on="1"/>
        <pt x="44" y="587" on="0"/>
        <pt x="230" y="587" on="1"/>
        <pt x="294" y="587" on="0"/>
        <pt x="347" y="573" on="1"/>
        <pt x="347" y="461" on="1"/>
        <pt x="297" y="477" on="0"/>
        <pt x="203" y="477" on="0"/>
        <pt x="165" y="449" on="0"/>
        <pt x="165" y="416" on="1"/>
        <pt x="165" y="166" on="1"/>
        <pt x="165" y="133" on="0"/>
        <pt x="202" y="105" on="0"/>
        <pt x="298" y="105" on="0"/>
        <pt x="348" y="121" on="1"/>
        <pt x="348" y="10" on="1"/>
        <pt x="296" y="-5" on="0"/>
        <pt x="230" y="-5" on="1"/>
        <pt x="44" y="-5" on="0"/>
        <pt x="44" y="157" on="1"/>
      </contour>
    </TTGlyph>
    <TTGlyph name="cacute" xMin="44" yMin="-5" xMax="348" yMax="737">
      <contour>
        <pt x="44" y="425" on="1"/>
        <pt x="44" y="587" on="0"/>
        <pt x="230" y="587" on="1"/>
        <pt x="294" y="587" on="0"/>
        <pt x="347" y="573" on="1"/>
        <pt x="347" y="461" on="1"/>
        <pt x="297" y="477" on="0"/>
        <pt x="203" y="477" on="0"/>
        <pt x="165" y="449" on="0"/>
        <pt x="165" y="416" on="1"/>
        <pt x="165" y="166" on="1"/>
        <pt x="165" y="133" on="0"/>
        <pt x="202" y="105" on="0"/>
        <pt x="298" y="105" on="0"/>
        <pt x="348" y="121" on="1"/>
        <pt x="348" y="10" on="1"/>
        <pt x="296" y="-5" on="0"/>
        <pt x="230" y="-5" on="1"/>
        <pt x="44" y="-5" on="0"/>
        <pt x="44" y="157" on="1"/>
      </contour>
      <contour>
        <pt x="235" y="737" on="1"/>
        <pt x="329" y="737" on="1"/>
        <pt x="260" y="625" on="1"/>
        <pt x="193" y="625" on="1"/>
      </contour>
    </TTGlyph>
    <TTGlyph name="caron" xMin="74" yMin="625" xMax="275" yMax="737">
      <contour>
        <pt x="214" y="737" on="1"/>
        <pt x="275" y="737" on="1"/>
        <pt x="219" y="625" on="1"/>
        <pt x="130" y="625" on="1"/>
        <pt x="74" y="737" on="1"/>
        <pt x="136" y="737" on="1"/>
        <pt x="175" y="681" on="1"/>
      </contour>
    </TTGlyph>
    <TTGlyph name="ccaron" xMin="44" yMin="-5" xMax="348" yMax="737">
      <contour>
        <pt x="165" y="416" on="1"/>
        <pt x="165" y="166" on="1"/>
        <pt x="165" y="133" on="0"/>
        <pt x="202" y="105" on="0"/>
        <pt x="298" y="105" on="0"/>
        <pt x="348" y="121" on="1"/>
        <pt x="348" y="10" on="1"/>
        <pt x="296" y="-5" on="0"/>
        <pt x="230" y="-5" on="1"/>
        <pt x="44" y="-5" on="0"/>
        <pt x="44" y="157" on="1"/>
        <pt x="44" y="425" on="1"/>
        <pt x="44" y="587" on="0"/>
        <pt x="230" y="587" on="1"/>
        <pt x="294" y="587" on="0"/>
        <pt x="347" y="573" on="1"/>
        <pt x="347" y="461" on="1"/>
        <pt x="297" y="477" on="0"/>
        <pt x="203" y="477" on="0"/>
        <pt x="165" y="449" on="0"/>
      </contour>
      <contour>
        <pt x="181" y="625" on="1"/>
        <pt x="125" y="737" on="1"/>
        <pt x="187" y="737" on="1"/>
        <pt x="226" y="681" on="1"/>
        <pt x="265" y="737" on="1"/>
        <pt x="326" y="737" on="1"/>
        <pt x="270" y="625" on="1"/>
      </contour>
    </TTGlyph>
    <TTGlyph name="ccedilla" xMin="44" yMin="-187" xMax="348" yMax="587">
      <contour>
        <pt x="251" y="-41" on="0"/>
        <pt x="289" y="-75" on="0"/>
        <pt x="289" y="-144" on="0"/>
        <pt x="237" y="-187" on="0"/>
        <pt x="166" y="-187" on="0"/>
        <pt x="142" y="-181" on="1"/>
        <pt x="142" y="-125" on="1"/>
        <pt x="154" y="-131" on="0"/>
        <pt x="179" y="-131" on="1"/>
        <pt x="218" y="-131" on="0"/>
        <pt x="218" y="-75" on="0"/>
        <pt x="178" y="-74" on="1"/>
        <pt x="167" y="-74" on="1"/>
        <pt x="182" y="-2" on="1"/>
        <pt x="44" y="17" on="0"/>
        <pt x="44" y="157" on="1"/>
        <pt x="44" y="425" on="1"/>
        <pt x="44" y="587" on="0"/>
        <pt x="230" y="587" on="1"/>
        <pt x="294" y="587" on="0"/>
        <pt x="347" y="573" on="1"/>
        <pt x="347" y="461" on="1"/>
        <pt x="297" y="477" on="0"/>
        <pt x="203" y="477" on="0"/>
        <pt x="165" y="449" on="0"/>
        <pt x="165" y="416" on="1"/>
        <pt x="165" y="166" on="1"/>
        <pt x="165" y="133" on="0"/>
        <pt x="202" y="105" on="0"/>
        <pt x="298" y="105" on="0"/>
        <pt x="348" y="121" on="1"/>
        <pt x="348" y="10" on="1"/>
        <pt x="298" y="-5" on="0"/>
        <pt x="236" y="-5" on="1"/>
        <pt x="228" y="-39" on="1"/>
      </contour>
    </TTGlyph>
    <TTGlyph name="cedilla" xMin="101" yMin="-187" xMax="248" yMax="6">
      <contour>
        <pt x="210" y="-41" on="0"/>
        <pt x="248" y="-75" on="0"/>
        <pt x="248" y="-144" on="0"/>
        <pt x="196" y="-187" on="0"/>
        <pt x="125" y="-187" on="0"/>
        <pt x="101" y="-181" on="1"/>
        <pt x="101" y="-125" on="1"/>
        <pt x="113" y="-131" on="0"/>
        <pt x="138" y="-131" on="1"/>
        <pt x="177" y="-131" on="0"/>
        <pt x="177" y="-75" on="0"/>
        <pt x="137" y="-74" on="1"/>
        <pt x="126" y="-74" on="1"/>
        <pt x="143" y="6" on="1"/>
        <pt x="197" y="6" on="1"/>
        <pt x="187" y="-39" on="1"/>
      </contour>
    </TTGlyph>
    <TTGlyph name="cent" xMin="48" yMin="-71" xMax="352" yMax="654">
      <contour>
        <pt x="282" y="-71" on="1"/>
        <pt x="171" y="-71" on="1"/>
        <pt x="171" y="1" on="1"/>
        <pt x="48" y="25" on="0"/>
        <pt x="48" y="157" on="1"/>
        <pt x="48" y="425" on="1"/>
        <pt x="48" y="558" on="0"/>
        <pt x="175" y="582" on="1"/>
        <pt x="175" y="654" on="1"/>
        <pt x="286" y="654" on="1"/>
        <pt x="286" y="585" on="1"/>
        <pt x="321" y="581" on="0"/>
        <pt x="351" y="573" on="1"/>
        <pt x="351" y="461" on="1"/>
        <pt x="301" y="477" on="0"/>
        <pt x="207" y="477" on="0"/>
        <pt x="169" y="449" on="0"/>
        <pt x="169" y="416" on="1"/>
        <pt x="169" y="166" on="1"/>
        <pt x="169" y="133" on="0"/>
        <pt x="206" y="105" on="0"/>
        <pt x="302" y="105" on="0"/>
        <pt x="352" y="121" on="1"/>
        <pt x="352" y="10" on="1"/>
        <pt x="314" y="-1" on="0"/>
        <pt x="282" y="-3" on="1"/>
      </contour>
    </TTGlyph>
    <TTGlyph name="circumflex" xMin="74" yMin="625" xMax="275" yMax="737">
      <contour>
        <pt x="275" y="625" on="1"/>
        <pt x="214" y="625" on="1"/>
        <pt x="175" y="681" on="1"/>
        <pt x="136" y="625" on="1"/>
        <pt x="74" y="625" on="1"/>
        <pt x="130" y="737" on="1"/>
        <pt x="219" y="737" on="1"/>
      </contour>
    </TTGlyph>
    <TTGlyph name="colon" xMin="36" yMin="-9" xMax="172" yMax="474">
      <contour>
        <pt x="172" y="-9" on="0"/>
        <pt x="36" y="-9" on="0"/>
        <pt x="36" y="124" on="0"/>
        <pt x="172" y="124" on="0"/>
      </contour>
      <contour>
        <pt x="36" y="342" on="0"/>
        <pt x="36" y="474" on="0"/>
        <pt x="172" y="474" on="0"/>
        <pt x="172" y="342" on="0"/>
      </contour>
    </TTGlyph>
    <TTGlyph name="comma" xMin="12" yMin="-130" xMax="168" yMax="122">
      <contour>
        <pt x="116" y="122" on="1"/>
        <pt x="168" y="122" on="0"/>
        <pt x="168" y="75" on="1"/>
        <pt x="168" y="38" on="0"/>
        <pt x="107" y="-86" on="0"/>
        <pt x="77" y="-130" on="1"/>
        <pt x="12" y="-130" on="1"/>
        <pt x="56" y="122" on="1"/>
      </contour>
    </TTGlyph>
    <TTGlyph name="commaaccent" xMin="127" yMin="-203" xMax="223" yMax="-61">
      <contour>
        <pt x="191" y="-61" on="1"/>
        <pt x="223" y="-61" on="0"/>
        <pt x="223" y="-91" on="1"/>
        <pt x="223" y="-112" on="0"/>
        <pt x="186" y="-181" on="0"/>
        <pt x="169" y="-203" on="1"/>
        <pt x="127" y="-203" on="1"/>
        <pt x="152" y="-61" on="1"/>
      </contour>
    </TTGlyph>
    <TTGlyph name="copyright" xMin="40" yMin="0" xMax="660" yMax="663">
      <contour>
        <pt x="564" y="218" on="0"/>
        <pt x="571" y="283" on="0"/>
        <pt x="571" y="382" on="0"/>
        <pt x="565" y="445" on="0"/>
        <pt x="540" y="515" on="0"/>
        <pt x="517" y="534" on="1"/>
        <pt x="464" y="578" on="0"/>
        <pt x="350" y="578" on="1"/>
        <pt x="237" y="578" on="0"/>
        <pt x="184" y="534" on="1"/>
        <pt x="160" y="514" on="0"/>
        <pt x="135" y="445" on="0"/>
        <pt x="129" y="381" on="0"/>
        <pt x="129" y="281" on="0"/>
        <pt x="136" y="217" on="0"/>
        <pt x="161" y="148" on="0"/>
        <pt x="184" y="129" on="1"/>
        <pt x="239" y="85" on="0"/>
        <pt x="350" y="85" on="1"/>
        <pt x="462" y="85" on="0"/>
        <pt x="514" y="130" on="1"/>
        <pt x="538" y="150" on="0"/>
      </contour>
      <contour>
        <pt x="226" y="391" on="1"/>
        <pt x="226" y="511" on="0"/>
        <pt x="360" y="511" on="1"/>
        <pt x="374" y="511" on="0"/>
        <pt x="437" y="502" on="1"/>
        <pt x="437" y="425" on="1"/>
        <pt x="395" y="434" on="0"/>
        <pt x="330" y="434" on="0"/>
        <pt x="312" y="412" on="0"/>
        <pt x="312" y="389" on="1"/>
        <pt x="312" y="275" on="1"/>
        <pt x="312" y="260" on="0"/>
        <pt x="314" y="252" on="1"/>
        <pt x="321" y="231" on="0"/>
        <pt x="400" y="231" on="0"/>
        <pt x="437" y="238" on="1"/>
        <pt x="437" y="162" on="1"/>
        <pt x="374" y="153" on="0"/>
        <pt x="360" y="153" on="1"/>
        <pt x="226" y="153" on="0"/>
        <pt x="226" y="273" on="1"/>
      </contour>
      <contour>
        <pt x="40" y="254" on="0"/>
        <pt x="40" y="408" on="0"/>
        <pt x="67" y="521" on="0"/>
        <pt x="100" y="568" on="1"/>
        <pt x="168" y="663" on="0"/>
        <pt x="350" y="663" on="1"/>
        <pt x="563" y="663" on="0"/>
        <pt x="624" y="532" on="1"/>
        <pt x="660" y="456" on="0"/>
        <pt x="660" y="331" on="1"/>
        <pt x="660" y="255" on="0"/>
        <pt x="632" y="142" on="0"/>
        <pt x="565" y="49" on="0"/>
        <pt x="441" y="0" on="0"/>
        <pt x="259" y="0" on="0"/>
        <pt x="134" y="48" on="0"/>
        <pt x="67" y="141" on="0"/>
      </contour>
    </TTGlyph>
    <TTGlyph name="currency" xMin="17" yMin="91" xMax="448" yMax="594">
      <contour>
        <pt x="417" y="393" on="1"/>
        <pt x="417" y="292" on="1"/>
        <pt x="417" y="241" on="0"/>
        <pt x="400" y="207" on="1"/>
        <pt x="447" y="161" on="1"/>
        <pt x="377" y="91" on="1"/>
        <pt x="327" y="140" on="1"/>
        <pt x="287" y="124" on="0"/>
        <pt x="178" y="124" on="0"/>
        <pt x="136" y="140" on="1"/>
        <pt x="87" y="91" on="1"/>
        <pt x="17" y="161" on="1"/>
        <pt x="64" y="208" on="1"/>
        <pt x="47" y="242" on="0"/>
        <pt x="47" y="292" on="1"/>
        <pt x="47" y="393" on="1"/>
        <pt x="47" y="444" on="0"/>
        <pt x="64" y="478" on="1"/>
        <pt x="17" y="524" on="1"/>
        <pt x="87" y="594" on="1"/>
        <pt x="137" y="545" on="1"/>
        <pt x="177" y="561" on="0"/>
        <pt x="286" y="561" on="0"/>
        <pt x="328" y="545" on="1"/>
        <pt x="378" y="594" on="1"/>
        <pt x="448" y="524" on="1"/>
        <pt x="400" y="477" on="1"/>
        <pt x="417" y="443" on="0"/>
      </contour>
      <contour>
        <pt x="163" y="390" on="1"/>
        <pt x="163" y="295" on="1"/>
        <pt x="163" y="228" on="0"/>
        <pt x="232" y="228" on="1"/>
        <pt x="269" y="228" on="0"/>
        <pt x="301" y="262" on="0"/>
        <pt x="301" y="295" on="1"/>
        <pt x="301" y="390" on="1"/>
        <pt x="301" y="457" on="0"/>
        <pt x="232" y="457" on="1"/>
        <pt x="195" y="457" on="0"/>
        <pt x="163" y="423" on="0"/>
      </contour>
    </TTGlyph>
    <TTGlyph name="d" xMin="44" yMin="-4" xMax="402" yMax="737">
      <contour>
        <pt x="282" y="474" on="1"/>
        <pt x="230" y="474" on="1"/>
        <pt x="165" y="474" on="0"/>
        <pt x="165" y="411" on="1"/>
        <pt x="165" y="154" on="1"/>
        <pt x="165" y="106" on="0"/>
        <pt x="213" y="106" on="1"/>
        <pt x="256" y="106" on="0"/>
        <pt x="282" y="126" on="1"/>
      </contour>
      <contour>
        <pt x="281" y="737" on="1"/>
        <pt x="402" y="737" on="1"/>
        <pt x="402" y="0" on="1"/>
        <pt x="285" y="0" on="1"/>
        <pt x="285" y="39" on="1"/>
        <pt x="242" y="-4" on="0"/>
        <pt x="112" y="-4" on="0"/>
        <pt x="44" y="69" on="0"/>
        <pt x="44" y="135" on="1"/>
        <pt x="44" y="414" on="1"/>
        <pt x="44" y="493" on="0"/>
        <pt x="133" y="582" on="0"/>
        <pt x="218" y="582" on="1"/>
        <pt x="281" y="582" on="1"/>
      </contour>
    </TTGlyph>
    <TTGlyph name="dagger" xMin="30" yMin="-30" xMax="349" yMax="812">
      <contour>
        <pt x="134" y="812" on="1"/>
        <pt x="245" y="812" on="1"/>
        <pt x="245" y="747" on="0"/>
        <pt x="237" y="655" on="1"/>
        <pt x="288" y="663" on="0"/>
        <pt x="349" y="663" on="1"/>
        <pt x="349" y="569" on="1"/>
        <pt x="295" y="569" on="0"/>
        <pt x="237" y="577" on="1"/>
        <pt x="245" y="494" on="0"/>
        <pt x="245" y="400" on="1"/>
        <pt x="245" y="-30" on="1"/>
        <pt x="134" y="-30" on="1"/>
        <pt x="134" y="400" on="1"/>
        <pt x="134" y="483" on="0"/>
        <pt x="142" y="577" on="1"/>
        <pt x="93" y="569" on="0"/>
        <pt x="30" y="569" on="1"/>
        <pt x="30" y="663" on="1"/>
        <pt x="86" y="663" on="0"/>
        <pt x="142" y="655" on="1"/>
        <pt x="134" y="738" on="0"/>
      </contour>
    </TTGlyph>
    <TTGlyph name="daggerdbl" xMin="29" yMin="-30" xMax="348" yMax="812">
      <contour>
        <pt x="133" y="812" on="1"/>
        <pt x="244" y="812" on="1"/>
        <pt x="244" y="747" on="0"/>
        <pt x="236" y="655" on="1"/>
        <pt x="285" y="663" on="0"/>
        <pt x="348" y="663" on="1"/>
        <pt x="348" y="569" on="1"/>
        <pt x="292" y="569" on="0"/>
        <pt x="236" y="577" on="1"/>
        <pt x="240" y="396" on="0"/>
        <pt x="236" y="205" on="1"/>
        <pt x="285" y="214" on="0"/>
        <pt x="348" y="214" on="1"/>
        <pt x="348" y="120" on="1"/>
        <pt x="292" y="120" on="0"/>
        <pt x="236" y="128" on="1"/>
        <pt x="244" y="73" on="0"/>
        <pt x="244" y="-30" on="1"/>
        <pt x="133" y="-30" on="1"/>
        <pt x="133" y="62" on="0"/>
        <pt x="141" y="128" on="1"/>
        <pt x="92" y="120" on="0"/>
        <pt x="29" y="120" on="1"/>
        <pt x="29" y="214" on="1"/>
        <pt x="91" y="214" on="0"/>
        <pt x="141" y="205" on="1"/>
        <pt x="137" y="395" on="0"/>
        <pt x="141" y="577" on="1"/>
        <pt x="92" y="569" on="0"/>
        <pt x="29" y="569" on="1"/>
        <pt x="29" y="663" on="1"/>
        <pt x="85" y="663" on="0"/>
        <pt x="141" y="655" on="1"/>
        <pt x="133" y="738" on="0"/>
      </contour>
    </TTGlyph>
    <TTGlyph name="dcaron" xMin="44" yMin="-4" xMax="538" yMax="737">
      <contour>
        <pt x="506" y="736" on="1"/>
        <pt x="538" y="736" on="0"/>
        <pt x="538" y="707" on="1"/>
        <pt x="538" y="686" on="0"/>
        <pt x="501" y="616" on="0"/>
        <pt x="484" y="594" on="1"/>
        <pt x="441" y="594" on="1"/>
        <pt x="467" y="736" on="1"/>
      </contour>
      <contour>
        <pt x="282" y="474" on="1"/>
        <pt x="230" y="474" on="1"/>
        <pt x="165" y="474" on="0"/>
        <pt x="165" y="411" on="1"/>
        <pt x="165" y="154" on="1"/>
        <pt x="165" y="106" on="0"/>
        <pt x="213" y="106" on="1"/>
        <pt x="256" y="106" on="0"/>
        <pt x="282" y="126" on="1"/>
      </contour>
      <contour>
        <pt x="281" y="737" on="1"/>
        <pt x="402" y="737" on="1"/>
        <pt x="402" y="0" on="1"/>
        <pt x="285" y="0" on="1"/>
        <pt x="285" y="39" on="1"/>
        <pt x="242" y="-4" on="0"/>
        <pt x="112" y="-4" on="0"/>
        <pt x="44" y="69" on="0"/>
        <pt x="44" y="135" on="1"/>
        <pt x="44" y="414" on="1"/>
        <pt x="44" y="493" on="0"/>
        <pt x="133" y="582" on="0"/>
        <pt x="218" y="582" on="1"/>
        <pt x="281" y="582" on="1"/>
      </contour>
    </TTGlyph>
    <TTGlyph name="dcroat" xMin="46" yMin="-4" xMax="444" yMax="737">
      <contour>
        <pt x="444" y="690" on="1"/>
        <pt x="444" y="633" on="1"/>
        <pt x="404" y="633" on="1"/>
        <pt x="404" y="0" on="1"/>
        <pt x="287" y="0" on="1"/>
        <pt x="287" y="39" on="1"/>
        <pt x="244" y="-4" on="0"/>
        <pt x="114" y="-4" on="0"/>
        <pt x="46" y="69" on="0"/>
        <pt x="46" y="135" on="1"/>
        <pt x="46" y="414" on="1"/>
        <pt x="46" y="493" on="0"/>
        <pt x="135" y="582" on="0"/>
        <pt x="220" y="582" on="1"/>
        <pt x="283" y="582" on="1"/>
        <pt x="283" y="633" on="1"/>
        <pt x="157" y="633" on="1"/>
        <pt x="157" y="690" on="1"/>
        <pt x="283" y="690" on="1"/>
        <pt x="283" y="737" on="1"/>
        <pt x="404" y="737" on="1"/>
        <pt x="404" y="690" on="1"/>
      </contour>
      <contour>
        <pt x="284" y="474" on="1"/>
        <pt x="232" y="474" on="1"/>
        <pt x="167" y="474" on="0"/>
        <pt x="167" y="411" on="1"/>
        <pt x="167" y="154" on="1"/>
        <pt x="167" y="106" on="0"/>
        <pt x="215" y="106" on="1"/>
        <pt x="258" y="106" on="0"/>
        <pt x="284" y="126" on="1"/>
      </contour>
    </TTGlyph>
    <TTGlyph name="degree" xMin="46" yMin="497" xMax="369" yMax="833">
      <contour>
        <pt x="270" y="627" on="0"/>
        <pt x="270" y="703" on="0"/>
        <pt x="242" y="742" on="0"/>
        <pt x="172" y="742" on="0"/>
        <pt x="145" y="703" on="0"/>
        <pt x="145" y="627" on="0"/>
        <pt x="172" y="588" on="0"/>
        <pt x="242" y="588" on="0"/>
      </contour>
      <contour>
        <pt x="46" y="588" on="0"/>
        <pt x="46" y="742" on="0"/>
        <pt x="124" y="833" on="0"/>
        <pt x="290" y="833" on="0"/>
        <pt x="369" y="742" on="0"/>
        <pt x="369" y="588" on="0"/>
        <pt x="290" y="497" on="0"/>
        <pt x="124" y="497" on="0"/>
      </contour>
    </TTGlyph>
    <TTGlyph name="dieresis" xMin="46" yMin="632" xMax="304" yMax="728">
      <contour>
        <pt x="203" y="632" on="0"/>
        <pt x="203" y="728" on="0"/>
        <pt x="304" y="728" on="0"/>
        <pt x="304" y="632" on="0"/>
      </contour>
      <contour>
        <pt x="46" y="632" on="0"/>
        <pt x="46" y="728" on="0"/>
        <pt x="147" y="728" on="0"/>
        <pt x="147" y="632" on="0"/>
      </contour>
    </TTGlyph>
    <TTGlyph name="divide" xMin="41" yMin="94" xMax="433" yMax="562">
      <contour>
        <pt x="175" y="437" on="0"/>
        <pt x="175" y="562" on="0"/>
        <pt x="300" y="562" on="0"/>
        <pt x="300" y="437" on="0"/>
      </contour>
      <contour>
        <pt x="175" y="94" on="0"/>
        <pt x="175" y="219" on="0"/>
        <pt x="300" y="219" on="0"/>
        <pt x="300" y="94" on="0"/>
      </contour>
      <contour>
        <pt x="41" y="380" on="1"/>
        <pt x="433" y="380" on="1"/>
        <pt x="433" y="277" on="1"/>
        <pt x="41" y="277" on="1"/>
      </contour>
    </TTGlyph>
    <TTGlyph name="dollar" xMin="23" yMin="-61" xMax="396" yMax="743">
      <contour>
        <pt x="396" y="213" on="1"/>
        <pt x="396" y="154" on="1"/>
        <pt x="396" y="29" on="0"/>
        <pt x="257" y="2" on="1"/>
        <pt x="257" y="-61" on="1"/>
        <pt x="144" y="-61" on="1"/>
        <pt x="144" y="-4" on="1"/>
        <pt x="72" y="0" on="0"/>
        <pt x="31" y="17" on="1"/>
        <pt x="31" y="133" on="1"/>
        <pt x="95" y="106" on="0"/>
        <pt x="176" y="106" on="1"/>
        <pt x="275" y="106" on="0"/>
        <pt x="275" y="168" on="1"/>
        <pt x="275" y="194" on="1"/>
        <pt x="275" y="220" on="0"/>
        <pt x="254" y="249" on="0"/>
        <pt x="226" y="264" on="1"/>
        <pt x="116" y="324" on="1"/>
        <pt x="23" y="375" on="0"/>
        <pt x="23" y="471" on="1"/>
        <pt x="23" y="533" on="1"/>
        <pt x="23" y="657" on="0"/>
        <pt x="152" y="683" on="1"/>
        <pt x="152" y="743" on="1"/>
        <pt x="265" y="743" on="1"/>
        <pt x="265" y="689" on="1"/>
        <pt x="326" y="684" on="0"/>
        <pt x="362" y="671" on="1"/>
        <pt x="362" y="556" on="1"/>
        <pt x="304" y="579" on="0"/>
        <pt x="146" y="579" on="0"/>
        <pt x="146" y="519" on="1"/>
        <pt x="146" y="492" on="1"/>
        <pt x="146" y="462" on="0"/>
        <pt x="168" y="429" on="0"/>
        <pt x="200" y="412" on="1"/>
        <pt x="315" y="347" on="1"/>
        <pt x="396" y="303" on="0"/>
      </contour>
    </TTGlyph>
    <TTGlyph name="dotaccent" xMin="124" yMin="641" xMax="225" yMax="737">
      <contour>
        <pt x="124" y="641" on="0"/>
        <pt x="124" y="737" on="0"/>
        <pt x="225" y="737" on="0"/>
        <pt x="225" y="641" on="0"/>
      </contour>
    </TTGlyph>
    <TTGlyph name="dotlessi" xMin="54" yMin="0" xMax="175" yMax="571">
      <contour>
        <pt x="54" y="571" on="1"/>
        <pt x="175" y="571" on="1"/>
        <pt x="175" y="0" on="1"/>
        <pt x="54" y="0" on="1"/>
      </contour>
    </TTGlyph>
    <TTGlyph name="dvDDH_DDHA" xMin="-34" yMin="-298" xMax="484" yMax="663">
      <contour>
        <pt x="252" y="-94" on="1"/>
        <pt x="233" y="-94" on="0"/>
        <pt x="217" y="-102" on="1"/>
        <pt x="217" y="-18" on="1"/>
        <pt x="240" y="-10" on="0"/>
        <pt x="270" y="-10" on="1"/>
        <pt x="407" y="-10" on="0"/>
        <pt x="407" y="-137" on="1"/>
        <pt x="407" y="-150" on="1"/>
        <pt x="407" y="-298" on="0"/>
        <pt x="45" y="-298" on="0"/>
        <pt x="45" y="-147" on="1"/>
        <pt x="45" y="-7" on="1"/>
        <pt x="45" y="63" on="0"/>
        <pt x="86" y="97" on="1"/>
        <pt x="47" y="136" on="0"/>
        <pt x="47" y="204" on="1"/>
        <pt x="47" y="361" on="1"/>
        <pt x="47" y="433" on="0"/>
        <pt x="126" y="501" on="0"/>
        <pt x="213" y="501" on="1"/>
        <pt x="258" y="501" on="1"/>
        <pt x="258" y="569" on="1"/>
        <pt x="-34" y="569" on="1"/>
        <pt x="-34" y="663" on="1"/>
        <pt x="484" y="663" on="1"/>
        <pt x="484" y="569" on="1"/>
        <pt x="368" y="569" on="1"/>
        <pt x="368" y="406" on="1"/>
        <pt x="213" y="406" on="1"/>
        <pt x="181" y="406" on="0"/>
        <pt x="158" y="384" on="0"/>
        <pt x="158" y="358" on="1"/>
        <pt x="158" y="206" on="1"/>
        <pt x="158" y="178" on="0"/>
        <pt x="188" y="147" on="0"/>
        <pt x="272" y="147" on="0"/>
        <pt x="302" y="177" on="0"/>
        <pt x="302" y="205" on="1"/>
        <pt x="302" y="211" on="1"/>
        <pt x="302" y="257" on="0"/>
        <pt x="254" y="257" on="1"/>
        <pt x="235" y="257" on="0"/>
        <pt x="219" y="249" on="1"/>
        <pt x="219" y="333" on="1"/>
        <pt x="242" y="341" on="0"/>
        <pt x="272" y="341" on="1"/>
        <pt x="409" y="341" on="0"/>
        <pt x="409" y="214" on="1"/>
        <pt x="409" y="200" on="1"/>
        <pt x="409" y="52" on="0"/>
        <pt x="230" y="52" on="1"/>
        <pt x="221" y="52" on="1"/>
        <pt x="183" y="52" on="0"/>
        <pt x="155" y="24" on="0"/>
        <pt x="155" y="-10" on="1"/>
        <pt x="155" y="-144" on="1"/>
        <pt x="155" y="-172" on="0"/>
        <pt x="185" y="-203" on="0"/>
        <pt x="269" y="-203" on="0"/>
        <pt x="299" y="-174" on="0"/>
        <pt x="299" y="-145" on="1"/>
        <pt x="299" y="-140" on="1"/>
        <pt x="299" y="-94" on="0"/>
      </contour>
    </TTGlyph>
    <TTGlyph name="dvDD_GA" xMin="-34" yMin="-192" xMax="475" yMax="663">
      <contour>
        <pt x="377" y="415" on="1"/>
        <pt x="209" y="415" on="1"/>
        <pt x="183" y="415" on="0"/>
        <pt x="161" y="399" on="0"/>
        <pt x="161" y="380" on="1"/>
        <pt x="161" y="374" on="1"/>
        <pt x="161" y="356" on="0"/>
        <pt x="183" y="339" on="0"/>
        <pt x="209" y="339" on="1"/>
        <pt x="238" y="339" on="1"/>
        <pt x="326" y="339" on="0"/>
        <pt x="407" y="279" on="0"/>
        <pt x="407" y="208" on="1"/>
        <pt x="407" y="198" on="1"/>
        <pt x="407" y="135" on="0"/>
        <pt x="368" y="102" on="1"/>
        <pt x="368" y="-192" on="1"/>
        <pt x="264" y="-192" on="1"/>
        <pt x="264" y="66" on="1"/>
        <pt x="237" y="63" on="0"/>
        <pt x="206" y="63" on="1"/>
        <pt x="201" y="63" on="1"/>
        <pt x="201" y="19" on="1"/>
        <pt x="201" y="-57" on="0"/>
        <pt x="141" y="-120" on="0"/>
        <pt x="64" y="-120" on="1"/>
        <pt x="24" y="-118" on="1"/>
        <pt x="24" y="-21" on="1"/>
        <pt x="41" y="-22" on="0"/>
        <pt x="46" y="-22" on="1"/>
        <pt x="77" y="-22" on="0"/>
        <pt x="97" y="0" on="0"/>
        <pt x="97" y="28" on="1"/>
        <pt x="97" y="71" on="1"/>
        <pt x="63" y="76" on="0"/>
        <pt x="42" y="81" on="1"/>
        <pt x="42" y="174" on="1"/>
        <pt x="130" y="156" on="0"/>
        <pt x="252" y="156" on="0"/>
        <pt x="292" y="174" on="0"/>
        <pt x="292" y="202" on="1"/>
        <pt x="292" y="210" on="1"/>
        <pt x="292" y="231" on="0"/>
        <pt x="268" y="250" on="0"/>
        <pt x="238" y="250" on="1"/>
        <pt x="212" y="250" on="1"/>
        <pt x="127" y="250" on="0"/>
        <pt x="45" y="301" on="0"/>
        <pt x="45" y="372" on="1"/>
        <pt x="45" y="381" on="1"/>
        <pt x="45" y="501" on="0"/>
        <pt x="214" y="501" on="1"/>
        <pt x="261" y="501" on="1"/>
        <pt x="261" y="569" on="1"/>
        <pt x="-34" y="569" on="1"/>
        <pt x="-34" y="663" on="1"/>
        <pt x="475" y="663" on="1"/>
        <pt x="475" y="569" on="1"/>
        <pt x="377" y="569" on="1"/>
      </contour>
    </TTGlyph>
    <TTGlyph name="dvMatraI.a33" xMin="-34" yMin="0" xMax="1346" yMax="894">
      <contour>
        <pt x="56" y="663" on="1"/>
        <pt x="56" y="684" on="1"/>
        <pt x="56" y="797" on="0"/>
        <pt x="223" y="894" on="0"/>
        <pt x="381" y="894" on="1"/>
        <pt x="732" y="894" on="0"/>
        <pt x="1346" y="836" on="1"/>
        <pt x="1346" y="737" on="1"/>
        <pt x="722" y="791" on="0"/>
        <pt x="389" y="791" on="1"/>
        <pt x="271" y="791" on="0"/>
        <pt x="167" y="744" on="0"/>
        <pt x="167" y="682" on="1"/>
        <pt x="167" y="663" on="1"/>
        <pt x="252" y="663" on="1"/>
        <pt x="252" y="569" on="1"/>
        <pt x="165" y="569" on="1"/>
        <pt x="165" y="0" on="1"/>
        <pt x="53" y="0" on="1"/>
        <pt x="53" y="569" on="1"/>
        <pt x="-34" y="569" on="1"/>
        <pt x="-34" y="663" on="1"/>
      </contour>
    </TTGlyph>
    <TTGlyph name="dvMatraI.a34" xMin="-34" yMin="0" xMax="1372" yMax="894">
      <contour>
        <pt x="56" y="663" on="1"/>
        <pt x="56" y="684" on="1"/>
        <pt x="56" y="797" on="0"/>
        <pt x="224" y="894" on="0"/>
        <pt x="383" y="894" on="1"/>
        <pt x="752" y="894" on="0"/>
        <pt x="1372" y="835" on="1"/>
        <pt x="1372" y="736" on="1"/>
        <pt x="744" y="791" on="0"/>
        <pt x="391" y="791" on="1"/>
        <pt x="272" y="791" on="0"/>
        <pt x="167" y="744" on="0"/>
        <pt x="167" y="682" on="1"/>
        <pt x="167" y="663" on="1"/>
        <pt x="252" y="663" on="1"/>
        <pt x="252" y="569" on="1"/>
        <pt x="165" y="569" on="1"/>
        <pt x="165" y="0" on="1"/>
        <pt x="53" y="0" on="1"/>
        <pt x="53" y="569" on="1"/>
        <pt x="-34" y="569" on="1"/>
        <pt x="-34" y="663" on="1"/>
      </contour>
    </TTGlyph>
    <TTGlyph name="dvMatraI.a35" xMin="-34" yMin="0" xMax="1397" yMax="894">
      <contour>
        <pt x="56" y="663" on="1"/>
        <pt x="56" y="684" on="1"/>
        <pt x="56" y="797" on="0"/>
        <pt x="226" y="894" on="0"/>
        <pt x="387" y="894" on="1"/>
        <pt x="781" y="894" on="0"/>
        <pt x="1397" y="835" on="1"/>
        <pt x="1397" y="736" on="1"/>
        <pt x="758" y="791" on="0"/>
        <pt x="395" y="791" on="1"/>
        <pt x="274" y="791" on="0"/>
        <pt x="167" y="745" on="0"/>
        <pt x="167" y="682" on="1"/>
        <pt x="167" y="663" on="1"/>
        <pt x="252" y="663" on="1"/>
        <pt x="252" y="569" on="1"/>
        <pt x="165" y="569" on="1"/>
        <pt x="165" y="0" on="1"/>
        <pt x="53" y="0" on="1"/>
        <pt x="53" y="569" on="1"/>
        <pt x="-34" y="569" on="1"/>
        <pt x="-34" y="663" on="1"/>
      </contour>
    </TTGlyph>
    <TTGlyph name="dvMatraI.a36" xMin="-34" yMin="0" xMax="1423" yMax="894">
      <contour>
        <pt x="56" y="663" on="1"/>
        <pt x="56" y="684" on="1"/>
        <pt x="56" y="797" on="0"/>
        <pt x="227" y="894" on="0"/>
        <pt x="389" y="894" on="1"/>
        <pt x="774" y="894" on="0"/>
        <pt x="1423" y="835" on="1"/>
        <pt x="1423" y="735" on="1"/>
        <pt x="778" y="791" on="0"/>
        <pt x="397" y="791" on="1"/>
        <pt x="275" y="791" on="0"/>
        <pt x="167" y="745" on="0"/>
        <pt x="167" y="682" on="1"/>
        <pt x="167" y="663" on="1"/>
        <pt x="252" y="663" on="1"/>
        <pt x="252" y="569" on="1"/>
        <pt x="165" y="569" on="1"/>
        <pt x="165" y="0" on="1"/>
        <pt x="53" y="0" on="1"/>
        <pt x="53" y="569" on="1"/>
        <pt x="-34" y="569" on="1"/>
        <pt x="-34" y="663" on="1"/>
      </contour>
    </TTGlyph>
    <TTGlyph name="dvMatraI.a37" xMin="-34" yMin="0" xMax="1449" yMax="894">
      <contour>
        <pt x="56" y="663" on="1"/>
        <pt x="56" y="684" on="1"/>
        <pt x="56" y="797" on="0"/>
        <pt x="228" y="894" on="0"/>
        <pt x="392" y="894" on="1"/>
        <pt x="808" y="894" on="0"/>
        <pt x="1449" y="835" on="1"/>
        <pt x="1449" y="736" on="1"/>
        <pt x="799" y="791" on="0"/>
        <pt x="400" y="791" on="1"/>
        <pt x="276" y="791" on="0"/>
        <pt x="167" y="745" on="0"/>
        <pt x="167" y="682" on="1"/>
        <pt x="167" y="663" on="1"/>
        <pt x="252" y="663" on="1"/>
        <pt x="252" y="569" on="1"/>
        <pt x="165" y="569" on="1"/>
        <pt x="165" y="0" on="1"/>
        <pt x="53" y="0" on="1"/>
        <pt x="53" y="569" on="1"/>
        <pt x="-34" y="569" on="1"/>
        <pt x="-34" y="663" on="1"/>
      </contour>
    </TTGlyph>
    <TTGlyph name="dvMatraI.a38" xMin="-34" yMin="0" xMax="1473" yMax="894">
      <contour>
        <pt x="56" y="663" on="1"/>
        <pt x="56" y="683" on="1"/>
        <pt x="56" y="797" on="0"/>
        <pt x="229" y="894" on="0"/>
        <pt x="394" y="894" on="1"/>
        <pt x="812" y="894" on="0"/>
        <pt x="1473" y="835" on="1"/>
        <pt x="1473" y="736" on="1"/>
        <pt x="779" y="791" on="0"/>
        <pt x="402" y="791" on="1"/>
        <pt x="277" y="791" on="0"/>
        <pt x="167" y="745" on="0"/>
        <pt x="167" y="681" on="1"/>
        <pt x="167" y="663" on="1"/>
        <pt x="252" y="663" on="1"/>
        <pt x="252" y="569" on="1"/>
        <pt x="165" y="569" on="1"/>
        <pt x="165" y="0" on="1"/>
        <pt x="53" y="0" on="1"/>
        <pt x="53" y="569" on="1"/>
        <pt x="-34" y="569" on="1"/>
        <pt x="-34" y="663" on="1"/>
      </contour>
    </TTGlyph>
    <TTGlyph name="dvMatraI.a39" xMin="-34" yMin="0" xMax="1500" yMax="894">
      <contour>
        <pt x="56" y="663" on="1"/>
        <pt x="56" y="683" on="1"/>
        <pt x="56" y="797" on="0"/>
        <pt x="231" y="894" on="0"/>
        <pt x="397" y="894" on="1"/>
        <pt x="820" y="894" on="0"/>
        <pt x="1500" y="835" on="1"/>
        <pt x="1500" y="735" on="1"/>
        <pt x="824" y="791" on="0"/>
        <pt x="405" y="791" on="1"/>
        <pt x="279" y="791" on="0"/>
        <pt x="167" y="745" on="0"/>
        <pt x="167" y="681" on="1"/>
        <pt x="167" y="663" on="1"/>
        <pt x="252" y="663" on="1"/>
        <pt x="252" y="569" on="1"/>
        <pt x="165" y="569" on="1"/>
        <pt x="165" y="0" on="1"/>
        <pt x="53" y="0" on="1"/>
        <pt x="53" y="569" on="1"/>
        <pt x="-34" y="569" on="1"/>
        <pt x="-34" y="663" on="1"/>
      </contour>
    </TTGlyph>
    <TTGlyph name="dvMatraI.a40" xMin="-34" yMin="0" xMax="1524" yMax="894">
      <contour>
        <pt x="56" y="663" on="1"/>
        <pt x="56" y="683" on="1"/>
        <pt x="56" y="797" on="0"/>
        <pt x="231" y="894" on="0"/>
        <pt x="399" y="894" on="1"/>
        <pt x="828" y="894" on="0"/>
        <pt x="1524" y="835" on="1"/>
        <pt x="1524" y="735" on="1"/>
        <pt x="840" y="791" on="0"/>
        <pt x="408" y="791" on="1"/>
        <pt x="280" y="791" on="0"/>
        <pt x="167" y="745" on="0"/>
        <pt x="167" y="681" on="1"/>
        <pt x="167" y="663" on="1"/>
        <pt x="252" y="663" on="1"/>
        <pt x="252" y="569" on="1"/>
        <pt x="165" y="569" on="1"/>
        <pt x="165" y="0" on="1"/>
        <pt x="53" y="0" on="1"/>
        <pt x="53" y="569" on="1"/>
        <pt x="-34" y="569" on="1"/>
        <pt x="-34" y="663" on="1"/>
      </contour>
    </TTGlyph>
    <TTGlyph name="dvMatraI.a41" xMin="-34" yMin="0" xMax="1550" yMax="894">
      <contour>
        <pt x="56" y="663" on="1"/>
        <pt x="56" y="683" on="1"/>
        <pt x="56" y="797" on="0"/>
        <pt x="233" y="894" on="0"/>
        <pt x="402" y="894" on="1"/>
        <pt x="826" y="894" on="0"/>
        <pt x="1550" y="834" on="1"/>
        <pt x="1550" y="735" on="1"/>
        <pt x="844" y="791" on="0"/>
        <pt x="410" y="791" on="1"/>
        <pt x="281" y="791" on="0"/>
        <pt x="167" y="745" on="0"/>
        <pt x="167" y="681" on="1"/>
        <pt x="167" y="663" on="1"/>
        <pt x="252" y="663" on="1"/>
        <pt x="252" y="569" on="1"/>
        <pt x="165" y="569" on="1"/>
        <pt x="165" y="0" on="1"/>
        <pt x="53" y="0" on="1"/>
        <pt x="53" y="569" on="1"/>
        <pt x="-34" y="569" on="1"/>
        <pt x="-34" y="663" on="1"/>
      </contour>
    </TTGlyph>
    <TTGlyph name="dvMatraI.a42" xMin="-34" yMin="0" xMax="1575" yMax="894">
      <contour>
        <pt x="56" y="663" on="1"/>
        <pt x="56" y="683" on="1"/>
        <pt x="56" y="797" on="0"/>
        <pt x="234" y="894" on="0"/>
        <pt x="405" y="894" on="1"/>
        <pt x="841" y="894" on="0"/>
        <pt x="1575" y="834" on="1"/>
        <pt x="1575" y="735" on="1"/>
        <pt x="853" y="791" on="0"/>
        <pt x="413" y="791" on="1"/>
        <pt x="283" y="791" on="0"/>
        <pt x="167" y="745" on="0"/>
        <pt x="167" y="681" on="1"/>
        <pt x="167" y="663" on="1"/>
        <pt x="252" y="663" on="1"/>
        <pt x="252" y="569" on="1"/>
        <pt x="165" y="569" on="1"/>
        <pt x="165" y="0" on="1"/>
        <pt x="53" y="0" on="1"/>
        <pt x="53" y="569" on="1"/>
        <pt x="-34" y="569" on="1"/>
        <pt x="-34" y="663" on="1"/>
      </contour>
    </TTGlyph>
    <TTGlyph name="dvMatraI.a43" xMin="-34" yMin="0" xMax="1600" yMax="894">
      <contour>
        <pt x="56" y="663" on="1"/>
        <pt x="56" y="683" on="1"/>
        <pt x="56" y="798" on="0"/>
        <pt x="235" y="894" on="0"/>
        <pt x="408" y="894" on="1"/>
        <pt x="851" y="894" on="0"/>
        <pt x="1600" y="834" on="1"/>
        <pt x="1600" y="735" on="1"/>
        <pt x="872" y="791" on="0"/>
        <pt x="416" y="791" on="1"/>
        <pt x="283" y="791" on="0"/>
        <pt x="167" y="745" on="0"/>
        <pt x="167" y="681" on="1"/>
        <pt x="167" y="663" on="1"/>
        <pt x="252" y="663" on="1"/>
        <pt x="252" y="569" on="1"/>
        <pt x="165" y="569" on="1"/>
        <pt x="165" y="0" on="1"/>
        <pt x="53" y="0" on="1"/>
        <pt x="53" y="569" on="1"/>
        <pt x="-34" y="569" on="1"/>
        <pt x="-34" y="663" on="1"/>
      </contour>
    </TTGlyph>
    <TTGlyph name="dvMatraI.a44" xMin="-34" yMin="0" xMax="1627" yMax="894">
      <contour>
        <pt x="56" y="663" on="1"/>
        <pt x="56" y="683" on="1"/>
        <pt x="56" y="798" on="0"/>
        <pt x="237" y="894" on="0"/>
        <pt x="410" y="894" on="1"/>
        <pt x="893" y="894" on="0"/>
        <pt x="1627" y="833" on="1"/>
        <pt x="1627" y="734" on="1"/>
        <pt x="901" y="791" on="0"/>
        <pt x="418" y="791" on="1"/>
        <pt x="285" y="791" on="0"/>
        <pt x="167" y="745" on="0"/>
        <pt x="167" y="681" on="1"/>
        <pt x="167" y="663" on="1"/>
        <pt x="252" y="663" on="1"/>
        <pt x="252" y="569" on="1"/>
        <pt x="165" y="569" on="1"/>
        <pt x="165" y="0" on="1"/>
        <pt x="53" y="0" on="1"/>
        <pt x="53" y="569" on="1"/>
        <pt x="-34" y="569" on="1"/>
        <pt x="-34" y="663" on="1"/>
      </contour>
    </TTGlyph>
    <TTGlyph name="dvMatraI.a45" xMin="-34" yMin="0" xMax="1652" yMax="894">
      <contour>
        <pt x="56" y="663" on="1"/>
        <pt x="56" y="683" on="1"/>
        <pt x="56" y="798" on="0"/>
        <pt x="238" y="894" on="0"/>
        <pt x="413" y="894" on="1"/>
        <pt x="898" y="894" on="0"/>
        <pt x="1652" y="833" on="1"/>
        <pt x="1652" y="734" on="1"/>
        <pt x="915" y="791" on="0"/>
        <pt x="421" y="791" on="1"/>
        <pt x="286" y="791" on="0"/>
        <pt x="167" y="745" on="0"/>
        <pt x="167" y="681" on="1"/>
        <pt x="167" y="663" on="1"/>
        <pt x="252" y="663" on="1"/>
        <pt x="252" y="569" on="1"/>
        <pt x="165" y="569" on="1"/>
        <pt x="165" y="0" on="1"/>
        <pt x="53" y="0" on="1"/>
        <pt x="53" y="569" on="1"/>
        <pt x="-34" y="569" on="1"/>
        <pt x="-34" y="663" on="1"/>
      </contour>
    </TTGlyph>
    <TTGlyph name="dvMatraI.a46" xMin="-34" yMin="0" xMax="1677" yMax="894">
      <contour>
        <pt x="56" y="663" on="1"/>
        <pt x="56" y="683" on="1"/>
        <pt x="56" y="798" on="0"/>
        <pt x="239" y="894" on="0"/>
        <pt x="416" y="894" on="1"/>
        <pt x="914" y="894" on="0"/>
        <pt x="1677" y="833" on="1"/>
        <pt x="1677" y="733" on="1"/>
        <pt x="925" y="791" on="0"/>
        <pt x="424" y="791" on="1"/>
        <pt x="287" y="791" on="0"/>
        <pt x="167" y="746" on="0"/>
        <pt x="167" y="680" on="1"/>
        <pt x="167" y="663" on="1"/>
        <pt x="252" y="663" on="1"/>
        <pt x="252" y="569" on="1"/>
        <pt x="165" y="569" on="1"/>
        <pt x="165" y="0" on="1"/>
        <pt x="53" y="0" on="1"/>
        <pt x="53" y="569" on="1"/>
        <pt x="-34" y="569" on="1"/>
        <pt x="-34" y="663" on="1"/>
      </contour>
    </TTGlyph>
    <TTGlyph name="dvMatraI.a47" xMin="-34" yMin="0" xMax="1702" yMax="894">
      <contour>
        <pt x="56" y="663" on="1"/>
        <pt x="56" y="683" on="1"/>
        <pt x="56" y="799" on="0"/>
        <pt x="240" y="894" on="0"/>
        <pt x="418" y="894" on="1"/>
        <pt x="925" y="894" on="0"/>
        <pt x="1702" y="833" on="1"/>
        <pt x="1702" y="733" on="1"/>
        <pt x="936" y="791" on="0"/>
        <pt x="427" y="791" on="1"/>
        <pt x="289" y="791" on="0"/>
        <pt x="167" y="746" on="0"/>
        <pt x="167" y="680" on="1"/>
        <pt x="167" y="663" on="1"/>
        <pt x="252" y="663" on="1"/>
        <pt x="252" y="569" on="1"/>
        <pt x="165" y="569" on="1"/>
        <pt x="165" y="0" on="1"/>
        <pt x="53" y="0" on="1"/>
        <pt x="53" y="569" on="1"/>
        <pt x="-34" y="569" on="1"/>
        <pt x="-34" y="663" on="1"/>
      </contour>
    </TTGlyph>
    <TTGlyph name="dvMatraI.a48" xMin="-34" yMin="0" xMax="1728" yMax="894">
      <contour>
        <pt x="56" y="663" on="1"/>
        <pt x="56" y="683" on="1"/>
        <pt x="56" y="799" on="0"/>
        <pt x="242" y="894" on="0"/>
        <pt x="421" y="894" on="1"/>
        <pt x="913" y="894" on="0"/>
        <pt x="1728" y="833" on="1"/>
        <pt x="1728" y="733" on="1"/>
        <pt x="945" y="791" on="0"/>
        <pt x="429" y="791" on="1"/>
        <pt x="290" y="791" on="0"/>
        <pt x="167" y="746" on="0"/>
        <pt x="167" y="680" on="1"/>
        <pt x="167" y="663" on="1"/>
        <pt x="252" y="663" on="1"/>
        <pt x="252" y="569" on="1"/>
        <pt x="165" y="569" on="1"/>
        <pt x="165" y="0" on="1"/>
        <pt x="53" y="0" on="1"/>
        <pt x="53" y="569" on="1"/>
        <pt x="-34" y="569" on="1"/>
        <pt x="-34" y="663" on="1"/>
      </contour>
    </TTGlyph>
    <TTGlyph name="dvMatraI.a49" xMin="-34" yMin="0" xMax="1754" yMax="894">
      <contour>
        <pt x="56" y="663" on="1"/>
        <pt x="56" y="682" on="1"/>
        <pt x="56" y="798" on="0"/>
        <pt x="242" y="894" on="0"/>
        <pt x="424" y="894" on="1"/>
        <pt x="956" y="894" on="0"/>
        <pt x="1754" y="832" on="1"/>
        <pt x="1754" y="733" on="1"/>
        <pt x="954" y="791" on="0"/>
        <pt x="432" y="791" on="1"/>
        <pt x="297" y="791" on="0"/>
        <pt x="234" y="770" on="1"/>
        <pt x="167" y="747" on="0"/>
        <pt x="167" y="680" on="1"/>
        <pt x="167" y="663" on="1"/>
        <pt x="252" y="663" on="1"/>
        <pt x="252" y="569" on="1"/>
        <pt x="165" y="569" on="1"/>
        <pt x="165" y="0" on="1"/>
        <pt x="53" y="0" on="1"/>
        <pt x="53" y="569" on="1"/>
        <pt x="-34" y="569" on="1"/>
        <pt x="-34" y="663" on="1"/>
      </contour>
    </TTGlyph>
    <TTGlyph name="dvMatraI.a50" xMin="-34" yMin="0" xMax="1830" yMax="894">
      <contour>
        <pt x="56" y="663" on="1"/>
        <pt x="56" y="682" on="1"/>
        <pt x="56" y="798" on="0"/>
        <pt x="246" y="894" on="0"/>
        <pt x="432" y="894" on="1"/>
        <pt x="1000" y="894" on="0"/>
        <pt x="1830" y="831" on="1"/>
        <pt x="1830" y="732" on="1"/>
        <pt x="1002" y="791" on="0"/>
        <pt x="440" y="791" on="1"/>
        <pt x="295" y="791" on="0"/>
        <pt x="167" y="746" on="0"/>
        <pt x="167" y="680" on="1"/>
        <pt x="167" y="663" on="1"/>
        <pt x="252" y="663" on="1"/>
        <pt x="252" y="569" on="1"/>
        <pt x="165" y="569" on="1"/>
        <pt x="165" y="0" on="1"/>
        <pt x="53" y="0" on="1"/>
        <pt x="53" y="569" on="1"/>
        <pt x="-34" y="569" on="1"/>
        <pt x="-34" y="663" on="1"/>
      </contour>
    </TTGlyph>
    <TTGlyph name="dvNG_GA" xMin="-34" yMin="-192" xMax="563" yMax="663">
      <contour>
        <pt x="-34" y="663" on="1"/>
        <pt x="563" y="663" on="1"/>
        <pt x="563" y="569" on="1"/>
        <pt x="377" y="569" on="1"/>
        <pt x="377" y="415" on="1"/>
        <pt x="209" y="415" on="1"/>
        <pt x="183" y="415" on="0"/>
        <pt x="161" y="399" on="0"/>
        <pt x="161" y="380" on="1"/>
        <pt x="161" y="375" on="1"/>
        <pt x="161" y="355" on="0"/>
        <pt x="182" y="339" on="0"/>
        <pt x="209" y="339" on="1"/>
        <pt x="238" y="339" on="1"/>
        <pt x="326" y="339" on="0"/>
        <pt x="407" y="279" on="0"/>
        <pt x="407" y="208" on="1"/>
        <pt x="407" y="198" on="1"/>
        <pt x="407" y="135" on="0"/>
        <pt x="368" y="102" on="1"/>
        <pt x="368" y="-192" on="1"/>
        <pt x="264" y="-192" on="1"/>
        <pt x="264" y="66" on="1"/>
        <pt x="237" y="63" on="0"/>
        <pt x="206" y="63" on="1"/>
        <pt x="201" y="63" on="1"/>
        <pt x="201" y="19" on="1"/>
        <pt x="201" y="-57" on="0"/>
        <pt x="141" y="-120" on="0"/>
        <pt x="64" y="-120" on="1"/>
        <pt x="24" y="-118" on="1"/>
        <pt x="24" y="-21" on="1"/>
        <pt x="41" y="-22" on="0"/>
        <pt x="46" y="-22" on="1"/>
        <pt x="77" y="-22" on="0"/>
        <pt x="97" y="0" on="0"/>
        <pt x="97" y="28" on="1"/>
        <pt x="97" y="71" on="1"/>
        <pt x="63" y="76" on="0"/>
        <pt x="42" y="81" on="1"/>
        <pt x="42" y="174" on="1"/>
        <pt x="130" y="156" on="0"/>
        <pt x="252" y="156" on="0"/>
        <pt x="292" y="174" on="0"/>
        <pt x="292" y="202" on="1"/>
        <pt x="292" y="211" on="1"/>
        <pt x="292" y="231" on="0"/>
        <pt x="268" y="250" on="0"/>
        <pt x="238" y="250" on="1"/>
        <pt x="212" y="250" on="1"/>
        <pt x="127" y="250" on="0"/>
        <pt x="45" y="301" on="0"/>
        <pt x="45" y="372" on="1"/>
        <pt x="45" y="381" on="1"/>
        <pt x="45" y="501" on="0"/>
        <pt x="214" y="501" on="1"/>
        <pt x="261" y="501" on="1"/>
        <pt x="261" y="569" on="1"/>
        <pt x="-34" y="569" on="1"/>
      </contour>
      <contour>
        <pt x="453" y="419" on="1"/>
        <pt x="513" y="419" on="0"/>
        <pt x="513" y="299" on="0"/>
        <pt x="453" y="299" on="1"/>
        <pt x="419" y="299" on="0"/>
        <pt x="393" y="330" on="0"/>
        <pt x="393" y="388" on="0"/>
        <pt x="419" y="419" on="0"/>
      </contour>
    </TTGlyph>
    <TTGlyph name="dvNG_MA" xMin="-34" yMin="-186" xMax="735" yMax="663">
      <contour>
        <pt x="735" y="663" on="1"/>
        <pt x="735" y="569" on="1"/>
        <pt x="640" y="569" on="1"/>
        <pt x="640" y="-186" on="1"/>
        <pt x="531" y="-186" on="1"/>
        <pt x="531" y="-56" on="1"/>
        <pt x="387" y="-56" on="1"/>
        <pt x="387" y="-114" on="1"/>
        <pt x="278" y="-114" on="1"/>
        <pt x="278" y="66" on="1"/>
        <pt x="253" y="61" on="0"/>
        <pt x="134" y="61" on="0"/>
        <pt x="45" y="80" on="1"/>
        <pt x="45" y="177" on="1"/>
        <pt x="135" y="159" on="0"/>
        <pt x="256" y="159" on="0"/>
        <pt x="299" y="178" on="0"/>
        <pt x="299" y="205" on="1"/>
        <pt x="299" y="211" on="1"/>
        <pt x="299" y="231" on="0"/>
        <pt x="275" y="250" on="0"/>
        <pt x="245" y="250" on="1"/>
        <pt x="215" y="250" on="1"/>
        <pt x="130" y="250" on="0"/>
        <pt x="49" y="301" on="0"/>
        <pt x="49" y="372" on="1"/>
        <pt x="49" y="381" on="1"/>
        <pt x="49" y="501" on="0"/>
        <pt x="218" y="501" on="1"/>
        <pt x="265" y="501" on="1"/>
        <pt x="265" y="569" on="1"/>
        <pt x="-34" y="569" on="1"/>
        <pt x="-34" y="663" on="1"/>
      </contour>
      <contour>
        <pt x="531" y="39" on="1"/>
        <pt x="531" y="569" on="1"/>
        <pt x="381" y="569" on="1"/>
        <pt x="381" y="415" on="1"/>
        <pt x="212" y="415" on="1"/>
        <pt x="164" y="415" on="0"/>
        <pt x="164" y="379" on="1"/>
        <pt x="164" y="374" on="1"/>
        <pt x="164" y="356" on="0"/>
        <pt x="186" y="339" on="0"/>
        <pt x="212" y="339" on="1"/>
        <pt x="245" y="339" on="1"/>
        <pt x="333" y="339" on="0"/>
        <pt x="414" y="279" on="0"/>
        <pt x="414" y="208" on="1"/>
        <pt x="414" y="201" on="1"/>
        <pt x="414" y="150" on="0"/>
        <pt x="388" y="118" on="1"/>
        <pt x="388" y="39" on="1"/>
      </contour>
      <contour>
        <pt x="401" y="308" on="0"/>
        <pt x="401" y="409" on="0"/>
        <pt x="502" y="409" on="0"/>
        <pt x="502" y="308" on="0"/>
      </contour>
    </TTGlyph>
    <TTGlyph name="dvNY_CA" xMin="-34" yMin="0" xMax="923" yMax="663">
      <contour>
        <pt x="486" y="324" on="1"/>
        <pt x="486" y="354" on="0"/>
        <pt x="493" y="387" on="1"/>
        <pt x="401" y="387" on="1"/>
        <pt x="401" y="487" on="1"/>
        <pt x="682" y="487" on="1"/>
        <pt x="682" y="391" on="1"/>
        <pt x="608" y="391" on="1"/>
        <pt x="597" y="372" on="0"/>
        <pt x="597" y="324" on="1"/>
        <pt x="597" y="213" on="1"/>
        <pt x="597" y="155" on="0"/>
        <pt x="664" y="155" on="1"/>
        <pt x="697" y="155" on="0"/>
        <pt x="724" y="164" on="1"/>
        <pt x="724" y="569" on="1"/>
        <pt x="-34" y="569" on="1"/>
        <pt x="-34" y="663" on="1"/>
        <pt x="923" y="663" on="1"/>
        <pt x="923" y="569" on="1"/>
        <pt x="836" y="569" on="1"/>
        <pt x="836" y="0" on="1"/>
        <pt x="724" y="0" on="1"/>
        <pt x="724" y="66" on="1"/>
        <pt x="689" y="56" on="0"/>
        <pt x="645" y="56" on="1"/>
        <pt x="564" y="56" on="0"/>
        <pt x="487" y="131" on="0"/>
        <pt x="486" y="206" on="1"/>
        <pt x="334" y="206" on="1"/>
        <pt x="334" y="177" on="1"/>
        <pt x="334" y="111" on="0"/>
        <pt x="242" y="31" on="0"/>
        <pt x="147" y="31" on="1"/>
        <pt x="102" y="31" on="0"/>
        <pt x="59" y="46" on="1"/>
        <pt x="59" y="145" on="1"/>
        <pt x="105" y="133" on="0"/>
        <pt x="188" y="133" on="0"/>
        <pt x="222" y="166" on="0"/>
        <pt x="222" y="197" on="1"/>
        <pt x="222" y="333" on="1"/>
        <pt x="222" y="365" on="0"/>
        <pt x="188" y="398" on="0"/>
        <pt x="99" y="398" on="0"/>
        <pt x="62" y="385" on="1"/>
        <pt x="62" y="485" on="1"/>
        <pt x="102" y="499" on="0"/>
        <pt x="148" y="499" on="1"/>
        <pt x="334" y="499" on="0"/>
        <pt x="334" y="341" on="1"/>
        <pt x="334" y="302" on="1"/>
        <pt x="486" y="302" on="1"/>
      </contour>
    </TTGlyph>
    <TTGlyph name="dvSHA_MatraVocalicR" xMin="12" yMin="-291" xMax="644" yMax="668">
      <contour>
        <pt x="557" y="569" on="1"/>
        <pt x="557" y="-93" on="1"/>
        <pt x="509" y="-84" on="0"/>
        <pt x="434" y="-84" on="0"/>
        <pt x="404" y="-106" on="0"/>
        <pt x="404" y="-167" on="0"/>
        <pt x="434" y="-189" on="0"/>
        <pt x="459" y="-189" on="1"/>
        <pt x="498" y="-189" on="0"/>
        <pt x="559" y="-180" on="1"/>
        <pt x="559" y="-281" on="1"/>
        <pt x="514" y="-291" on="0"/>
        <pt x="462" y="-291" on="1"/>
        <pt x="294" y="-291" on="0"/>
        <pt x="294" y="-136" on="1"/>
        <pt x="294" y="10" on="0"/>
        <pt x="445" y="18" on="1"/>
        <pt x="445" y="103" on="1"/>
        <pt x="220" y="269" on="1"/>
        <pt x="138" y="186" on="1"/>
        <pt x="12" y="204" on="1"/>
        <pt x="139" y="330" on="1"/>
        <pt x="90" y="368" on="0"/>
        <pt x="53" y="434" on="0"/>
        <pt x="53" y="488" on="1"/>
        <pt x="53" y="522" on="1"/>
        <pt x="53" y="668" on="0"/>
        <pt x="364" y="668" on="0"/>
        <pt x="364" y="522" on="1"/>
        <pt x="364" y="488" on="1"/>
        <pt x="364" y="439" on="0"/>
        <pt x="332" y="380" on="0"/>
        <pt x="292" y="340" on="1"/>
        <pt x="367" y="285" on="1"/>
        <pt x="417" y="246" on="0"/>
        <pt x="445" y="220" on="1"/>
        <pt x="445" y="663" on="1"/>
        <pt x="644" y="663" on="1"/>
        <pt x="644" y="569" on="1"/>
      </contour>
      <contour>
        <pt x="258" y="480" on="1"/>
        <pt x="258" y="521" on="1"/>
        <pt x="258" y="546" on="0"/>
        <pt x="239" y="571" on="0"/>
        <pt x="180" y="571" on="0"/>
        <pt x="161" y="546" on="0"/>
        <pt x="161" y="521" on="1"/>
        <pt x="161" y="480" on="1"/>
        <pt x="161" y="463" on="0"/>
        <pt x="176" y="433" on="0"/>
        <pt x="192" y="419" on="0"/>
        <pt x="209" y="405" on="1"/>
        <pt x="227" y="420" on="0"/>
        <pt x="242" y="433" on="0"/>
        <pt x="258" y="463" on="0"/>
      </contour>
    </TTGlyph>
    <TTGlyph name="dvSH_CA.aSimp" xMin="49" yMin="0" xMax="950" yMax="668">
      <contour>
        <pt x="384" y="517" on="1"/>
        <pt x="384" y="386" on="1"/>
        <pt x="384" y="240" on="0"/>
        <pt x="228" y="240" on="1"/>
        <pt x="185" y="240" on="0"/>
        <pt x="161" y="249" on="1"/>
        <pt x="161" y="177" on="1"/>
        <pt x="161" y="101" on="0"/>
        <pt x="254" y="101" on="1"/>
        <pt x="310" y="101" on="0"/>
        <pt x="372" y="124" on="1"/>
        <pt x="372" y="20" on="1"/>
        <pt x="315" y="0" on="0"/>
        <pt x="145" y="0" on="0"/>
        <pt x="49" y="96" on="0"/>
        <pt x="49" y="174" on="1"/>
        <pt x="49" y="403" on="1"/>
        <pt x="161" y="403" on="1"/>
        <pt x="161" y="347" on="1"/>
        <pt x="185" y="338" on="0"/>
        <pt x="248" y="338" on="0"/>
        <pt x="272" y="364" on="0"/>
        <pt x="272" y="389" on="1"/>
        <pt x="272" y="514" on="1"/>
        <pt x="272" y="538" on="0"/>
        <pt x="248" y="565" on="0"/>
        <pt x="216" y="565" on="1"/>
        <pt x="161" y="565" on="0"/>
        <pt x="161" y="512" on="1"/>
        <pt x="161" y="486" on="0"/>
        <pt x="164" y="474" on="1"/>
        <pt x="53" y="474" on="1"/>
        <pt x="49" y="494" on="0"/>
        <pt x="49" y="517" on="1"/>
        <pt x="49" y="668" on="0"/>
        <pt x="384" y="668" on="0"/>
      </contour>
      <contour>
        <pt x="513" y="324" on="1"/>
        <pt x="513" y="362" on="0"/>
        <pt x="520" y="387" on="1"/>
        <pt x="453" y="387" on="1"/>
        <pt x="453" y="487" on="1"/>
        <pt x="709" y="487" on="1"/>
        <pt x="709" y="391" on="1"/>
        <pt x="635" y="391" on="1"/>
        <pt x="625" y="372" on="0"/>
        <pt x="625" y="324" on="1"/>
        <pt x="625" y="213" on="1"/>
        <pt x="625" y="155" on="0"/>
        <pt x="692" y="155" on="1"/>
        <pt x="724" y="155" on="0"/>
        <pt x="752" y="164" on="1"/>
        <pt x="752" y="569" on="1"/>
        <pt x="424" y="569" on="1"/>
        <pt x="424" y="663" on="1"/>
        <pt x="950" y="663" on="1"/>
        <pt x="950" y="569" on="1"/>
        <pt x="863" y="569" on="1"/>
        <pt x="863" y="0" on="1"/>
        <pt x="752" y="0" on="1"/>
        <pt x="752" y="66" on="1"/>
        <pt x="715" y="56" on="0"/>
        <pt x="673" y="56" on="1"/>
        <pt x="513" y="56" on="0"/>
        <pt x="513" y="209" on="1"/>
      </contour>
    </TTGlyph>
    <TTGlyph name="dvSH_LA.aSimp" xMin="49" yMin="0" xMax="1095" yMax="668">
      <contour>
        <pt x="384" y="517" on="1"/>
        <pt x="384" y="386" on="1"/>
        <pt x="384" y="240" on="0"/>
        <pt x="228" y="240" on="1"/>
        <pt x="185" y="240" on="0"/>
        <pt x="161" y="249" on="1"/>
        <pt x="161" y="177" on="1"/>
        <pt x="161" y="101" on="0"/>
        <pt x="254" y="101" on="1"/>
        <pt x="310" y="101" on="0"/>
        <pt x="372" y="124" on="1"/>
        <pt x="372" y="20" on="1"/>
        <pt x="315" y="0" on="0"/>
        <pt x="145" y="0" on="0"/>
        <pt x="49" y="96" on="0"/>
        <pt x="49" y="174" on="1"/>
        <pt x="49" y="403" on="1"/>
        <pt x="161" y="403" on="1"/>
        <pt x="161" y="347" on="1"/>
        <pt x="185" y="338" on="0"/>
        <pt x="248" y="338" on="0"/>
        <pt x="272" y="364" on="0"/>
        <pt x="272" y="389" on="1"/>
        <pt x="272" y="514" on="1"/>
        <pt x="272" y="538" on="0"/>
        <pt x="248" y="565" on="0"/>
        <pt x="216" y="565" on="1"/>
        <pt x="161" y="565" on="0"/>
        <pt x="161" y="512" on="1"/>
        <pt x="161" y="486" on="0"/>
        <pt x="164" y="474" on="1"/>
        <pt x="53" y="474" on="1"/>
        <pt x="49" y="494" on="0"/>
        <pt x="49" y="517" on="1"/>
        <pt x="49" y="668" on="0"/>
        <pt x="384" y="668" on="0"/>
      </contour>
      <contour>
        <pt x="462" y="171" on="1"/>
        <pt x="462" y="338" on="1"/>
        <pt x="462" y="410" on="0"/>
        <pt x="544" y="489" on="0"/>
        <pt x="703" y="489" on="0"/>
        <pt x="732" y="437" on="1"/>
        <pt x="769" y="488" on="0"/>
        <pt x="838" y="488" on="1"/>
        <pt x="875" y="488" on="0"/>
        <pt x="896" y="480" on="1"/>
        <pt x="896" y="569" on="1"/>
        <pt x="447" y="569" on="1"/>
        <pt x="447" y="663" on="1"/>
        <pt x="1095" y="663" on="1"/>
        <pt x="1095" y="569" on="1"/>
        <pt x="1007" y="569" on="1"/>
        <pt x="1007" y="0" on="1"/>
        <pt x="896" y="0" on="1"/>
        <pt x="896" y="377" on="1"/>
        <pt x="880" y="386" on="0"/>
        <pt x="847" y="386" on="1"/>
        <pt x="790" y="386" on="0"/>
        <pt x="790" y="335" on="1"/>
        <pt x="790" y="210" on="1"/>
        <pt x="679" y="210" on="1"/>
        <pt x="679" y="335" on="1"/>
        <pt x="679" y="386" on="0"/>
        <pt x="626" y="386" on="1"/>
        <pt x="595" y="386" on="0"/>
        <pt x="573" y="359" on="0"/>
        <pt x="573" y="334" on="1"/>
        <pt x="573" y="175" on="1"/>
        <pt x="573" y="140" on="0"/>
        <pt x="608" y="102" on="0"/>
        <pt x="682" y="102" on="0"/>
        <pt x="714" y="106" on="1"/>
        <pt x="714" y="4" on="1"/>
        <pt x="682" y="0" on="0"/>
        <pt x="650" y="0" on="1"/>
        <pt x="552" y="0" on="0"/>
        <pt x="462" y="85" on="0"/>
      </contour>
    </TTGlyph>
    <TTGlyph name="dvSH_VA.aSimp" xMin="49" yMin="0" xMax="891" yMax="668">
      <contour>
        <pt x="384" y="517" on="1"/>
        <pt x="384" y="386" on="1"/>
        <pt x="384" y="240" on="0"/>
        <pt x="228" y="240" on="1"/>
        <pt x="185" y="240" on="0"/>
        <pt x="161" y="249" on="1"/>
        <pt x="161" y="177" on="1"/>
        <pt x="161" y="101" on="0"/>
        <pt x="254" y="101" on="1"/>
        <pt x="310" y="101" on="0"/>
        <pt x="372" y="124" on="1"/>
        <pt x="372" y="20" on="1"/>
        <pt x="315" y="0" on="0"/>
        <pt x="145" y="0" on="0"/>
        <pt x="49" y="96" on="0"/>
        <pt x="49" y="174" on="1"/>
        <pt x="49" y="403" on="1"/>
        <pt x="161" y="403" on="1"/>
        <pt x="161" y="347" on="1"/>
        <pt x="185" y="338" on="0"/>
        <pt x="248" y="338" on="0"/>
        <pt x="272" y="364" on="0"/>
        <pt x="272" y="389" on="1"/>
        <pt x="272" y="514" on="1"/>
        <pt x="272" y="538" on="0"/>
        <pt x="248" y="565" on="0"/>
        <pt x="216" y="565" on="1"/>
        <pt x="161" y="565" on="0"/>
        <pt x="161" y="512" on="1"/>
        <pt x="161" y="486" on="0"/>
        <pt x="164" y="474" on="1"/>
        <pt x="53" y="474" on="1"/>
        <pt x="49" y="494" on="0"/>
        <pt x="49" y="517" on="1"/>
        <pt x="49" y="668" on="0"/>
        <pt x="384" y="668" on="0"/>
      </contour>
      <contour>
        <pt x="634" y="411" on="1"/>
        <pt x="567" y="411" on="0"/>
        <pt x="567" y="356" on="1"/>
        <pt x="567" y="210" on="1"/>
        <pt x="567" y="154" on="0"/>
        <pt x="635" y="154" on="1"/>
        <pt x="674" y="154" on="0"/>
        <pt x="697" y="163" on="1"/>
        <pt x="697" y="403" on="1"/>
        <pt x="662" y="411" on="0"/>
      </contour>
      <contour>
        <pt x="692" y="569" on="1"/>
        <pt x="429" y="569" on="1"/>
        <pt x="429" y="663" on="1"/>
        <pt x="891" y="663" on="1"/>
        <pt x="891" y="569" on="1"/>
        <pt x="804" y="569" on="1"/>
        <pt x="804" y="0" on="1"/>
        <pt x="692" y="0" on="1"/>
        <pt x="692" y="68" on="1"/>
        <pt x="663" y="59" on="0"/>
        <pt x="616" y="59" on="1"/>
        <pt x="533" y="59" on="0"/>
        <pt x="458" y="133" on="0"/>
        <pt x="458" y="207" on="1"/>
        <pt x="458" y="357" on="1"/>
        <pt x="458" y="506" on="0"/>
        <pt x="616" y="506" on="1"/>
        <pt x="653" y="506" on="0"/>
        <pt x="692" y="497" on="1"/>
      </contour>
    </TTGlyph>
    <TTGlyph name="dvTTH_TTHA" xMin="-34" yMin="-180" xMax="486" yMax="663">
      <contour>
        <pt x="486" y="569" on="1"/>
        <pt x="282" y="569" on="1"/>
        <pt x="282" y="501" on="1"/>
        <pt x="401" y="481" on="0"/>
        <pt x="401" y="360" on="1"/>
        <pt x="401" y="257" on="1"/>
        <pt x="401" y="196" on="0"/>
        <pt x="356" y="164" on="1"/>
        <pt x="401" y="132" on="0"/>
        <pt x="401" y="68" on="1"/>
        <pt x="401" y="-35" on="1"/>
        <pt x="401" y="-106" on="0"/>
        <pt x="312" y="-180" on="0"/>
        <pt x="141" y="-180" on="0"/>
        <pt x="53" y="-106" on="0"/>
        <pt x="53" y="-35" on="1"/>
        <pt x="53" y="68" on="1"/>
        <pt x="53" y="132" on="0"/>
        <pt x="98" y="164" on="1"/>
        <pt x="53" y="196" on="0"/>
        <pt x="53" y="257" on="1"/>
        <pt x="53" y="359" on="1"/>
        <pt x="53" y="482" on="0"/>
        <pt x="171" y="501" on="1"/>
        <pt x="171" y="569" on="1"/>
        <pt x="-34" y="569" on="1"/>
        <pt x="-34" y="663" on="1"/>
        <pt x="486" y="663" on="1"/>
      </contour>
      <contour>
        <pt x="293" y="-31" on="1"/>
        <pt x="293" y="65" on="1"/>
        <pt x="293" y="118" on="0"/>
        <pt x="227" y="118" on="1"/>
        <pt x="191" y="118" on="0"/>
        <pt x="161" y="91" on="0"/>
        <pt x="161" y="65" on="1"/>
        <pt x="161" y="-31" on="1"/>
        <pt x="161" y="-85" on="0"/>
        <pt x="293" y="-85" on="0"/>
      </contour>
      <contour>
        <pt x="293" y="261" on="1"/>
        <pt x="293" y="357" on="1"/>
        <pt x="293" y="410" on="0"/>
        <pt x="227" y="410" on="1"/>
        <pt x="191" y="410" on="0"/>
        <pt x="161" y="383" on="0"/>
        <pt x="161" y="357" on="1"/>
        <pt x="161" y="261" on="1"/>
        <pt x="161" y="207" on="0"/>
        <pt x="293" y="207" on="0"/>
      </contour>
    </TTGlyph>
    <TTGlyph name="dvTT_GA" xMin="-34" yMin="-213" xMax="441" yMax="663">
      <contour>
        <pt x="351" y="393" on="1"/>
        <pt x="227" y="393" on="1"/>
        <pt x="154" y="393" on="0"/>
        <pt x="154" y="329" on="1"/>
        <pt x="154" y="191" on="1"/>
        <pt x="154" y="154" on="0"/>
        <pt x="200" y="123" on="0"/>
        <pt x="300" y="123" on="0"/>
        <pt x="367" y="136" on="1"/>
        <pt x="367" y="36" on="1"/>
        <pt x="355" y="33" on="1"/>
        <pt x="355" y="-213" on="1"/>
        <pt x="251" y="-213" on="1"/>
        <pt x="251" y="21" on="1"/>
        <pt x="240" y="21" on="1"/>
        <pt x="209" y="21" on="0"/>
        <pt x="188" y="25" on="1"/>
        <pt x="188" y="-2" on="1"/>
        <pt x="188" y="-78" on="0"/>
        <pt x="128" y="-141" on="0"/>
        <pt x="51" y="-141" on="1"/>
        <pt x="12" y="-139" on="1"/>
        <pt x="11" y="-42" on="1"/>
        <pt x="28" y="-43" on="0"/>
        <pt x="33" y="-43" on="1"/>
        <pt x="64" y="-43" on="0"/>
        <pt x="84" y="-21" on="0"/>
        <pt x="84" y="7" on="1"/>
        <pt x="84" y="73" on="1"/>
        <pt x="43" y="116" on="0"/>
        <pt x="43" y="189" on="1"/>
        <pt x="43" y="337" on="1"/>
        <pt x="43" y="495" on="0"/>
        <pt x="215" y="495" on="1"/>
        <pt x="240" y="495" on="1"/>
        <pt x="240" y="569" on="1"/>
        <pt x="-34" y="569" on="1"/>
        <pt x="-34" y="663" on="1"/>
        <pt x="441" y="663" on="1"/>
        <pt x="441" y="569" on="1"/>
        <pt x="351" y="569" on="1"/>
      </contour>
    </TTGlyph>
    <TTGlyph name="dvT_KH_NA" xMin="-34" yMin="-5" xMax="1448" yMax="663">
      <contour>
        <pt x="496" y="514" on="1"/>
        <pt x="496" y="545" on="0"/>
        <pt x="485" y="569" on="1"/>
        <pt x="-34" y="569" on="1"/>
        <pt x="-34" y="663" on="1"/>
        <pt x="1448" y="663" on="1"/>
        <pt x="1448" y="569" on="1"/>
        <pt x="1361" y="569" on="1"/>
        <pt x="1361" y="0" on="1"/>
        <pt x="1249" y="0" on="1"/>
        <pt x="1249" y="384" on="1"/>
        <pt x="1157" y="384" on="1"/>
        <pt x="1165" y="344" on="0"/>
        <pt x="1165" y="323" on="1"/>
        <pt x="1165" y="203" on="1"/>
        <pt x="1165" y="130" on="0"/>
        <pt x="1091" y="55" on="0"/>
        <pt x="1011" y="55" on="1"/>
        <pt x="906" y="55" on="0"/>
        <pt x="872" y="121" on="1"/>
        <pt x="842" y="110" on="0"/>
        <pt x="800" y="110" on="1"/>
        <pt x="713" y="110" on="0"/>
        <pt x="644" y="179" on="0"/>
        <pt x="644" y="255" on="1"/>
        <pt x="644" y="351" on="1"/>
        <pt x="644" y="425" on="0"/>
        <pt x="713" y="496" on="0"/>
        <pt x="878" y="496" on="0"/>
        <pt x="912" y="464" on="1"/>
        <pt x="949" y="487" on="0"/>
        <pt x="1011" y="487" on="1"/>
        <pt x="1249" y="487" on="1"/>
        <pt x="1249" y="569" on="1"/>
        <pt x="592" y="569" on="1"/>
        <pt x="600" y="550" on="0"/>
        <pt x="600" y="514" on="1"/>
        <pt x="600" y="392" on="1"/>
        <pt x="600" y="238" on="0"/>
        <pt x="447" y="238" on="1"/>
        <pt x="421" y="238" on="0"/>
        <pt x="393" y="243" on="1"/>
        <pt x="393" y="188" on="1"/>
        <pt x="393" y="96" on="0"/>
        <pt x="515" y="96" on="1"/>
        <pt x="582" y="96" on="0"/>
        <pt x="641" y="117" on="1"/>
        <pt x="641" y="13" on="1"/>
        <pt x="582" y="-5" on="0"/>
        <pt x="506" y="-5" on="1"/>
        <pt x="399" y="-5" on="0"/>
        <pt x="287" y="97" on="0"/>
        <pt x="287" y="187" on="1"/>
        <pt x="287" y="383" on="1"/>
        <pt x="251" y="386" on="0"/>
        <pt x="230" y="386" on="1"/>
        <pt x="153" y="386" on="0"/>
        <pt x="153" y="321" on="1"/>
        <pt x="153" y="152" on="1"/>
        <pt x="153" y="125" on="0"/>
        <pt x="181" y="103" on="0"/>
        <pt x="216" y="103" on="1"/>
        <pt x="216" y="-1" on="1"/>
        <pt x="190" y="-2" on="1"/>
        <pt x="109" y="-3" on="0"/>
        <pt x="42" y="69" on="0"/>
        <pt x="42" y="142" on="1"/>
        <pt x="42" y="324" on="1"/>
        <pt x="42" y="400" on="0"/>
        <pt x="133" y="489" on="0"/>
        <pt x="307" y="489" on="0"/>
        <pt x="393" y="475" on="1"/>
        <pt x="393" y="340" on="1"/>
        <pt x="415" y="337" on="0"/>
        <pt x="443" y="337" on="1"/>
        <pt x="496" y="337" on="0"/>
        <pt x="496" y="394" on="1"/>
      </contour>
      <contour>
        <pt x="745" y="351" on="1"/>
        <pt x="745" y="255" on="1"/>
        <pt x="745" y="229" on="0"/>
        <pt x="768" y="204" on="0"/>
        <pt x="832" y="204" on="0"/>
        <pt x="856" y="229" on="0"/>
        <pt x="856" y="255" on="1"/>
        <pt x="856" y="351" on="1"/>
        <pt x="856" y="376" on="0"/>
        <pt x="832" y="401" on="0"/>
        <pt x="768" y="401" on="0"/>
        <pt x="745" y="376" on="0"/>
      </contour>
      <contour>
        <pt x="1060" y="204" on="1"/>
        <pt x="1060" y="319" on="1"/>
        <pt x="1060" y="363" on="0"/>
        <pt x="1051" y="384" on="1"/>
        <pt x="1011" y="384" on="1"/>
        <pt x="983" y="384" on="0"/>
        <pt x="962" y="360" on="0"/>
        <pt x="962" y="336" on="1"/>
        <pt x="962" y="204" on="1"/>
        <pt x="962" y="179" on="0"/>
        <pt x="983" y="155" on="0"/>
        <pt x="1039" y="155" on="0"/>
        <pt x="1060" y="179" on="0"/>
      </contour>
    </TTGlyph>
    <TTGlyph name="dvT_S_NA" xMin="-34" yMin="-5" xMax="1279" yMax="663">
      <contour>
        <pt x="493" y="514" on="1"/>
        <pt x="493" y="547" on="0"/>
        <pt x="483" y="569" on="1"/>
        <pt x="-34" y="569" on="1"/>
        <pt x="-34" y="663" on="1"/>
        <pt x="1279" y="663" on="1"/>
        <pt x="1279" y="569" on="1"/>
        <pt x="1191" y="569" on="1"/>
        <pt x="1191" y="0" on="1"/>
        <pt x="1080" y="0" on="1"/>
        <pt x="1080" y="384" on="1"/>
        <pt x="987" y="384" on="1"/>
        <pt x="995" y="344" on="0"/>
        <pt x="995" y="323" on="1"/>
        <pt x="995" y="203" on="1"/>
        <pt x="995" y="130" on="0"/>
        <pt x="921" y="55" on="0"/>
        <pt x="841" y="55" on="1"/>
        <pt x="686" y="55" on="0"/>
        <pt x="686" y="203" on="1"/>
        <pt x="686" y="272" on="1"/>
        <pt x="566" y="272" on="1"/>
        <pt x="530" y="234" on="0"/>
        <pt x="451" y="234" on="1"/>
        <pt x="427" y="234" on="0"/>
        <pt x="393" y="240" on="1"/>
        <pt x="393" y="165" on="1"/>
        <pt x="393" y="96" on="0"/>
        <pt x="493" y="96" on="1"/>
        <pt x="554" y="96" on="0"/>
        <pt x="614" y="119" on="1"/>
        <pt x="614" y="15" on="1"/>
        <pt x="556" y="-5" on="0"/>
        <pt x="382" y="-5" on="0"/>
        <pt x="282" y="84" on="0"/>
        <pt x="282" y="162" on="1"/>
        <pt x="282" y="383" on="1"/>
        <pt x="249" y="386" on="0"/>
        <pt x="230" y="386" on="1"/>
        <pt x="153" y="386" on="0"/>
        <pt x="153" y="321" on="1"/>
        <pt x="153" y="152" on="1"/>
        <pt x="153" y="125" on="0"/>
        <pt x="181" y="103" on="0"/>
        <pt x="216" y="103" on="1"/>
        <pt x="216" y="-1" on="1"/>
        <pt x="190" y="-2" on="1"/>
        <pt x="109" y="-3" on="0"/>
        <pt x="42" y="69" on="0"/>
        <pt x="42" y="142" on="1"/>
        <pt x="42" y="324" on="1"/>
        <pt x="42" y="400" on="0"/>
        <pt x="133" y="489" on="0"/>
        <pt x="307" y="489" on="0"/>
        <pt x="393" y="475" on="1"/>
        <pt x="393" y="339" on="1"/>
        <pt x="416" y="332" on="0"/>
        <pt x="437" y="332" on="1"/>
        <pt x="493" y="332" on="0"/>
        <pt x="493" y="384" on="1"/>
      </contour>
      <contour>
        <pt x="890" y="204" on="1"/>
        <pt x="890" y="319" on="1"/>
        <pt x="890" y="363" on="0"/>
        <pt x="881" y="384" on="1"/>
        <pt x="841" y="384" on="1"/>
        <pt x="813" y="384" on="0"/>
        <pt x="793" y="360" on="0"/>
        <pt x="793" y="336" on="1"/>
        <pt x="793" y="204" on="1"/>
        <pt x="793" y="179" on="0"/>
        <pt x="813" y="155" on="0"/>
        <pt x="869" y="155" on="0"/>
        <pt x="890" y="179" on="0"/>
      </contour>
      <contour>
        <pt x="1080" y="487" on="1"/>
        <pt x="1080" y="569" on="1"/>
        <pt x="595" y="569" on="1"/>
        <pt x="602" y="550" on="0"/>
        <pt x="602" y="514" on="1"/>
        <pt x="602" y="368" on="1"/>
        <pt x="688" y="368" on="1"/>
        <pt x="700" y="487" on="0"/>
        <pt x="841" y="487" on="1"/>
      </contour>
    </TTGlyph>
    <TTGlyph name="e" xMin="44" yMin="-6" xMax="398" yMax="592">
      <contour>
        <pt x="44" y="159" on="1"/>
        <pt x="44" y="433" on="1"/>
        <pt x="44" y="507" on="0"/>
        <pt x="133" y="592" on="0"/>
        <pt x="313" y="592" on="0"/>
        <pt x="398" y="507" on="0"/>
        <pt x="398" y="433" on="1"/>
        <pt x="398" y="241" on="1"/>
        <pt x="161" y="241" on="1"/>
        <pt x="161" y="168" on="1"/>
        <pt x="161" y="132" on="0"/>
        <pt x="203" y="100" on="0"/>
        <pt x="321" y="100" on="0"/>
        <pt x="383" y="119" on="1"/>
        <pt x="383" y="12" on="1"/>
        <pt x="321" y="-6" on="0"/>
        <pt x="245" y="-6" on="1"/>
        <pt x="44" y="-6" on="0"/>
      </contour>
      <contour>
        <pt x="161" y="335" on="1"/>
        <pt x="286" y="335" on="1"/>
        <pt x="286" y="432" on="1"/>
        <pt x="286" y="491" on="0"/>
        <pt x="161" y="491" on="0"/>
        <pt x="161" y="432" on="1"/>
      </contour>
    </TTGlyph>
    <TTGlyph name="eacute" xMin="44" yMin="-6" xMax="398" yMax="737">
      <contour>
        <pt x="44" y="159" on="1"/>
        <pt x="44" y="433" on="1"/>
        <pt x="44" y="507" on="0"/>
        <pt x="133" y="592" on="0"/>
        <pt x="313" y="592" on="0"/>
        <pt x="398" y="507" on="0"/>
        <pt x="398" y="433" on="1"/>
        <pt x="398" y="241" on="1"/>
        <pt x="161" y="241" on="1"/>
        <pt x="161" y="168" on="1"/>
        <pt x="161" y="132" on="0"/>
        <pt x="203" y="100" on="0"/>
        <pt x="321" y="100" on="0"/>
        <pt x="383" y="119" on="1"/>
        <pt x="383" y="12" on="1"/>
        <pt x="321" y="-6" on="0"/>
        <pt x="245" y="-6" on="1"/>
        <pt x="44" y="-6" on="0"/>
      </contour>
      <contour>
        <pt x="161" y="335" on="1"/>
        <pt x="286" y="335" on="1"/>
        <pt x="286" y="432" on="1"/>
        <pt x="286" y="491" on="0"/>
        <pt x="161" y="491" on="0"/>
        <pt x="161" y="432" on="1"/>
      </contour>
      <contour>
        <pt x="325" y="737" on="1"/>
        <pt x="256" y="625" on="1"/>
        <pt x="189" y="625" on="1"/>
        <pt x="231" y="737" on="1"/>
      </contour>
    </TTGlyph>
    <TTGlyph name="ecaron" xMin="44" yMin="-6" xMax="398" yMax="737">
      <contour>
        <pt x="44" y="159" on="1"/>
        <pt x="44" y="433" on="1"/>
        <pt x="44" y="507" on="0"/>
        <pt x="133" y="592" on="0"/>
        <pt x="313" y="592" on="0"/>
        <pt x="398" y="507" on="0"/>
        <pt x="398" y="433" on="1"/>
        <pt x="398" y="241" on="1"/>
        <pt x="161" y="241" on="1"/>
        <pt x="161" y="168" on="1"/>
        <pt x="161" y="132" on="0"/>
        <pt x="203" y="100" on="0"/>
        <pt x="321" y="100" on="0"/>
        <pt x="383" y="119" on="1"/>
        <pt x="383" y="12" on="1"/>
        <pt x="321" y="-6" on="0"/>
        <pt x="245" y="-6" on="1"/>
        <pt x="44" y="-6" on="0"/>
      </contour>
      <contour>
        <pt x="161" y="335" on="1"/>
        <pt x="286" y="335" on="1"/>
        <pt x="286" y="432" on="1"/>
        <pt x="286" y="491" on="0"/>
        <pt x="161" y="491" on="0"/>
        <pt x="161" y="432" on="1"/>
      </contour>
      <contour>
        <pt x="180" y="625" on="1"/>
        <pt x="124" y="737" on="1"/>
        <pt x="186" y="737" on="1"/>
        <pt x="225" y="681" on="1"/>
        <pt x="264" y="737" on="1"/>
        <pt x="325" y="737" on="1"/>
        <pt x="269" y="625" on="1"/>
      </contour>
    </TTGlyph>
    <TTGlyph name="ecircumflex" xMin="44" yMin="-6" xMax="398" yMax="737">
      <contour>
        <pt x="44" y="159" on="1"/>
        <pt x="44" y="433" on="1"/>
        <pt x="44" y="507" on="0"/>
        <pt x="133" y="592" on="0"/>
        <pt x="313" y="592" on="0"/>
        <pt x="398" y="507" on="0"/>
        <pt x="398" y="433" on="1"/>
        <pt x="398" y="241" on="1"/>
        <pt x="161" y="241" on="1"/>
        <pt x="161" y="168" on="1"/>
        <pt x="161" y="132" on="0"/>
        <pt x="203" y="100" on="0"/>
        <pt x="321" y="100" on="0"/>
        <pt x="383" y="119" on="1"/>
        <pt x="383" y="12" on="1"/>
        <pt x="321" y="-6" on="0"/>
        <pt x="245" y="-6" on="1"/>
        <pt x="44" y="-6" on="0"/>
      </contour>
      <contour>
        <pt x="161" y="335" on="1"/>
        <pt x="286" y="335" on="1"/>
        <pt x="286" y="432" on="1"/>
        <pt x="286" y="491" on="0"/>
        <pt x="161" y="491" on="0"/>
        <pt x="161" y="432" on="1"/>
      </contour>
      <contour>
        <pt x="228" y="681" on="1"/>
        <pt x="189" y="625" on="1"/>
        <pt x="127" y="625" on="1"/>
        <pt x="183" y="737" on="1"/>
        <pt x="272" y="737" on="1"/>
        <pt x="328" y="625" on="1"/>
        <pt x="267" y="625" on="1"/>
      </contour>
    </TTGlyph>
    <TTGlyph name="edieresis" xMin="44" yMin="-6" xMax="398" yMax="728">
      <contour>
        <pt x="44" y="159" on="1"/>
        <pt x="44" y="433" on="1"/>
        <pt x="44" y="507" on="0"/>
        <pt x="133" y="592" on="0"/>
        <pt x="313" y="592" on="0"/>
        <pt x="398" y="507" on="0"/>
        <pt x="398" y="433" on="1"/>
        <pt x="398" y="241" on="1"/>
        <pt x="161" y="241" on="1"/>
        <pt x="161" y="168" on="1"/>
        <pt x="161" y="132" on="0"/>
        <pt x="203" y="100" on="0"/>
        <pt x="321" y="100" on="0"/>
        <pt x="383" y="119" on="1"/>
        <pt x="383" y="12" on="1"/>
        <pt x="321" y="-6" on="0"/>
        <pt x="245" y="-6" on="1"/>
        <pt x="44" y="-6" on="0"/>
      </contour>
      <contour>
        <pt x="161" y="335" on="1"/>
        <pt x="286" y="335" on="1"/>
        <pt x="286" y="432" on="1"/>
        <pt x="286" y="491" on="0"/>
        <pt x="161" y="491" on="0"/>
        <pt x="161" y="432" on="1"/>
      </contour>
      <contour>
        <pt x="196" y="728" on="0"/>
        <pt x="196" y="632" on="0"/>
        <pt x="95" y="632" on="0"/>
        <pt x="95" y="728" on="0"/>
      </contour>
      <contour>
        <pt x="353" y="728" on="0"/>
        <pt x="353" y="632" on="0"/>
        <pt x="252" y="632" on="0"/>
        <pt x="252" y="728" on="0"/>
      </contour>
    </TTGlyph>
    <TTGlyph name="edotaccent" xMin="44" yMin="-6" xMax="398" yMax="737">
      <contour>
        <pt x="44" y="159" on="1"/>
        <pt x="44" y="433" on="1"/>
        <pt x="44" y="507" on="0"/>
        <pt x="133" y="592" on="0"/>
        <pt x="313" y="592" on="0"/>
        <pt x="398" y="507" on="0"/>
        <pt x="398" y="433" on="1"/>
        <pt x="398" y="241" on="1"/>
        <pt x="161" y="241" on="1"/>
        <pt x="161" y="168" on="1"/>
        <pt x="161" y="132" on="0"/>
        <pt x="203" y="100" on="0"/>
        <pt x="321" y="100" on="0"/>
        <pt x="383" y="119" on="1"/>
        <pt x="383" y="12" on="1"/>
        <pt x="321" y="-6" on="0"/>
        <pt x="245" y="-6" on="1"/>
        <pt x="44" y="-6" on="0"/>
      </contour>
      <contour>
        <pt x="161" y="335" on="1"/>
        <pt x="286" y="335" on="1"/>
        <pt x="286" y="432" on="1"/>
        <pt x="286" y="491" on="0"/>
        <pt x="161" y="491" on="0"/>
        <pt x="161" y="432" on="1"/>
      </contour>
      <contour>
        <pt x="275" y="737" on="0"/>
        <pt x="275" y="641" on="0"/>
        <pt x="174" y="641" on="0"/>
        <pt x="174" y="737" on="0"/>
      </contour>
    </TTGlyph>
    <TTGlyph name="egrave" xMin="44" yMin="-6" xMax="398" yMax="737">
      <contour>
        <pt x="44" y="159" on="1"/>
        <pt x="44" y="433" on="1"/>
        <pt x="44" y="507" on="0"/>
        <pt x="133" y="592" on="0"/>
        <pt x="313" y="592" on="0"/>
        <pt x="398" y="507" on="0"/>
        <pt x="398" y="433" on="1"/>
        <pt x="398" y="241" on="1"/>
        <pt x="161" y="241" on="1"/>
        <pt x="161" y="168" on="1"/>
        <pt x="161" y="132" on="0"/>
        <pt x="203" y="100" on="0"/>
        <pt x="321" y="100" on="0"/>
        <pt x="383" y="119" on="1"/>
        <pt x="383" y="12" on="1"/>
        <pt x="321" y="-6" on="0"/>
        <pt x="245" y="-6" on="1"/>
        <pt x="44" y="-6" on="0"/>
      </contour>
      <contour>
        <pt x="161" y="335" on="1"/>
        <pt x="286" y="335" on="1"/>
        <pt x="286" y="432" on="1"/>
        <pt x="286" y="491" on="0"/>
        <pt x="161" y="491" on="0"/>
        <pt x="161" y="432" on="1"/>
      </contour>
      <contour>
        <pt x="258" y="625" on="1"/>
        <pt x="191" y="625" on="1"/>
        <pt x="122" y="737" on="1"/>
        <pt x="216" y="737" on="1"/>
      </contour>
    </TTGlyph>
</ttFont>
